<?xml version="1.0" encoding="utf-8"?>
<!-- Generator: Adobe Illustrator 20.1.0, SVG Export Plug-In . SVG Version: 6.00 Build 0)  -->
<svg version="1.1" id="cloud_hosting_for_business-grey"
	 xmlns="http://www.w3.org/2000/svg" xmlns:xlink="http://www.w3.org/1999/xlink" x="0px" y="0px" viewBox="0 0 73 45"
	 enable-background="new 0 0 73 45" xml:space="preserve">
<path fill="#828A91" d="M37.8,4c9,0,16.3,7.4,16.4,16.4c0,0.1,0,0.1,0,0.2v4.9l4.8-1c0.6-0.1,1.1-0.2,1.7-0.2c4.5,0,8.2,3.7,8.2,8.3
	s-3.7,8.3-8.2,8.3H14.9C8.9,41,4,36.1,4,30s4.9-11,10.9-11c0.8,0,1.6,0.1,2.4,0.3l3.8,0.8l1-3.7C23.8,9.1,30.3,4,37.8,4 M37.8,0
	c-9.5,0-17.5,6.5-19.7,15.4c-1-0.2-2.1-0.4-3.2-0.4C6.7,15.1,0,21.8,0,30c0,8.3,6.7,15,14.9,15h45.9C67.5,45,73,39.5,73,32.7
	s-5.5-12.3-12.2-12.3c-0.9,0-1.7,0.1-2.5,0.3v-0.1C58.2,9.2,49.1,0,37.8,0L37.8,0z"/>
</svg>
