<?xml version="1.0" encoding="utf-8"?>
<!-- Generator: Adobe Illustrator 20.1.0, SVG Export Plug-In . SVG Version: 6.00 Build 0)  -->
<svg version="1.1" id="free-hosting-migration" xmlns="http://www.w3.org/2000/svg" xmlns:xlink="http://www.w3.org/1999/xlink"
	 x="0px" y="0px" viewBox="0 0 48 48" enable-background="new 0 0 48 48" xml:space="preserve">
<path fill="#0363FF" d="M48,21.9V7.2H37.7L35.5,4h-9.9v7.9H16v6.3h-3.9l-2.1-3.2H0v17.9h16v6.3h9.6V44H48V29.3H37.7l-2.1-3.2h-9.9
	v10h-6.4v-3.2h3.2V18.2h-3.2v-3.2h6.4v6.8L48,21.9L48,21.9z M28.8,7.2h5l2.1,3.2h8.9v8.4h-16V7.2z M28.8,29.3h5l2.1,3.2h8.9v8.4h-16
	V29.3z M19.2,29.8h-16V18.2h5l2.1,3.2h8.9V29.8z"/>
</svg>
