<?xml version="1.0" encoding="utf-8"?>
<!-- Generator: Adobe Illustrator 20.1.0, SVG Export Plug-In . SVG Version: 6.00 Build 0)  -->
<svg version="1.1" id="img2" xmlns="http://www.w3.org/2000/svg" xmlns:xlink="http://www.w3.org/1999/xlink" x="0px" y="0px"
	 viewBox="0 0 416.4 408.3" enable-background="new 0 0 416.4 408.3" xml:space="preserve">
<g>
	<path opacity="0.1" fill="#0363FF" d="M208.3,252.5l-142,75l150.9,79.7c2.7,1.4,6,1.4,8.7,0l133-70.2c2-1.1,2-3.9,0-5L208.3,252.5z
		"/>
	<g>
		<path fill="#9AC1FF" stroke="#0363FF" stroke-miterlimit="10" d="M261.1,270.9l-146.4,68.2l0,0c0,5.7,3.2,11,8.2,13.6l93,48.7
			c3.3,1.7,7.2,1.7,10.4,0L351.9,335c6.5-3.4,10.8-9.9,11.6-17.2h0L261.1,270.9z"/>
		<path fill="#CDE0FF" stroke="#0363FF" stroke-linecap="round" stroke-linejoin="round" stroke-miterlimit="10" d="M261.1,261.6
			l-146.4,77.5L216,392.1c3.3,1.7,7.2,1.7,10.4,0l135.2-71.6c2.5-1.3,2.5-5,0-6.3L261.1,261.6z"/>
	</g>
	<g>
		<path fill="#9AC1FF" stroke="#0363FF" stroke-miterlimit="10" d="M261.1,261.6l-146.4,77.3V215.2c0-4,2.2-7.7,5.7-9.5l132.6-70
			c3.7-1.9,8,0.7,8,4.8V261.6z"/>
		<polygon fill="#0363FF" points="253.3,255.9 123.8,324.4 123.8,219.6 253.3,151.1 		"/>
	</g>
	<polygon fill="#9AC1FF" stroke="#0363FF" stroke-miterlimit="10" points="262.2,274 139.2,338.9 200.7,371.4 323.6,306.5 	"/>
	<polygon fill="#9AC1FF" stroke="#0363FF" stroke-miterlimit="10" points="281.2,334.5 246.5,352.7 267.9,363.9 302.6,345.7 	"/>
	<path fill="#CDE0FF" stroke="#0363FF" stroke-linecap="round" stroke-linejoin="round" stroke-miterlimit="10" d="M113.8,230.6
		L20.8,299c0,0-13-8.2-17.5-11.3c-2.1-1.4-3.4-6.6-2.4-12c2.9-15.5,19.2-22,19.2-22s-6.4-14,11-33.7c15.2-16.8,26.8-14.2,26.8-14.2
		s5.5-29.9,36.8-40.3c6.8-2,11.6-1.1,14.9,0.7c8.7,4.6,20.7,11.1,41.5,23.5C151.1,210,120.4,226.9,113.8,230.6z"/>
	<path fill="#FFFFFF" stroke="#0363FF" stroke-linecap="round" stroke-linejoin="round" stroke-miterlimit="10" d="M131.2,242.4
		c0,0-95.7,54.9-99.4,56.9s-8.7,2.1-11.4-0.7c-2.3-2.3-2.4-5.8-1.9-10.2c1.7-14.4,18.9-23.1,18.9-23.1s-8.6-12,11-33.7
		c15.2-16.8,26.8-14.2,26.8-14.2s5.5-29.9,36.8-40.3c19.8-5.7,22.5,11.7,22.5,11.7s21.1-8,21.1,12.3S137.8,238.6,131.2,242.4z"/>
	<path fill="#CDE0FF" stroke="#0363FF" stroke-linecap="round" stroke-linejoin="round" stroke-miterlimit="10" d="M374.2,153.7
		l-93.1,68.4c0,0-13-8.2-17.5-11.3c-2.1-1.4-3.4-6.6-2.4-12c2.9-15.5,19.2-22,19.2-22s-6.4-14,11-33.7
		c15.2-16.8,26.8-14.2,26.8-14.2S323.7,99,355,88.6c6.8-2,11.6-1.1,14.9,0.7c8.7,4.6,20.7,11.1,41.5,23.5
		C411.4,133.1,380.8,150,374.2,153.7z"/>
	<path fill="#FFFFFF" stroke="#0363FF" stroke-linecap="round" stroke-linejoin="round" stroke-miterlimit="10" d="M391.6,165.5
		c0,0-95.7,54.9-99.4,56.9c-3.7,2.1-8.7,2.1-11.4-0.7c-2.3-2.3-2.4-5.8-1.9-10.2c1.7-14.4,18.9-23.1,18.9-23.1s-8.6-12,11-33.7
		c15.2-16.8,26.8-14.2,26.8-14.2s5.5-29.9,36.8-40.3c19.8-5.7,22.5,11.7,22.5,11.7s21.1-8,21.1,12.3S398.1,161.7,391.6,165.5z"/>
	<g>
		<g>
			<polygon opacity="0.2" fill="#0363FF" points="266.7,318 235.8,301.7 229.2,305.2 267,324.9 306.6,303.9 299.8,300.6 			"/>
			<polygon fill="#FFFFFF" stroke="#0363FF" stroke-linecap="round" stroke-linejoin="round" stroke-miterlimit="10" points="
				304.5,302.4 270.3,320.4 270.3,119.6 304.5,101.5 			"/>
			<polygon fill="#CDE0FF" stroke="#0363FF" stroke-linecap="round" stroke-linejoin="round" stroke-miterlimit="10" points="
				236.1,302.4 270.3,320.4 270.3,119.6 236.1,101.5 			"/>
			<polygon fill="#FFFFFF" stroke="#0363FF" stroke-linecap="round" stroke-linejoin="round" stroke-miterlimit="10" points="
				270.3,83.5 236.1,101.5 270.3,119.6 304.5,101.5 			"/>
			
				<polygon fill="none" stroke="#9AC1FF" stroke-linecap="round" stroke-linejoin="round" stroke-miterlimit="10" stroke-dasharray="2,2" points="
				304.5,89 270.3,107.1 270.3,36.6 304.5,18.6 			"/>
			
				<polygon fill="none" stroke="#9AC1FF" stroke-linecap="round" stroke-linejoin="round" stroke-miterlimit="10" stroke-dasharray="2,2" points="
				236.1,89 270.3,107.1 270.3,36.6 236.1,18.6 			"/>
			<polygon fill="#FFFFFF" stroke="#9AC1FF" stroke-linecap="round" stroke-linejoin="round" stroke-miterlimit="10" points="
				270.3,0.5 236.1,18.6 270.3,36.6 304.5,18.6 			"/>
			
				<polyline fill="none" stroke="#9AC1FF" stroke-linecap="round" stroke-linejoin="round" stroke-miterlimit="10" stroke-dasharray="2,2" points="
				304.5,89 277.6,74.8 270.3,70.9 265.8,73.3 236.1,89 			"/>
		</g>
		<g>
			<polygon opacity="0.2" fill="#0363FF" points="215.2,326.7 172.7,308.2 138.3,326.3 200.5,360 237.4,340.5 232.9,338 			"/>
			<polygon fill="#FFFFFF" stroke="#0363FF" stroke-linecap="round" stroke-linejoin="round" stroke-miterlimit="10" points="
				236.1,338.4 201.8,356.5 201.8,155.7 236.1,137.6 			"/>
			<polygon fill="#CDE0FF" stroke="#0363FF" stroke-linecap="round" stroke-linejoin="round" stroke-miterlimit="10" points="
				167.6,338.4 201.8,356.5 201.8,155.7 167.6,137.6 			"/>
			<polygon fill="#FFFFFF" stroke="#0363FF" stroke-linecap="round" stroke-linejoin="round" stroke-miterlimit="10" points="
				201.8,119.6 167.6,137.6 201.8,155.7 236.1,137.6 			"/>
			
				<polygon fill="none" stroke="#9AC1FF" stroke-linecap="round" stroke-linejoin="round" stroke-miterlimit="10" stroke-dasharray="2,2" points="
				236.1,125.1 201.8,143.2 201.8,86.9 236.1,68.9 			"/>
			
				<polygon fill="none" stroke="#9AC1FF" stroke-linecap="round" stroke-linejoin="round" stroke-miterlimit="10" stroke-dasharray="2,2" points="
				167.6,125.1 201.8,143.2 201.8,86.9 167.6,68.9 			"/>
			<polygon fill="#FFFFFF" stroke="#9AC1FF" stroke-linecap="round" stroke-linejoin="round" stroke-miterlimit="10" points="
				201.8,50.8 167.6,68.9 201.8,86.9 236.1,68.9 			"/>
			
				<polyline fill="none" stroke="#9AC1FF" stroke-linecap="round" stroke-linejoin="round" stroke-miterlimit="10" stroke-dasharray="2,2" points="
				236.1,125.1 209.1,110.9 201.8,107 197.3,109.4 167.6,125.1 			"/>
		</g>
		<g>
			<path fill="#0363FF" d="M280.9,23.7l-2.1-1.2c-1.1,0.4-2.3,0.6-3.7,0.6s-2.6-0.2-3.9-0.6l1.1-1.6c1,0.3,2,0.4,3,0.3
				c1-0.1,1.8-0.3,2.5-0.7c0.7-0.4,1.1-0.9,1.1-1.4c0-0.5-0.4-1-1.2-1.4c-0.4-0.2-0.9-0.4-1.3-0.5c-0.5-0.1-1-0.1-1.6-0.1
				c-0.6,0.1-1.1,0.1-1.5,0.2c-0.4,0.1-1,0.2-1.7,0.4c-0.7,0.2-1.3,0.3-1.6,0.4c-0.4,0.1-0.9,0.2-1.6,0.2c-0.7,0.1-1.3,0.1-1.8,0.1
				c-0.5,0-1.1-0.1-1.7-0.3c-0.6-0.2-1.2-0.4-1.8-0.7c-1-0.6-1.6-1.3-1.8-2.1c-0.2-0.8,0.1-1.5,1-2.2l-1.9-1.1l2.1-1.2l1.9,1.1
				c1-0.3,2-0.5,3-0.5c1.1,0,2.1,0.2,3.1,0.5l-1.2,1.5c-0.7-0.2-1.3-0.2-2-0.2c-0.7,0.1-1.3,0.3-1.9,0.6c-0.6,0.4-0.9,0.7-0.9,1.1
				c0,0.4,0.3,0.8,0.9,1.1c0.4,0.2,0.9,0.4,1.5,0.4s1.1,0,1.5-0.1c0.4-0.1,1.1-0.2,2-0.4c0.6-0.1,1.1-0.2,1.4-0.3
				c0.3-0.1,0.8-0.2,1.4-0.2c0.6-0.1,1.1-0.1,1.6-0.1c0.5,0,1,0,1.6,0.1c0.6,0.1,1.1,0.2,1.7,0.4s1.1,0.5,1.7,0.8
				c1.3,0.8,2,1.6,2.2,2.4c0.2,0.9-0.2,1.7-1.1,2.4l2.1,1.2L280.9,23.7z"/>
		</g>
		<g>
			<path fill="#0363FF" d="M211,74.2l-2.1-1.2c-1.1,0.4-2.3,0.6-3.7,0.6s-2.6-0.2-3.9-0.6l1.1-1.6c1,0.3,2,0.4,3,0.3
				c1-0.1,1.8-0.3,2.5-0.7c0.7-0.4,1.1-0.9,1.1-1.4c0-0.5-0.4-1-1.2-1.4c-0.4-0.2-0.9-0.4-1.3-0.5c-0.5-0.1-1-0.1-1.6-0.1
				c-0.6,0.1-1.1,0.1-1.5,0.2c-0.4,0.1-1,0.2-1.7,0.4c-0.7,0.2-1.3,0.3-1.6,0.4c-0.4,0.1-0.9,0.2-1.6,0.2c-0.7,0.1-1.3,0.1-1.8,0.1
				c-0.5,0-1.1-0.1-1.7-0.3c-0.6-0.2-1.2-0.4-1.8-0.7c-1-0.6-1.6-1.3-1.8-2.1c-0.2-0.8,0.1-1.5,1-2.2l-1.9-1.1l2.1-1.2l1.9,1.1
				c1-0.3,2-0.5,3-0.5c1.1,0,2.1,0.2,3.1,0.5l-1.2,1.5c-0.7-0.2-1.3-0.2-2-0.2s-1.3,0.3-1.9,0.6c-0.6,0.4-0.9,0.7-0.9,1.1
				c0,0.4,0.3,0.8,0.9,1.1c0.4,0.2,0.9,0.4,1.5,0.4c0.6,0,1.1,0,1.5-0.1c0.4-0.1,1.1-0.2,2-0.4c0.6-0.1,1.1-0.2,1.4-0.3
				c0.3-0.1,0.8-0.2,1.4-0.2c0.6-0.1,1.1-0.1,1.6-0.1c0.5,0,1,0,1.6,0.1c0.6,0.1,1.1,0.2,1.7,0.4c0.6,0.2,1.1,0.5,1.7,0.8
				c1.3,0.8,2,1.6,2.2,2.4c0.2,0.9-0.2,1.7-1.1,2.4l2.1,1.2L211,74.2z"/>
		</g>
	</g>
	<polygon opacity="0.1" fill="#0363FF" points="304.5,233.3 282.4,245.2 282.4,184.4 304.5,172.5 	"/>
	<polygon fill="#CDE0FF" stroke="#0363FF" stroke-linecap="round" stroke-linejoin="round" stroke-miterlimit="10" points="
		365.2,207.6 291.4,247.1 291.4,186.2 365.2,146.8 	"/>
	<polygon fill="#FFFFFF" stroke="#0363FF" stroke-linecap="round" stroke-linejoin="round" stroke-miterlimit="10" points="
		365.2,219.6 291.4,259.1 291.4,198.2 365.2,158.8 	"/>
	<path fill="#0363FF" d="M297.3,189.5c0.2,0.5-0.1,1.2-0.5,1.5c-0.5,0.3-1,0.1-1.2-0.5s0.1-1.2,0.5-1.5S297.1,189,297.3,189.5z"/>
	<path fill="#0363FF" d="M300.3,188.1c0.2,0.5-0.1,1.2-0.5,1.5c-0.5,0.3-1,0.1-1.2-0.5s0.1-1.2,0.5-1.5
		C299.7,187.3,300.2,187.5,300.3,188.1z"/>
	<path fill="#0363FF" d="M303.3,186.7c0.2,0.5-0.1,1.2-0.5,1.5c-0.5,0.3-1,0.1-1.2-0.5s0.1-1.2,0.5-1.5
		C302.7,185.9,303.2,186.1,303.3,186.7z"/>
	<g>
		<path fill="#0363FF" d="M319.4,208.4l0.6,3.2c0.1,0.8,0.2,1.6,0.3,2.4l0,0c0.1-0.9,0.4-1.9,0.5-2.8l0.8-4l1.2-0.7l0.7,3.1
			c0.2,0.8,0.3,1.6,0.4,2.4l0,0c0.1-0.9,0.3-1.8,0.4-2.9l0.7-3.9l1.5-0.8l-2,8.9l-1.4,0.8l-0.7-2.8c-0.2-0.7-0.3-1.4-0.4-2.3l0,0
			c-0.1,1-0.3,1.9-0.5,2.8l-0.8,3.6l-1.4,0.8l-1.6-6.9L319.4,208.4z"/>
		<path fill="#0363FF" d="M328.8,203.2l0.6,3.2c0.1,0.8,0.2,1.6,0.3,2.4l0,0c0.1-0.9,0.4-1.9,0.5-2.8l0.8-4l1.2-0.7l0.7,3.1
			c0.2,0.8,0.3,1.6,0.4,2.4l0,0c0.1-0.9,0.3-1.8,0.4-2.9l0.7-3.9l1.5-0.8l-2,8.9l-1.4,0.8l-0.7-2.8c-0.2-0.7-0.3-1.4-0.4-2.3l0,0
			c-0.1,1-0.3,1.9-0.5,2.8l-0.8,3.6l-1.4,0.8l-1.6-6.9L328.8,203.2z"/>
		<path fill="#0363FF" d="M338.3,198l0.6,3.2c0.1,0.8,0.2,1.6,0.3,2.4l0,0c0.1-0.9,0.4-1.9,0.5-2.8l0.8-4l1.2-0.7l0.7,3.1
			c0.2,0.8,0.3,1.6,0.4,2.4l0,0c0.1-0.9,0.3-1.8,0.4-2.9l0.7-3.9l1.5-0.8l-2,8.9l-1.4,0.8l-0.7-2.8c-0.2-0.7-0.3-1.4-0.4-2.3l0,0
			c-0.1,1-0.3,1.9-0.5,2.8l-0.8,3.6l-1.4,0.8l-1.6-6.9L338.3,198z"/>
	</g>
	<g>
		<g>
			<g id="settings_8_">
				<path fill="#9AC1FF" stroke="#0363FF" stroke-miterlimit="10" d="M361.9,259c0-0.5,0.2-1,0.2-1.6c0-0.6,0.1-1.1,0-1.5l2.7-3.8
					c0.3-0.4,0.3-0.7,0.2-1l-2-4.2c-0.1-0.1-0.3-0.1-0.7,0.2l-3.1,2.9c-0.5-0.3-1.2-0.4-1.9-0.6l-0.2-3.7c0.2-0.5-0.2-0.6-0.4-0.5
					l-4.8,2.3c-0.2,0.1-0.6,0.6-0.6,0.9l-0.8,4.3c-0.7,0.6-1.4,1.5-2.2,2.5l-2.8-0.2c-0.3,0-0.6,0.3-0.9,0.7l-2.8,6.5
					c-0.1,0.2,0,0.6,0.2,0.8l2.3,1.2c0,0.5-0.2,1-0.2,1.6c0,0.6-0.1,1.1,0,1.5l-2.7,3.8c-0.3,0.4-0.3,0.7-0.2,1l2,4.2
					c0.1,0.1,0.3,0.1,0.7-0.2l3.1-2.9c0.5,0.3,1.2,0.4,1.9,0.6l0.2,3.7c0,0.3,0.2,0.5,0.5,0.3l4.8-2.3c0.2-0.1,0.6-0.6,0.6-0.9
					l0.8-4.2c0.8-0.8,1.5-1.6,2.2-2.5l2.9,0.1c0.2,0,0.6-0.3,0.7-0.6l2.8-6.5c0.1-0.4,0.2-0.8,0-0.9L361.9,259z M352.7,267
					c-2.3,1.1-4-0.5-3.8-3.4c0.2-2.9,2.3-6.3,4.6-7.3c2.3-1.1,4,0.5,3.8,3.4S355,265.9,352.7,267z"/>
			</g>
		</g>
	</g>
	<path fill="#9AC1FF" stroke="#0363FF" stroke-miterlimit="10" d="M146.4,122.1l-5.5,2.9l-7.1,3.8l-0.2,6.7l7-3.7
		c-0.7,2.5-2,5-3.5,7l0,0l0,0c-1.2,1.5-2.5,2.7-4,3.5c-3.3,1.8-6.1,0.5-7-2.7l0,0l0,0c-0.3-0.9-0.4-2-0.4-3.3c0-1.2,0.2-2.3,0.5-3.5
		l0,0l0,0c1.2-4.5,4.2-8.9,7.6-10.7c1.5-0.8,2.9-1,4-0.6l4.4-6.8c-2.2-1.3-5-1.2-8.2,0.5c-5,2.7-9.5,8.7-11.9,15.4
		c-1,2.8-1.6,5.8-1.7,8.6c-0.1,2.9,0.4,5.4,1.3,7.3l0,0l0,0c2,4.2,6.2,5.5,11.2,2.9c3.1-1.6,6-4.6,8.3-8.1l0,0l0,0l0,0l0,0
		c2.4-3.6,4.2-7.9,4.9-12.2c0.2-1.2,0.4-2.5,0.4-3.7C146.5,124.1,146.5,123.1,146.4,122.1z"/>
	<g opacity="0.1">
		<g>
			<path fill="#0363FF" d="M88.6,244.2l-20.4,11.7c-1,0.6-1.9,0.5-2.4-0.3l-2.6-3.3c-0.5-0.7-1.4-0.8-2.4-0.3l-14.3,8.3
				c-0.8,0.5-1.5,1.8-1.5,2.9l0,28.5c5.8-3.3,15.4-8.9,16.2-9.3c5.8,3.8,20.4,9,27.3,5.1c0.8-0.5,1.5-1.8,1.5-2.9l0-39.2
				C90.1,244.2,89.4,243.7,88.6,244.2z"/>
		</g>
	</g>
	<g>
		<path fill="#FFFFFF" stroke="#0363FF" stroke-linecap="round" stroke-linejoin="round" stroke-miterlimit="10" d="M96.8,247.2
			L76.4,259c-1,0.6-1.9,0.5-2.4-0.3l-2.6-3.3c-0.5-0.7-1.4-0.8-2.4-0.3l-14.3,8.3c-0.8,0.5-1.5,1.8-1.5,2.9l0,47.3
			c0,1.1,0.7,1.6,1.5,1.2c6.9-4,35.1-20.2,42-24.2c0.8-0.5,1.5-1.8,1.5-2.9l0-39.2C98.3,247.3,97.6,246.8,96.8,247.2z"/>
	</g>
</g>
</svg>
