<?xml version="1.0" encoding="utf-8"?>
<!-- Generator: Adobe Illustrator 20.1.0, SVG Export Plug-In . SVG Version: 6.00 Build 0)  -->
<svg version="1.1" id="img4" xmlns="http://www.w3.org/2000/svg" xmlns:xlink="http://www.w3.org/1999/xlink" x="0px" y="0px"
	 viewBox="0 0 270.5 438.6" enable-background="new 0 0 270.5 438.6" xml:space="preserve">
<g>
	<polygon opacity="0.1" fill="#0363FF" points="134.7,371.9 62.9,409.2 118.7,438.6 190.6,401.3 	"/>
	
		<circle fill="#FFFFFF" stroke="#0363FF" stroke-linecap="round" stroke-linejoin="round" stroke-miterlimit="10" cx="135.5" cy="145.8" r="121.4"/>
	<path fill="#9AC1FF" stroke="#0363FF" stroke-miterlimit="10" d="M36.1,57.1l39.6,29.1c0,0,5.5-3.5,7.4-4.8c0.9-0.6,1.5-2.8,1-5.1
		c-1.2-6.6-8.2-9.4-8.2-9.4s2.7-5.9-4.7-14.3c-6.5-7.2-11.4-6-11.4-6s-2.4-12.7-15.6-17.1c-2.9-0.8-4.9-0.5-6.4,0.3
		c-3.7,2-8.8,4.7-17.7,10C20.3,48.3,33.3,55.5,36.1,57.1z"/>
	<path fill="#FFFFFF" stroke="#0363FF" stroke-linecap="round" stroke-linejoin="round" stroke-miterlimit="10" d="M28.7,62.1
		c0,0,40.7,23.3,42.3,24.2c1.6,0.9,3.7,0.9,4.9-0.3c1-1,1-2.5,0.8-4.3c-0.7-6.1-8-9.8-8-9.8s3.6-5.1-4.7-14.3
		c-6.5-7.2-11.4-6-11.4-6s-2.4-12.7-15.6-17.1c-8.4-2.4-9.5,5-9.5,5s-9-3.4-9,5.2S26,60.5,28.7,62.1z"/>
	<path fill="#9AC1FF" stroke="#0363FF" stroke-miterlimit="10" d="M66.1,20.2l27.7,20.3c0,0,3.9-2.4,5.2-3.4c0.6-0.4,1-2,0.7-3.6
		C98.8,29,94,27,94,27s1.9-4.1-3.3-10c-4.5-5-8-4.2-8-4.2s-1.6-8.9-10.9-12c-2-0.6-3.4-0.3-4.4,0.2c-2.6,1.4-6.1,3.3-12.3,7
		C55.1,14.1,64.2,19.1,66.1,20.2z"/>
	<path fill="#FFFFFF" stroke="#0363FF" stroke-linecap="round" stroke-linejoin="round" stroke-miterlimit="10" d="M61,23.7
		c0,0,28.5,16.3,29.5,16.9c1.1,0.6,2.6,0.6,3.4-0.2c0.7-0.7,0.7-1.7,0.6-3c-0.5-4.3-5.6-6.9-5.6-6.9s2.5-3.6-3.3-10
		c-4.5-5-8-4.2-8-4.2S76,7.4,66.7,4.3C60.8,2.6,60,7.8,60,7.8s-6.3-2.4-6.3,3.7S59,22.6,61,23.7z"/>
	<polygon opacity="0.1" fill="#0363FF" points="214.6,330.9 142.8,368.2 198.7,397.6 270.5,360.3 	"/>
	<g>
		<g>
			<polygon fill="#CDE0FF" stroke="#0363FF" stroke-linecap="round" stroke-linejoin="round" stroke-miterlimit="10" points="
				269.3,358.2 197.5,395.6 197.5,372 269.3,334.7 			"/>
			<polygon fill="#FFFFFF" stroke="#0363FF" stroke-linecap="round" stroke-linejoin="round" stroke-miterlimit="10" points="
				141.6,366.2 197.5,395.6 197.5,372 141.6,342.6 			"/>
			<line fill="#FFFFFF" stroke="#0363FF" stroke-width="2" stroke-miterlimit="10" x1="145.9" y1="351.8" x2="145.9" y2="362.3"/>
			<line fill="#FFFFFF" stroke="#0363FF" stroke-width="2" stroke-miterlimit="10" x1="149" y1="353.3" x2="149" y2="363.8"/>
			<line fill="#FFFFFF" stroke="#0363FF" stroke-width="2" stroke-miterlimit="10" x1="152" y1="354.8" x2="152" y2="365.3"/>
			<line fill="#FFFFFF" stroke="#0363FF" stroke-width="2" stroke-miterlimit="10" x1="155.1" y1="356.3" x2="155.1" y2="366.8"/>
			<line fill="#FFFFFF" stroke="#0363FF" stroke-width="2" stroke-miterlimit="10" x1="158.2" y1="358.1" x2="158.2" y2="368.6"/>
			<line fill="#FFFFFF" stroke="#0363FF" stroke-width="2" stroke-miterlimit="10" x1="161.2" y1="359.9" x2="161.2" y2="370.4"/>
			<polygon fill="#9AC1FF" stroke="#0363FF" stroke-linecap="round" stroke-linejoin="round" stroke-miterlimit="10" points="
				213.5,305.3 141.6,342.6 197.5,372 269.3,334.7 			"/>
			<path fill="#0363FF" d="M209.1,378.6c0,1.5-1,3.1-2.1,3.7c-1.1,0.6-2-0.1-1.9-1.6s1-3.1,2.1-3.7
				C208.3,376.4,209.2,377.1,209.1,378.6z"/>
			<path fill="#0363FF" d="M215.2,375.7c0,1.5-1,3.1-2.1,3.7c-1.1,0.6-2-0.1-1.9-1.6s1-3.1,2.1-3.7
				C214.4,373.6,215.3,374.3,215.2,375.7z"/>
			<path fill="#0363FF" d="M221.6,372.9c0,1.5-1,3.1-2.1,3.7c-1.1,0.6-2-0.1-1.9-1.6c0-1.5,1-3.1,2.1-3.7
				C220.8,370.7,221.6,371.4,221.6,372.9z"/>
		</g>
		<g>
			<polygon fill="#CDE0FF" stroke="#0363FF" stroke-linecap="round" stroke-linejoin="round" stroke-miterlimit="10" points="
				269.3,326.9 197.5,364.2 197.5,340.7 269.3,303.3 			"/>
			<polygon fill="#FFFFFF" stroke="#0363FF" stroke-linecap="round" stroke-linejoin="round" stroke-miterlimit="10" points="
				141.6,334.8 197.5,364.2 197.5,340.7 141.6,311.3 			"/>
			<line fill="#FFFFFF" stroke="#0363FF" stroke-width="2" stroke-miterlimit="10" x1="145.9" y1="320.4" x2="145.9" y2="330.9"/>
			<line fill="#FFFFFF" stroke="#0363FF" stroke-width="2" stroke-miterlimit="10" x1="149" y1="322" x2="149" y2="332.5"/>
			<line fill="#FFFFFF" stroke="#0363FF" stroke-width="2" stroke-miterlimit="10" x1="152" y1="323.5" x2="152" y2="334"/>
			<line fill="#FFFFFF" stroke="#0363FF" stroke-width="2" stroke-miterlimit="10" x1="155.1" y1="325" x2="155.1" y2="335.5"/>
			<line fill="#FFFFFF" stroke="#0363FF" stroke-width="2" stroke-miterlimit="10" x1="158.2" y1="326.8" x2="158.2" y2="337.3"/>
			<line fill="#FFFFFF" stroke="#0363FF" stroke-width="2" stroke-miterlimit="10" x1="161.2" y1="328.6" x2="161.2" y2="339.1"/>
			<polygon fill="#9AC1FF" stroke="#0363FF" stroke-miterlimit="10" points="213.5,274 141.6,311.3 197.5,340.7 269.3,303.3 			"/>
			<path fill="#0363FF" d="M209.1,347.3c0,1.5-1,3.1-2.1,3.7c-1.1,0.6-2-0.1-1.9-1.6s1-3.1,2.1-3.7
				C208.3,345.1,209.2,345.8,209.1,347.3z"/>
			<path fill="#0363FF" d="M215.2,344.4c0,1.5-1,3.1-2.1,3.7c-1.1,0.6-2-0.1-1.9-1.6s1-3.1,2.1-3.7
				C214.4,342.3,215.3,343,215.2,344.4z"/>
			<path fill="#0363FF" d="M221.6,341.6c0,1.5-1,3.1-2.1,3.7c-1.1,0.6-2-0.1-1.9-1.6c0-1.5,1-3.1,2.1-3.7
				C220.8,339.4,221.6,340.1,221.6,341.6z"/>
		</g>
		<g>
			<polygon fill="#CDE0FF" stroke="#0363FF" stroke-linecap="round" stroke-linejoin="round" stroke-miterlimit="10" points="
				269.3,295.6 197.5,332.9 197.5,309.4 269.3,272 			"/>
			<polygon fill="#FFFFFF" stroke="#0363FF" stroke-linecap="round" stroke-linejoin="round" stroke-miterlimit="10" points="
				141.6,303.5 197.5,332.9 197.5,309.4 141.6,280 			"/>
			<line fill="#FFFFFF" stroke="#0363FF" stroke-width="2" stroke-miterlimit="10" x1="145.9" y1="289.1" x2="145.9" y2="299.6"/>
			<line fill="#FFFFFF" stroke="#0363FF" stroke-width="2" stroke-miterlimit="10" x1="149" y1="290.6" x2="149" y2="301.1"/>
			<line fill="#FFFFFF" stroke="#0363FF" stroke-width="2" stroke-miterlimit="10" x1="152" y1="292.2" x2="152" y2="302.7"/>
			<line fill="#FFFFFF" stroke="#0363FF" stroke-width="2" stroke-miterlimit="10" x1="155.1" y1="293.7" x2="155.1" y2="304.2"/>
			<line fill="#FFFFFF" stroke="#0363FF" stroke-width="2" stroke-miterlimit="10" x1="158.2" y1="295.5" x2="158.2" y2="306"/>
			<line fill="#FFFFFF" stroke="#0363FF" stroke-width="2" stroke-miterlimit="10" x1="161.2" y1="297.2" x2="161.2" y2="307.8"/>
			<polygon fill="#9AC1FF" stroke="#0363FF" stroke-linecap="round" stroke-linejoin="round" stroke-miterlimit="10" points="
				213.5,242.6 141.6,280 197.5,309.4 269.3,272 			"/>
			<path fill="#0363FF" d="M209.1,316c0,1.5-1,3.1-2.1,3.7c-1.1,0.6-2-0.1-1.9-1.6s1-3.1,2.1-3.7C208.3,313.8,209.2,314.5,209.1,316
				z"/>
			<path fill="#0363FF" d="M215.2,313.1c0,1.5-1,3.1-2.1,3.7c-1.1,0.6-2-0.1-1.9-1.6s1-3.1,2.1-3.7
				C214.4,310.9,215.3,311.6,215.2,313.1z"/>
			<path fill="#0363FF" d="M221.6,310.2c0,1.5-1,3.1-2.1,3.7c-1.1,0.6-2-0.1-1.9-1.6c0-1.5,1-3.1,2.1-3.7S221.6,308.8,221.6,310.2z"
				/>
		</g>
		<polygon fill="#CDE0FF" stroke="#0363FF" stroke-linecap="round" stroke-linejoin="round" stroke-miterlimit="10" points="
			269.3,264.2 197.5,301.6 197.5,278 269.3,240.7 		"/>
		<polygon fill="#FFFFFF" stroke="#0363FF" stroke-linecap="round" stroke-linejoin="round" stroke-miterlimit="10" points="
			141.6,272.2 197.5,301.6 197.5,278 141.6,248.7 		"/>
		<line fill="#FFFFFF" stroke="#0363FF" stroke-width="2" stroke-miterlimit="10" x1="145.9" y1="257.8" x2="145.9" y2="268.3"/>
		<line fill="#FFFFFF" stroke="#0363FF" stroke-width="2" stroke-miterlimit="10" x1="149" y1="259.3" x2="149" y2="269.8"/>
		<line fill="#FFFFFF" stroke="#0363FF" stroke-width="2" stroke-miterlimit="10" x1="152" y1="260.8" x2="152" y2="271.4"/>
		<line fill="#FFFFFF" stroke="#0363FF" stroke-width="2" stroke-miterlimit="10" x1="155.1" y1="262.4" x2="155.1" y2="272.9"/>
		<line fill="#FFFFFF" stroke="#0363FF" stroke-width="2" stroke-miterlimit="10" x1="158.2" y1="264.1" x2="158.2" y2="274.6"/>
		<line fill="#FFFFFF" stroke="#0363FF" stroke-width="2" stroke-miterlimit="10" x1="161.2" y1="265.9" x2="161.2" y2="276.4"/>
		<polygon fill="#FFFFFF" stroke="#0363FF" stroke-linecap="round" stroke-linejoin="round" stroke-miterlimit="10" points="
			213.5,211.3 141.6,248.7 197.5,278 269.3,240.7 		"/>
		<path fill="#0363FF" d="M209.1,284.6c0,1.5-1,3.1-2.1,3.7c-1.1,0.6-2-0.1-1.9-1.6s1-3.1,2.1-3.7
			C208.3,282.5,209.2,283.2,209.1,284.6z"/>
		<path fill="#0363FF" d="M215.2,281.8c0,1.5-1,3.1-2.1,3.7c-1.1,0.6-2-0.1-1.9-1.6s1-3.1,2.1-3.7
			C214.4,279.6,215.3,280.3,215.2,281.8z"/>
		<path fill="#0363FF" d="M221.6,278.9c0,1.5-1,3.1-2.1,3.7c-1.1,0.6-2-0.1-1.9-1.6c0-1.5,1-3.1,2.1-3.7S221.6,277.5,221.6,278.9z"
			/>
	</g>
	<g>
		<polygon opacity="0.1" fill="#0363FF" points="72.3,338.6 0.5,376 56.4,405.4 128.2,368 		"/>
		<g>
			<polygon fill="#CDE0FF" stroke="#0363FF" stroke-linecap="round" stroke-linejoin="round" stroke-miterlimit="10" points="
				128.2,364.7 56.4,402 56.4,378.5 128.2,341.1 			"/>
			<polygon fill="#FFFFFF" stroke="#0363FF" stroke-linecap="round" stroke-linejoin="round" stroke-miterlimit="10" points="
				0.5,372.6 56.4,402 56.4,378.5 0.5,349.1 			"/>
			<line fill="#FFFFFF" stroke="#0363FF" stroke-miterlimit="10" x1="4.8" y1="358.2" x2="4.8" y2="368.7"/>
			<line fill="#FFFFFF" stroke="#0363FF" stroke-miterlimit="10" x1="7.9" y1="359.8" x2="7.9" y2="370.3"/>
			<line fill="#FFFFFF" stroke="#0363FF" stroke-miterlimit="10" x1="10.9" y1="361.3" x2="10.9" y2="371.8"/>
			<line fill="#FFFFFF" stroke="#0363FF" stroke-miterlimit="10" x1="14" y1="362.8" x2="14" y2="373.3"/>
			<line fill="#FFFFFF" stroke="#0363FF" stroke-miterlimit="10" x1="17" y1="364.6" x2="17" y2="375.1"/>
			<line fill="#FFFFFF" stroke="#0363FF" stroke-miterlimit="10" x1="20.1" y1="366.4" x2="20.1" y2="376.9"/>
			<polygon fill="#9AC1FF" stroke="#0363FF" stroke-linecap="round" stroke-linejoin="round" stroke-miterlimit="10" points="
				72.3,311.7 0.5,349.1 56.4,378.5 128.2,341.1 			"/>
			<path fill="#0363FF" d="M68,385.1c0,1.5-1,3.1-2.1,3.7c-1.1,0.6-2-0.1-1.9-1.6c0-1.5,1-3.1,2.1-3.7C67.2,382.9,68,383.6,68,385.1
				z"/>
			<path fill="#0363FF" d="M74.1,382.2c0,1.5-1,3.1-2.1,3.7c-1.1,0.6-2-0.1-1.9-1.6c0-1.5,1-3.1,2.1-3.7
				C73.3,380.1,74.1,380.8,74.1,382.2z"/>
			<path fill="#0363FF" d="M80.4,379.4c0,1.5-1,3.1-2.1,3.7c-1.1,0.6-2-0.1-1.9-1.6s1-3.1,2.1-3.7C79.6,377.2,80.5,377.9,80.4,379.4
				z"/>
		</g>
		<g>
			<polygon fill="#CDE0FF" stroke="#0363FF" stroke-linecap="round" stroke-linejoin="round" stroke-miterlimit="10" points="
				128.2,333.4 56.4,370.7 56.4,347.2 128.2,309.8 			"/>
			<polygon fill="#FFFFFF" stroke="#0363FF" stroke-linecap="round" stroke-linejoin="round" stroke-miterlimit="10" points="
				0.5,341.3 56.4,370.7 56.4,347.2 0.5,317.8 			"/>
			<line fill="#FFFFFF" stroke="#0363FF" stroke-miterlimit="10" x1="4.8" y1="326.9" x2="4.8" y2="337.4"/>
			<line fill="#FFFFFF" stroke="#0363FF" stroke-miterlimit="10" x1="7.9" y1="328.4" x2="7.9" y2="338.9"/>
			<line fill="#FFFFFF" stroke="#0363FF" stroke-miterlimit="10" x1="10.9" y1="330" x2="10.9" y2="340.5"/>
			<line fill="#FFFFFF" stroke="#0363FF" stroke-miterlimit="10" x1="14" y1="331.5" x2="14" y2="342"/>
			<line fill="#FFFFFF" stroke="#0363FF" stroke-miterlimit="10" x1="17" y1="333.3" x2="17" y2="343.8"/>
			<line fill="#FFFFFF" stroke="#0363FF" stroke-miterlimit="10" x1="20.1" y1="335" x2="20.1" y2="345.5"/>
			<polygon fill="#9AC1FF" stroke="#0363FF" stroke-linecap="round" stroke-linejoin="round" stroke-miterlimit="10" points="
				72.3,280.4 0.5,317.8 56.4,347.2 128.2,309.8 			"/>
			<path fill="#0363FF" d="M68,353.8c0,1.5-1,3.1-2.1,3.7c-1.1,0.6-2-0.1-1.9-1.6c0-1.5,1-3.1,2.1-3.7C67.2,351.6,68,352.3,68,353.8
				z"/>
			<path fill="#0363FF" d="M74.1,350.9c0,1.5-1,3.1-2.1,3.7c-1.1,0.6-2-0.1-1.9-1.6c0-1.5,1-3.1,2.1-3.7
				C73.3,348.7,74.1,349.4,74.1,350.9z"/>
			<path fill="#0363FF" d="M80.4,348c0,1.5-1,3.1-2.1,3.7s-2-0.1-1.9-1.6s1-3.1,2.1-3.7C79.6,345.9,80.5,346.6,80.4,348z"/>
		</g>
		<g>
			<polygon fill="#CDE0FF" stroke="#0363FF" stroke-linecap="round" stroke-linejoin="round" stroke-miterlimit="10" points="
				128.2,302 56.4,339.4 56.4,315.8 128.2,278.5 			"/>
			<polygon fill="#FFFFFF" stroke="#0363FF" stroke-linecap="round" stroke-linejoin="round" stroke-miterlimit="10" points="
				0.5,310 56.4,339.4 56.4,315.8 0.5,286.4 			"/>
			<line fill="#FFFFFF" stroke="#0363FF" stroke-miterlimit="10" x1="4.8" y1="295.6" x2="4.8" y2="306.1"/>
			<line fill="#FFFFFF" stroke="#0363FF" stroke-miterlimit="10" x1="7.9" y1="297.1" x2="7.9" y2="307.6"/>
			<line fill="#FFFFFF" stroke="#0363FF" stroke-miterlimit="10" x1="10.9" y1="298.6" x2="10.9" y2="309.1"/>
			<line fill="#FFFFFF" stroke="#0363FF" stroke-miterlimit="10" x1="14" y1="300.2" x2="14" y2="310.7"/>
			<line fill="#FFFFFF" stroke="#0363FF" stroke-miterlimit="10" x1="17" y1="301.9" x2="17" y2="312.4"/>
			<line fill="#FFFFFF" stroke="#0363FF" stroke-miterlimit="10" x1="20.1" y1="303.7" x2="20.1" y2="314.2"/>
			<polygon fill="#9AC1FF" stroke="#0363FF" stroke-linecap="round" stroke-linejoin="round" stroke-miterlimit="10" points="
				72.3,249.1 0.5,286.4 56.4,315.8 128.2,278.5 			"/>
			<path fill="#0363FF" d="M68,322.4c0,1.5-1,3.1-2.1,3.7c-1.1,0.6-2-0.1-1.9-1.6c0-1.5,1-3.1,2.1-3.7C67.2,320.3,68,321,68,322.4z"
				/>
			<path fill="#0363FF" d="M74.1,319.6c0,1.5-1,3.1-2.1,3.7c-1.1,0.6-2-0.1-1.9-1.6c0-1.5,1-3.1,2.1-3.7S74.1,318.1,74.1,319.6z"/>
			<path fill="#0363FF" d="M80.4,316.7c0,1.5-1,3.1-2.1,3.7s-2-0.1-1.9-1.6s1-3.1,2.1-3.7C79.6,314.6,80.5,315.3,80.4,316.7z"/>
		</g>
		<polygon fill="#CDE0FF" stroke="#0363FF" stroke-linecap="round" stroke-linejoin="round" stroke-miterlimit="10" points="
			128.2,270.7 56.4,308.1 56.4,284.5 128.2,247.2 		"/>
		<polygon fill="#FFFFFF" stroke="#0363FF" stroke-linecap="round" stroke-linejoin="round" stroke-miterlimit="10" points="
			0.5,278.7 56.4,308.1 56.4,284.5 0.5,255.1 		"/>
		<line fill="#FFFFFF" stroke="#0363FF" stroke-miterlimit="10" x1="4.8" y1="264.3" x2="4.8" y2="274.8"/>
		<line fill="#FFFFFF" stroke="#0363FF" stroke-miterlimit="10" x1="7.9" y1="265.8" x2="7.9" y2="276.3"/>
		<line fill="#FFFFFF" stroke="#0363FF" stroke-miterlimit="10" x1="10.9" y1="267.3" x2="10.9" y2="277.8"/>
		<line fill="#FFFFFF" stroke="#0363FF" stroke-miterlimit="10" x1="14" y1="268.8" x2="14" y2="279.4"/>
		<line fill="#FFFFFF" stroke="#0363FF" stroke-miterlimit="10" x1="17" y1="270.6" x2="17" y2="281.1"/>
		<line fill="#FFFFFF" stroke="#0363FF" stroke-miterlimit="10" x1="20.1" y1="272.4" x2="20.1" y2="282.9"/>
		<polygon fill="#FFFFFF" stroke="#0363FF" stroke-linecap="round" stroke-linejoin="round" stroke-miterlimit="10" points="
			72.3,217.8 0.5,255.1 56.4,284.5 128.2,247.2 		"/>
		<path fill="#0363FF" d="M68,291.1c0,1.5-1,3.1-2.1,3.7c-1.1,0.6-2-0.1-1.9-1.6c0-1.5,1-3.1,2.1-3.7C67.2,288.9,68,289.6,68,291.1z
			"/>
		<path fill="#0363FF" d="M74.1,288.3c0,1.5-1,3.1-2.1,3.7c-1.1,0.6-2-0.1-1.9-1.6c0-1.5,1-3.1,2.1-3.7S74.1,286.8,74.1,288.3z"/>
		<path fill="#0363FF" d="M80.4,285.4c0,1.5-1,3.1-2.1,3.7s-2-0.1-1.9-1.6s1-3.1,2.1-3.7C79.6,283.2,80.5,283.9,80.4,285.4z"/>
	</g>
	<g>
		<g>
			<polygon fill="#CDE0FF" stroke="#0363FF" stroke-linecap="round" stroke-linejoin="round" stroke-miterlimit="10" points="
				190.6,398.3 118.7,435.6 118.7,412.1 190.6,374.8 			"/>
			<polygon fill="#FFFFFF" stroke="#0363FF" stroke-linecap="round" stroke-linejoin="round" stroke-miterlimit="10" points="
				62.9,406.3 118.7,435.6 118.7,412.1 62.9,382.7 			"/>
			<line fill="#FFFFFF" stroke="#0363FF" stroke-miterlimit="10" x1="67.1" y1="391.8" x2="67.1" y2="402.4"/>
			<line fill="#FFFFFF" stroke="#0363FF" stroke-miterlimit="10" x1="70.2" y1="393.4" x2="70.2" y2="403.9"/>
			<line fill="#FFFFFF" stroke="#0363FF" stroke-miterlimit="10" x1="73.3" y1="394.9" x2="73.3" y2="405.4"/>
			<line fill="#FFFFFF" stroke="#0363FF" stroke-miterlimit="10" x1="76.3" y1="396.4" x2="76.3" y2="406.9"/>
			<line fill="#FFFFFF" stroke="#0363FF" stroke-miterlimit="10" x1="79.4" y1="398.2" x2="79.4" y2="408.7"/>
			<line fill="#FFFFFF" stroke="#0363FF" stroke-miterlimit="10" x1="82.4" y1="400" x2="82.4" y2="410.5"/>
			<polygon fill="#9AC1FF" stroke="#0363FF" stroke-linecap="round" stroke-linejoin="round" stroke-miterlimit="10" points="
				134.7,345.4 62.9,382.7 118.7,412.1 190.6,374.8 			"/>
			<path fill="#0363FF" d="M130.3,418.7c0,1.5-1,3.1-2.1,3.7s-2-0.1-1.9-1.6s1-3.1,2.1-3.7C129.5,416.5,130.4,417.2,130.3,418.7z"/>
			<path fill="#0363FF" d="M136.4,415.8c0,1.5-1,3.1-2.1,3.7c-1.1,0.6-2-0.1-1.9-1.6c0-1.5,1-3.1,2.1-3.7
				C135.6,413.7,136.5,414.4,136.4,415.8z"/>
			<path fill="#0363FF" d="M142.8,413c0,1.5-1,3.1-2.1,3.7c-1.1,0.6-2-0.1-1.9-1.6s1-3.1,2.1-3.7S142.8,411.5,142.8,413z"/>
		</g>
		<g>
			<polygon fill="#CDE0FF" stroke="#0363FF" stroke-linecap="round" stroke-linejoin="round" stroke-miterlimit="10" points="
				190.6,367 118.7,404.3 118.7,380.8 190.6,343.4 			"/>
			<polygon fill="#FFFFFF" stroke="#0363FF" stroke-linecap="round" stroke-linejoin="round" stroke-miterlimit="10" points="
				62.9,374.9 118.7,404.3 118.7,380.8 62.9,351.4 			"/>
			<line fill="#FFFFFF" stroke="#0363FF" stroke-miterlimit="10" x1="67.1" y1="360.5" x2="67.1" y2="371"/>
			<line fill="#FFFFFF" stroke="#0363FF" stroke-miterlimit="10" x1="70.2" y1="362.1" x2="70.2" y2="372.6"/>
			<line fill="#FFFFFF" stroke="#0363FF" stroke-miterlimit="10" x1="73.3" y1="363.6" x2="73.3" y2="374.1"/>
			<line fill="#FFFFFF" stroke="#0363FF" stroke-miterlimit="10" x1="76.3" y1="365.1" x2="76.3" y2="375.6"/>
			<line fill="#FFFFFF" stroke="#0363FF" stroke-miterlimit="10" x1="79.4" y1="366.9" x2="79.4" y2="377.4"/>
			<line fill="#FFFFFF" stroke="#0363FF" stroke-miterlimit="10" x1="82.4" y1="368.7" x2="82.4" y2="379.2"/>
			<polygon fill="#9AC1FF" stroke="#0363FF" stroke-miterlimit="10" points="134.7,314 62.9,351.4 118.7,380.8 190.6,343.4 			"/>
			<path fill="#0363FF" d="M130.3,387.4c0,1.5-1,3.1-2.1,3.7s-2-0.1-1.9-1.6s1-3.1,2.1-3.7C129.5,385.2,130.4,385.9,130.3,387.4z"/>
			<path fill="#0363FF" d="M136.4,384.5c0,1.5-1,3.1-2.1,3.7c-1.1,0.6-2-0.1-1.9-1.6c0-1.5,1-3.1,2.1-3.7
				C135.6,382.4,136.5,383.1,136.4,384.5z"/>
			<path fill="#0363FF" d="M142.8,381.7c0,1.5-1,3.1-2.1,3.7c-1.1,0.6-2-0.1-1.9-1.6s1-3.1,2.1-3.7S142.8,380.2,142.8,381.7z"/>
		</g>
		<g>
			<polygon fill="#CDE0FF" stroke="#0363FF" stroke-linecap="round" stroke-linejoin="round" stroke-miterlimit="10" points="
				190.6,335.7 118.7,373 118.7,349.5 190.6,312.1 			"/>
			<polygon fill="#FFFFFF" stroke="#0363FF" stroke-linecap="round" stroke-linejoin="round" stroke-miterlimit="10" points="
				62.9,343.6 118.7,373 118.7,349.5 62.9,320.1 			"/>
			<line fill="#FFFFFF" stroke="#0363FF" stroke-miterlimit="10" x1="67.1" y1="329.2" x2="67.1" y2="339.7"/>
			<line fill="#FFFFFF" stroke="#0363FF" stroke-miterlimit="10" x1="70.2" y1="330.7" x2="70.2" y2="341.2"/>
			<line fill="#FFFFFF" stroke="#0363FF" stroke-miterlimit="10" x1="73.3" y1="332.3" x2="73.3" y2="342.8"/>
			<line fill="#FFFFFF" stroke="#0363FF" stroke-miterlimit="10" x1="76.3" y1="333.8" x2="76.3" y2="344.3"/>
			<line fill="#FFFFFF" stroke="#0363FF" stroke-miterlimit="10" x1="79.4" y1="335.6" x2="79.4" y2="346.1"/>
			<line fill="#FFFFFF" stroke="#0363FF" stroke-miterlimit="10" x1="82.4" y1="337.3" x2="82.4" y2="347.8"/>
			<polygon fill="#9AC1FF" stroke="#0363FF" stroke-linecap="round" stroke-linejoin="round" stroke-miterlimit="10" points="
				134.7,282.7 62.9,320.1 118.7,349.5 190.6,312.1 			"/>
			<path fill="#0363FF" d="M130.3,356c0,1.5-1,3.1-2.1,3.7c-1.1,0.6-2-0.1-1.9-1.6s1-3.1,2.1-3.7C129.5,353.9,130.4,354.6,130.3,356
				z"/>
			<path fill="#0363FF" d="M136.4,353.2c0,1.5-1,3.1-2.1,3.7c-1.1,0.6-2-0.1-1.9-1.6c0-1.5,1-3.1,2.1-3.7
				C135.6,351,136.5,351.7,136.4,353.2z"/>
			<path fill="#0363FF" d="M142.8,350.3c0,1.5-1,3.1-2.1,3.7c-1.1,0.6-2-0.1-1.9-1.6c0-1.5,1-3.1,2.1-3.7S142.8,348.9,142.8,350.3z"
				/>
		</g>
		<polygon fill="#CDE0FF" stroke="#0363FF" stroke-linecap="round" stroke-linejoin="round" stroke-miterlimit="10" points="
			190.6,304.3 118.7,341.7 118.7,318.1 190.6,280.8 		"/>
		<polygon fill="#FFFFFF" stroke="#0363FF" stroke-linecap="round" stroke-linejoin="round" stroke-miterlimit="10" points="
			62.9,312.3 118.7,341.7 118.7,318.1 62.9,288.7 		"/>
		<line fill="#FFFFFF" stroke="#0363FF" stroke-miterlimit="10" x1="67.1" y1="297.9" x2="67.1" y2="308.4"/>
		<line fill="#FFFFFF" stroke="#0363FF" stroke-miterlimit="10" x1="70.2" y1="299.4" x2="70.2" y2="309.9"/>
		<line fill="#FFFFFF" stroke="#0363FF" stroke-miterlimit="10" x1="73.3" y1="300.9" x2="73.3" y2="311.4"/>
		<line fill="#FFFFFF" stroke="#0363FF" stroke-miterlimit="10" x1="76.3" y1="302.5" x2="76.3" y2="313"/>
		<line fill="#FFFFFF" stroke="#0363FF" stroke-miterlimit="10" x1="79.4" y1="304.2" x2="79.4" y2="314.7"/>
		<line fill="#FFFFFF" stroke="#0363FF" stroke-miterlimit="10" x1="82.4" y1="306" x2="82.4" y2="316.5"/>
		<polygon fill="#FFFFFF" stroke="#0363FF" stroke-linecap="round" stroke-linejoin="round" stroke-miterlimit="10" points="
			134.7,251.4 62.9,288.7 118.7,318.1 190.6,280.8 		"/>
		<path fill="#0363FF" d="M130.3,324.7c0,1.5-1,3.1-2.1,3.7c-1.1,0.6-2-0.1-1.9-1.6s1-3.1,2.1-3.7
			C129.5,322.6,130.4,323.3,130.3,324.7z"/>
		<path fill="#0363FF" d="M136.4,321.9c0,1.5-1,3.1-2.1,3.7s-2-0.1-1.9-1.6c0-1.5,1-3.1,2.1-3.7
			C135.6,319.7,136.5,320.4,136.4,321.9z"/>
		<path fill="#0363FF" d="M142.8,319c0,1.5-1,3.1-2.1,3.7c-1.1,0.6-2-0.1-1.9-1.6s1-3.1,2.1-3.7C142,316.8,142.8,317.5,142.8,319z"
			/>
	</g>
	<g>
		<path fill="#0363FF" d="M59.4,132.3h-4v9.9h-2.5v-9.9h-4.1v-2.2h10.6V132.3z"/>
		<path fill="#0363FF" d="M67.7,141.2c-0.8,0.8-1.9,1.2-3.2,1.2c-1.3,0-2.4-0.4-3.2-1.2c-0.8-0.8-1.2-1.9-1.2-3.2
			c0-1.3,0.4-2.4,1.2-3.2c0.8-0.8,1.9-1.2,3.2-1.2c1.3,0,2.4,0.4,3.2,1.2c0.8,0.8,1.3,1.8,1.3,3.2C69,139.3,68.6,140.3,67.7,141.2z
			 M64.5,135.7c-0.6,0-1.1,0.2-1.5,0.6c-0.4,0.4-0.6,1-0.6,1.7s0.2,1.3,0.6,1.7c0.4,0.4,0.9,0.6,1.5,0.6c0.6,0,1.1-0.2,1.5-0.6
			c0.4-0.4,0.6-1,0.6-1.7s-0.2-1.3-0.6-1.7C65.7,135.9,65.1,135.7,64.5,135.7z"/>
		<path fill="#0363FF" d="M73.8,135.8l0,3.1c0,0.9,0.5,1.3,1.3,1.3c0.2,0,0.4,0,0.7-0.1v2.1c-0.5,0.1-0.9,0.1-1.3,0.1
			c-1.9,0-3.1-0.9-3-2.8l0-3.7h-1.5v-2h1.5l0-2.8h2.4l0,2.8h2v2H73.8z"/>
		<path fill="#0363FF" d="M84.2,137v5.2h-2.3v-0.7c-0.6,0.6-1.3,0.9-2.1,0.9c-1.7,0-2.8-0.9-2.8-2.5c0-1.6,1.1-2.4,3.4-2.5l1.5-0.1
			v-0.3c0-0.9-0.4-1.3-1.1-1.3c-0.8,0-1.2,0.5-1.2,1.1l-2.4-0.1c0-0.8,0.3-1.5,1-2.1c0.7-0.6,1.5-0.9,2.5-0.9
			C82.9,133.6,84.2,134.8,84.2,137z M81.8,138.8l-1.3,0.1c-0.8,0-1.2,0.3-1.2,0.9c0,0.5,0.3,0.8,1,0.8c0.9,0,1.5-0.5,1.5-1.4V138.8z
			"/>
		<path fill="#0363FF" d="M88.8,142.2h-2.4v-12.6h2.4V142.2z"/>
		<path fill="#0363FF" d="M106.3,135.6v0.8c0,1.8-0.5,3.3-1.6,4.3c-1,1.1-2.4,1.6-4.2,1.6c-1.8,0-3.3-0.6-4.4-1.7
			c-1.1-1.1-1.7-2.6-1.7-4.5c0-1.9,0.6-3.4,1.7-4.5c1.1-1.1,2.6-1.7,4.4-1.7c1.4,0,2.6,0.4,3.7,1.1c1,0.7,1.7,1.7,2,3.1l-2.6,0.4
			c-0.3-1.5-1.5-2.4-3.1-2.4c-2.2,0-3.6,1.4-3.6,4c0,2.6,1.4,4,3.6,4c1.6,0,2.7-0.8,3.1-2.4h-3v-2.2H106.3z"/>
		<path fill="#0363FF" d="M110.6,142.2h-2.4v-12.6h2.4V142.2z"/>
		<path fill="#0363FF" d="M120.2,141.2c-0.8,0.8-1.9,1.2-3.2,1.2c-1.3,0-2.4-0.4-3.2-1.2c-0.8-0.8-1.2-1.9-1.2-3.2
			c0-1.3,0.4-2.4,1.2-3.2c0.8-0.8,1.9-1.2,3.2-1.2c1.3,0,2.4,0.4,3.2,1.2c0.8,0.8,1.3,1.8,1.3,3.2
			C121.4,139.3,121,140.3,120.2,141.2z M117,135.7c-0.6,0-1.1,0.2-1.5,0.6c-0.4,0.4-0.6,1-0.6,1.7s0.2,1.3,0.6,1.7
			c0.4,0.4,0.9,0.6,1.5,0.6c0.6,0,1.1-0.2,1.5-0.6c0.4-0.4,0.6-1,0.6-1.7s-0.2-1.3-0.6-1.7C118.1,135.9,117.6,135.7,117,135.7z"/>
		<path fill="#0363FF" d="M125.7,129.6v4.9c0.5-0.6,1.3-0.9,2.3-0.9c1.2,0,2.2,0.4,2.9,1.2c0.8,0.8,1.1,1.8,1.1,3.2
			c0,1.3-0.4,2.4-1.1,3.2c-0.7,0.8-1.7,1.2-2.9,1.2c-1.1,0-2-0.4-2.5-1v0.9h-2.2v-12.6H125.7z M125.7,137.8v0.4c0,1.3,0.8,2.1,2,2.1
			c1.2,0,2-0.8,2-2.3s-0.8-2.3-2-2.3C126.5,135.7,125.7,136.5,125.7,137.8z"/>
		<path fill="#0363FF" d="M140.7,137v5.2h-2.3v-0.7c-0.6,0.6-1.3,0.9-2.1,0.9c-1.7,0-2.8-0.9-2.8-2.5c0-1.6,1.1-2.4,3.4-2.5l1.5-0.1
			v-0.3c0-0.9-0.4-1.3-1.1-1.3c-0.8,0-1.2,0.5-1.2,1.1l-2.4-0.1c0-0.8,0.3-1.5,1-2.1c0.7-0.6,1.5-0.9,2.5-0.9
			C139.5,133.6,140.7,134.8,140.7,137z M138.3,138.8l-1.3,0.1c-0.8,0-1.2,0.3-1.2,0.9c0,0.5,0.3,0.8,1,0.8c0.9,0,1.5-0.5,1.5-1.4
			V138.8z"/>
		<path fill="#0363FF" d="M145.3,142.2H143v-12.6h2.4V142.2z"/>
		<path fill="#0363FF" d="M151.4,130.1h5.2c1.2,0,2.1,0.3,2.8,1c0.7,0.7,1.1,1.7,1.1,2.9c0,1.2-0.4,2.2-1.1,2.9
			c-0.7,0.7-1.7,1-2.8,1h-2.7v4.3h-2.5V130.1z M153.9,132.3v3.4h2.4c1,0,1.7-0.6,1.7-1.7c0-1.1-0.7-1.7-1.7-1.7H153.9z"/>
		<path fill="#0363FF" d="M166.7,136c-1.4,0-2.2,0.8-2.2,1.9v4.2h-2.4v-8.4h2.3v1c0.4-0.7,1.2-1,2.3-1V136z"/>
		<path fill="#0363FF" d="M176,138.7h-5.7c0,1.1,0.7,1.7,1.7,1.7c0.8,0,1.4-0.3,1.5-0.9l2.4,0.1c-0.1,0.8-0.6,1.5-1.3,2
			c-0.7,0.5-1.6,0.8-2.5,0.8c-1.3,0-2.3-0.4-3.1-1.2c-0.8-0.8-1.2-1.8-1.2-3.2c0-1.3,0.4-2.4,1.2-3.2c0.8-0.8,1.8-1.2,3.1-1.2
			c1.2,0,2.2,0.4,2.9,1.1c0.7,0.7,1.1,1.7,1.1,3V138.7z M170.3,137.2h3.4c0-1.1-0.6-1.7-1.6-1.7C171,135.5,170.3,136.1,170.3,137.2z
			"/>
		<path fill="#0363FF" d="M184.1,136.3l-2.3,0.1c0-0.7-0.4-1-1.1-1c-0.6,0-1,0.2-1,0.7c0,0.3,0.1,0.4,0.4,0.5
			c0.3,0.1,0.7,0.2,1.3,0.4c1.9,0.5,2.8,1.1,2.8,2.5c0,1.7-1.3,2.8-3.4,2.8c-2.1,0-3.4-1-3.6-2.7l2.4-0.1c0,0.7,0.4,1,1.2,1
			c0.6,0,1.1-0.3,1.1-0.8c0-0.5-0.3-0.6-1.5-1c-0.9-0.2-1.2-0.3-1.8-0.6c-0.8-0.4-1.1-0.9-1.1-2c0-1.6,1.3-2.6,3.4-2.6
			C182.8,133.6,184,134.7,184.1,136.3z"/>
		<path fill="#0363FF" d="M193.9,138.7h-5.7c0,1.1,0.7,1.7,1.7,1.7c0.8,0,1.4-0.3,1.5-0.9l2.4,0.1c-0.1,0.8-0.6,1.5-1.3,2
			c-0.7,0.5-1.6,0.8-2.5,0.8c-1.3,0-2.3-0.4-3.1-1.2c-0.8-0.8-1.2-1.8-1.2-3.2c0-1.3,0.4-2.4,1.2-3.2c0.8-0.8,1.8-1.2,3.1-1.2
			c1.2,0,2.2,0.4,2.9,1.1c0.7,0.7,1.1,1.7,1.1,3V138.7z M188.1,137.2h3.4c0-1.1-0.6-1.7-1.6-1.7
			C188.9,135.5,188.2,136.1,188.1,137.2z"/>
		<path fill="#0363FF" d="M203.5,137.1v5.1h-2.4v-4.7c0-1.1-0.6-1.7-1.5-1.7c-0.9,0-1.6,0.7-1.6,1.7v4.6h-2.4v-8.4h2.2v0.9
			c0.4-0.7,1.2-1,2.3-1C202.2,133.6,203.5,134.9,203.5,137.1z"/>
		<path fill="#0363FF" d="M212,136.3l-2.3,0.1c0-0.7-0.4-1-1.1-1c-0.6,0-1,0.2-1,0.7c0,0.3,0.1,0.4,0.4,0.5c0.3,0.1,0.7,0.2,1.3,0.4
			c1.9,0.5,2.8,1.1,2.8,2.5c0,1.7-1.3,2.8-3.4,2.8c-2.1,0-3.4-1-3.6-2.7l2.4-0.1c0,0.7,0.4,1,1.2,1c0.6,0,1.1-0.3,1.1-0.8
			c0-0.5-0.3-0.6-1.5-1c-0.9-0.2-1.2-0.3-1.8-0.6c-0.8-0.4-1.1-0.9-1.1-2c0-1.6,1.3-2.6,3.4-2.6C210.7,133.6,211.9,134.7,212,136.3z
			"/>
		<path fill="#0363FF" d="M221.8,138.7H216c0,1.1,0.7,1.7,1.7,1.7c0.8,0,1.4-0.3,1.5-0.9l2.4,0.1c-0.1,0.8-0.6,1.5-1.3,2
			c-0.7,0.5-1.6,0.8-2.5,0.8c-1.3,0-2.3-0.4-3.1-1.2c-0.8-0.8-1.2-1.8-1.2-3.2c0-1.3,0.4-2.4,1.2-3.2c0.8-0.8,1.8-1.2,3.1-1.2
			c1.2,0,2.2,0.4,2.9,1.1c0.7,0.7,1.1,1.7,1.1,3V138.7z M216,137.2h3.4c0-1.1-0.6-1.7-1.6-1.7C216.7,135.5,216.1,136.1,216,137.2z"
			/>
		<path fill="#0363FF" d="M70.5,163.8h-1.9l-1.7-4.4l-1.7,4.4h-1.9l-3.2-8.4h2.6l1.6,4.8l1.7-4.8h1.7l1.7,4.8l1.6-4.8h2.6
			L70.5,163.8z"/>
		<path fill="#0363FF" d="M77.5,152.7c0,0.4-0.1,0.7-0.4,1c-0.5,0.5-1.5,0.5-2,0c-0.9-0.8-0.2-2.5,1-2.4
			C76.9,151.2,77.5,151.9,77.5,152.7z M77.3,163.8h-2.4v-8.4h2.4V163.8z"/>
		<path fill="#0363FF" d="M82.5,157.4l0,3.1c0,0.9,0.5,1.3,1.3,1.3c0.2,0,0.4,0,0.7-0.1v2.1c-0.5,0.1-0.9,0.1-1.3,0.1
			c-1.9,0-3.1-0.9-3-2.8l0-3.7h-1.5v-2h1.5l0-2.8h2.4l0,2.8h2v2H82.5z"/>
		<path fill="#0363FF" d="M88.5,151.2v4.9c0.5-0.6,1.2-0.9,2.1-0.9c2,0,3.3,1.3,3.3,3.4v5.1h-2.4v-4.7c0-1.1-0.6-1.7-1.5-1.7
			c-0.9,0-1.6,0.7-1.6,1.7v4.6h-2.4v-12.6H88.5z"/>
		<path fill="#0363FF" d="M99.8,151.6h5.2c1.2,0,2.1,0.3,2.8,1c0.7,0.7,1.1,1.7,1.1,2.9s-0.4,2.2-1.1,2.9c-0.7,0.7-1.7,1-2.8,1h-2.7
			v4.3h-2.5V151.6z M102.3,153.8v3.4h2.4c1,0,1.7-0.6,1.7-1.7c0-1.1-0.7-1.7-1.7-1.7H102.3z"/>
		<path fill="#0363FF" d="M115.2,157.6c-1.4,0-2.2,0.8-2.2,1.9v4.2h-2.4v-8.4h2.3v1c0.4-0.7,1.2-1,2.3-1V157.6z"/>
		<path fill="#0363FF" d="M124.5,160.3h-5.7c0,1.1,0.7,1.7,1.7,1.7c0.8,0,1.4-0.3,1.5-0.9l2.4,0.1c-0.1,0.8-0.6,1.5-1.3,2
			c-0.7,0.5-1.6,0.8-2.5,0.8c-1.3,0-2.3-0.4-3.1-1.2c-0.8-0.8-1.2-1.8-1.2-3.2c0-1.3,0.4-2.4,1.2-3.2c0.8-0.8,1.8-1.2,3.1-1.2
			c1.2,0,2.2,0.4,2.9,1.1c0.7,0.7,1.1,1.7,1.1,3V160.3z M118.7,158.8h3.4c0-1.1-0.6-1.7-1.6-1.7
			C119.4,157.1,118.8,157.7,118.7,158.8z"/>
		<path fill="#0363FF" d="M139.1,158.6v5.1h-2.4v-4.7c0-1.1-0.5-1.7-1.4-1.7c-0.8,0-1.3,0.5-1.5,1.4v4.9h-2.4v-4.7
			c0-1.1-0.5-1.7-1.4-1.7c-0.9,0-1.5,0.7-1.5,1.7v4.6h-2.4v-8.4h2.2v0.9c0.4-0.7,1.2-1,2.2-1c1.2,0,2.1,0.4,2.6,1.3
			c0.6-0.9,1.4-1.3,2.6-1.3C137.9,155.2,139.1,156.5,139.1,158.6z"/>
		<path fill="#0363FF" d="M144,152.7c0,0.4-0.1,0.7-0.4,1c-0.5,0.5-1.5,0.5-2,0c-0.9-0.8-0.2-2.5,1-2.4
			C143.4,151.2,144,151.9,144,152.7z M143.8,163.8h-2.4v-8.4h2.4V163.8z"/>
		<path fill="#0363FF" d="M153.5,163.8h-2.2v-0.8c-0.4,0.7-1.2,1-2.2,1c-1.9,0-3.1-1.2-3.1-3.3v-5.3h2.4v4.8c0,1.1,0.5,1.6,1.3,1.6
			c0.9,0,1.4-0.6,1.4-1.6v-4.7h2.4V163.8z"/>
		<path fill="#0363FF" d="M168.7,158.6v5.1h-2.4v-4.7c0-1.1-0.5-1.7-1.4-1.7c-0.8,0-1.3,0.5-1.5,1.4v4.9h-2.4v-4.7
			c0-1.1-0.5-1.7-1.4-1.7c-0.9,0-1.5,0.7-1.5,1.7v4.6h-2.4v-8.4h2.2v0.9c0.4-0.7,1.2-1,2.2-1c1.2,0,2.1,0.4,2.6,1.3
			c0.6-0.9,1.4-1.3,2.6-1.3C167.4,155.2,168.7,156.5,168.7,158.6z"/>
		<path fill="#0363FF" d="M174.6,151.6h5c1.8,0,3.2,0.6,4.3,1.6c1.1,1.1,1.7,2.6,1.7,4.4c0,1.9-0.6,3.4-1.7,4.4
			c-1.1,1.1-2.6,1.6-4.3,1.6h-5V151.6z M177.1,153.8v7.8h2.5c2.2,0,3.5-1.4,3.5-3.9c0-2.5-1.3-3.9-3.5-3.9H177.1z"/>
		<path fill="#0363FF" d="M194.3,158.6v5.2H192v-0.7c-0.6,0.6-1.3,0.9-2.1,0.9c-1.7,0-2.8-0.9-2.8-2.5c0-1.6,1.1-2.4,3.4-2.5
			l1.5-0.1v-0.3c0-0.9-0.4-1.3-1.1-1.3c-0.8,0-1.2,0.5-1.2,1.1l-2.4-0.1c0-0.8,0.3-1.5,1-2.1c0.7-0.6,1.5-0.9,2.5-0.9
			C193.1,155.2,194.3,156.4,194.3,158.6z M191.9,160.4l-1.3,0.1c-0.8,0-1.2,0.3-1.2,0.9c0,0.5,0.3,0.8,1,0.8c0.9,0,1.5-0.5,1.5-1.4
			V160.4z"/>
		<path fill="#0363FF" d="M199.5,157.4l0,3.1c0,0.9,0.5,1.3,1.3,1.3c0.2,0,0.4,0,0.7-0.1v2.1c-0.5,0.1-0.9,0.1-1.3,0.1
			c-1.9,0-3.1-0.9-3-2.8l0-3.7h-1.5v-2h1.5l0-2.8h2.4l0,2.8h2v2H199.5z"/>
		<path fill="#0363FF" d="M209.9,158.6v5.2h-2.3v-0.7c-0.6,0.6-1.3,0.9-2.1,0.9c-1.7,0-2.8-0.9-2.8-2.5c0-1.6,1.1-2.4,3.4-2.5
			l1.5-0.1v-0.3c0-0.9-0.4-1.3-1.1-1.3c-0.8,0-1.2,0.5-1.2,1.1l-2.4-0.1c0-0.8,0.3-1.5,1-2.1c0.7-0.6,1.5-0.9,2.5-0.9
			C208.6,155.2,209.9,156.4,209.9,158.6z M207.5,160.4l-1.3,0.1c-0.8,0-1.2,0.3-1.2,0.9c0,0.5,0.3,0.8,1,0.8c0.9,0,1.5-0.5,1.5-1.4
			V160.4z"/>
		<path fill="#0363FF" d="M118.5,174.3c1.1,0.8,1.7,2,1.9,3.4l-2.6,0.2c-0.3-1.7-1.5-2.6-3.2-2.6c-1.1,0-1.9,0.4-2.6,1.1
			c-0.6,0.7-1,1.7-1,2.9c0,1.3,0.3,2.3,1,3c0.7,0.7,1.5,1.1,2.6,1.1c1.7,0,2.9-0.9,3.2-2.6l2.6,0.2c-0.2,1.4-0.9,2.5-1.9,3.3
			c-1.1,0.8-2.3,1.2-3.8,1.2c-1.8,0-3.3-0.6-4.5-1.7c-1.1-1.1-1.7-2.6-1.7-4.5c0-1.9,0.6-3.4,1.7-4.5c1.1-1.1,2.6-1.7,4.4-1.7
			C116.2,173.1,117.4,173.5,118.5,174.3z"/>
		<path fill="#0363FF" d="M130.2,181.9h-5.7c0,1.1,0.7,1.7,1.7,1.7c0.8,0,1.4-0.3,1.5-0.9l2.4,0.1c-0.1,0.8-0.6,1.5-1.3,2
			c-0.7,0.5-1.6,0.8-2.5,0.8c-1.3,0-2.3-0.4-3.1-1.2c-0.8-0.8-1.2-1.8-1.2-3.2c0-1.3,0.4-2.4,1.2-3.2c0.8-0.8,1.8-1.2,3.1-1.2
			c1.2,0,2.2,0.4,2.9,1.1c0.7,0.7,1.1,1.7,1.1,3V181.9z M124.5,180.3h3.4c0-1.1-0.6-1.7-1.6-1.7
			C125.2,178.7,124.5,179.3,124.5,180.3z"/>
		<path fill="#0363FF" d="M139.8,180.2v5.1h-2.4v-4.7c0-1.1-0.6-1.7-1.5-1.7c-0.9,0-1.6,0.7-1.6,1.7v4.6h-2.4V177h2.2v0.9
			c0.4-0.7,1.2-1,2.3-1C138.5,176.8,139.8,178.1,139.8,180.2z"/>
		<path fill="#0363FF" d="M145,179l0,3.1c0,0.9,0.5,1.3,1.3,1.3c0.2,0,0.4,0,0.7-0.1v2.1c-0.5,0.1-0.9,0.1-1.3,0.1
			c-1.9,0-3.1-0.9-3-2.8l0-3.7h-1.5v-2h1.5l0-2.8h2.4l0,2.8h2v2H145z"/>
		<path fill="#0363FF" d="M156.4,181.9h-5.7c0,1.1,0.7,1.7,1.7,1.7c0.8,0,1.4-0.3,1.5-0.9l2.4,0.1c-0.1,0.8-0.6,1.5-1.3,2
			c-0.7,0.5-1.6,0.8-2.5,0.8c-1.3,0-2.3-0.4-3.1-1.2c-0.8-0.8-1.2-1.8-1.2-3.2c0-1.3,0.4-2.4,1.2-3.2c0.8-0.8,1.8-1.2,3.1-1.2
			c1.2,0,2.2,0.4,2.9,1.1c0.7,0.7,1.1,1.7,1.1,3V181.9z M150.7,180.3h3.4c0-1.1-0.6-1.7-1.6-1.7
			C151.4,178.7,150.8,179.3,150.7,180.3z"/>
		<path fill="#0363FF" d="M162.9,179.2c-1.4,0-2.2,0.8-2.2,1.9v4.2h-2.4V177h2.3v1c0.4-0.7,1.2-1,2.3-1V179.2z"/>
	</g>
</g>
</svg>
