<?xml version="1.0" encoding="utf-8"?>
<!-- Generator: Adobe Illustrator 20.1.0, SVG Export Plug-In . SVG Version: 6.00 Build 0)  -->
<svg version="1.1" id="reliable-super-fast-cloud" xmlns="http://www.w3.org/2000/svg" xmlns:xlink="http://www.w3.org/1999/xlink"
	 x="0px" y="0px" viewBox="0 0 48 48" enable-background="new 0 0 48 48" xml:space="preserve">
<g>
	<g>
		<path fill="#0363FF" d="M24,0C10.8,0,0,10.8,0,24c0,13.2,10.8,24,24,24c13.2,0,24-10.8,24-24C48,10.8,37.2,0,24,0z M24,44.5
			C12.7,44.5,3.5,35.3,3.5,24C3.5,12.7,12.7,3.5,24,3.5c11.3,0,20.5,9.2,20.5,20.5C44.5,35.3,35.3,44.5,24,44.5z M24,20.5
			C24,20.5,24,20.5,24,20.5c-2,0-3.5,1.6-3.5,3.5c0,1.9,1.6,3.5,3.5,3.5c1.9,0,3.5-1.6,3.5-3.5c0-0.6-0.2-1.2-0.5-1.7l6.7-11.4
			l-3-1.8L24,20.5z M24,10c1,0,1.8-0.8,1.8-1.8c0-1-0.8-1.8-1.8-1.8s-1.8,0.8-1.8,1.8C22.2,9.2,23,10,24,10z M10.3,14.3
			c-1,0-1.8,0.8-1.8,1.8c0,1,0.8,1.8,1.8,1.8s1.8-0.8,1.8-1.8C12.1,15.1,11.3,14.3,10.3,14.3z M10.3,30.1c-1,0-1.8,0.8-1.8,1.8
			c0,1,0.8,1.8,1.8,1.8s1.8-0.8,1.8-1.8C12.1,30.9,11.3,30.1,10.3,30.1z M37.7,30.1c-1,0-1.8,0.8-1.8,1.8c0,1,0.8,1.8,1.8,1.8
			c1,0,1.8-0.8,1.8-1.8C39.4,30.9,38.7,30.1,37.7,30.1z M37.7,17.9c1,0,1.8-0.8,1.8-1.8c0-1-0.8-1.8-1.8-1.8c-1,0-1.8,0.8-1.8,1.8
			C35.9,17.1,36.7,17.9,37.7,17.9z M19.3,37.5h9.4V34h-9.4V37.5z"/>
	</g>
</g>
</svg>
