<?xml version="1.0" encoding="utf-8"?>
<!-- Generator: Adobe Illustrator 20.1.0, SVG Export Plug-In . SVG Version: 6.00 Build 0)  -->
<svg version="1.1" id="reseller-cloud-hosting" xmlns="http://www.w3.org/2000/svg" xmlns:xlink="http://www.w3.org/1999/xlink"
	 x="0px" y="0px" viewBox="0 0 48 48" enable-background="new 0 0 48 48" xml:space="preserve">
<g>
	<g>
		<path fill="#0363FF" d="M0,0v48h48V0H0z M22.4,44.9H3.1V3.1h19.3V44.9z M44.9,44.9H25.6V3.1h19.3V44.9z M19.1,7H6.5v3.1h12.6V7z
			 M19.1,13H6.5v3.1h12.6V13z M41.5,7H28.9v3.1h12.6V7z M41.5,13H28.9v3.1h12.6V13z M30.5,41.7c0.9,0,1.6-0.7,1.6-1.6
			c0-0.9-0.7-1.6-1.6-1.6c-0.9,0-1.6,0.7-1.6,1.6C28.9,41,29.6,41.7,30.5,41.7z M30.5,36.2c0.9,0,1.6-0.7,1.6-1.6
			c0-0.9-0.7-1.6-1.6-1.6c-0.9,0-1.6,0.7-1.6,1.6C28.9,35.5,29.6,36.2,30.5,36.2z M30.5,30.7c0.9,0,1.6-0.7,1.6-1.6
			c0-0.9-0.7-1.6-1.6-1.6c-0.9,0-1.6,0.7-1.6,1.6C28.9,30,29.6,30.7,30.5,30.7z M8.1,41.7c0.9,0,1.6-0.7,1.6-1.6
			c0-0.9-0.7-1.6-1.6-1.6s-1.6,0.7-1.6,1.6C6.5,41,7.2,41.7,8.1,41.7z M8.1,36.2c0.9,0,1.6-0.7,1.6-1.6c0-0.9-0.7-1.6-1.6-1.6
			s-1.6,0.7-1.6,1.6C6.5,35.5,7.2,36.2,8.1,36.2z M8.1,30.7c0.9,0,1.6-0.7,1.6-1.6c0-0.9-0.7-1.6-1.6-1.6s-1.6,0.7-1.6,1.6
			C6.5,30,7.2,30.7,8.1,30.7z"/>
	</g>
</g>
</svg>
