<?xml version="1.0" encoding="utf-8"?>
<!-- Generator: Adobe Illustrator 20.1.0, SVG Export Plug-In . SVG Version: 6.00 Build 0)  -->
<svg version="1.1" id="small-business-cloud-hosting"
	 xmlns="http://www.w3.org/2000/svg" xmlns:xlink="http://www.w3.org/1999/xlink" x="0px" y="0px" viewBox="0 0 48 48"
	 enable-background="new 0 0 48 48" xml:space="preserve">
<path fill="#0363FF" d="M38,21.6H25.4v-4.7c0.7,0.2,1.5,0.4,2.3,0.4c1,0,2.2-0.2,3.4-0.9c4.3-2.3,4-7,4-7.2l0-0.6l-0.5-0.4
	c-0.1-0.1-3.7-3-8-0.7c-0.4,0.2-0.7,0.4-1,0.6c-0.4-2.2-1.5-4.2-3.1-5.7c-2.1-1.9-4.7-2.7-7.6-2.4c-2.1,0.2-3.7,1.1-3.7,1.1
	l-0.5,0.3l-0.2,0.5c0,0.1-0.6,1.8-0.6,4c0.1,3,1.2,5.6,3.3,7.5c1.8,1.6,4,2.5,6.4,2.5c0.4,0,0.8,0,1.2-0.1c0.6-0.1,1.2-0.2,1.8-0.3
	v6.1H10.1v8.8h2l3,17.6h17.8l3-17.6h2V21.6L38,21.6z M28,10c1.9-1,3.6-0.4,4.5,0c-0.1,1-0.6,2.8-2.5,3.8c-1.9,1-3.6,0.4-4.5,0
	C25.5,12.9,26,11.1,28,10z M21.4,12.9c-0.3,0.1-0.6,0.1-0.9,0.1c-2.1,0.2-3.9-0.4-5.4-1.7c-1.5-1.4-2.3-3.2-2.4-5.3
	c0-1.1,0.1-2,0.2-2.5c1.3-0.5,4.9-1.5,7.8,1.2c1.5,1.4,2.3,3.2,2.4,5.4c0,0.3,0,0.6,0,0.8l-4.4-4.1l-1.8,2.1L21.4,12.9z M30.7,45.2
	H17.4l0,0l-1-5.8H24v-2.8h-8.1l-1.1-6.2h18.3L30.7,45.2z M35.3,27.6H12.8v-3.2h22.5V27.6z"/>
</svg>
