<?xml version="1.0" encoding="utf-8"?>
<!-- Generator: Adobe Illustrator 20.1.0, SVG Export Plug-In . SVG Version: 6.00 Build 0)  -->
<svg version="1.1" id="daily-backup" xmlns="http://www.w3.org/2000/svg" xmlns:xlink="http://www.w3.org/1999/xlink" x="0px"
	 y="0px" viewBox="0 0 48 48" enable-background="new 0 0 48 48" xml:space="preserve">
<path fill="#0363FF" d="M32.9,3.5c-2,0-4,0.2-5.7,0.7c-2.7-2.3-7.1-3.7-12.1-3.7C6.6,0.5,0,4.6,0,9.9c0,0,0,18.8,0,18.8l0,9.4
	c0,5.3,6.6,9.4,15.1,9.4c6.9,0,12.6-2.8,14.5-6.6c1.1,0.1,2.2,0.2,3.3,0.2c8.5,0,15.1-4.1,15.1-9.4V12.9C48,7.6,41.4,3.5,32.9,3.5z
	 M26.4,38.1c0,2.7-4.6,5.6-11.3,5.6c-6.7,0-11.3-3-11.3-5.6V35c2.7,1.9,6.8,3.1,11.3,3.1c4.6,0,8.6-1.2,11.3-3.1V38.1z M26.4,28.7
	c0,2.7-4.6,5.6-11.3,5.6s-11.3-3-11.3-5.6v-3.1c2.7,1.9,6.8,3.1,11.3,3.1c4.6,0,8.6-1.2,11.3-3.1V28.7z M26.4,19.3
	c0,2.7-4.6,5.6-11.3,5.6s-11.3-3-11.3-5.6v-3.1c2.7,1.9,6.8,3.1,11.3,3.1c4.6,0,8.6-1.2,11.3-3.1V19.3z M15.1,15.5
	c-6.7,0-11.3-3-11.3-5.6c0-2.7,4.6-5.6,11.3-5.6c6.7,0,11.3,3,11.3,5.6C26.4,12.6,21.8,15.5,15.1,15.5z M44.2,31.7
	c0,2.7-4.6,5.6-11.3,5.6c-0.9,0-1.8-0.1-2.7-0.2v-5.6c0.9,0.1,1.8,0.1,2.7,0.1c4.6,0,8.6-1.2,11.3-3.1V31.7z M44.2,22.3
	c0,2.7-4.6,5.6-11.3,5.6c-0.9,0-1.8-0.1-2.7-0.2v-5.6c0.9,0.1,1.8,0.1,2.7,0.1c4.6,0,8.6-1.2,11.3-3.1V22.3z M32.9,18.5
	c-0.9,0-1.8-0.1-2.7-0.2V9.9c0-0.8-0.2-1.6-0.5-2.4c1-0.1,2-0.2,3.1-0.2c6.7,0,11.3,3,11.3,5.6C44.2,15.6,39.6,18.5,32.9,18.5z"/>
</svg>
