<?xml version="1.0" encoding="utf-8"?>
<!-- Generator: Adobe Illustrator 20.1.0, SVG Export Plug-In . SVG Version: 6.00 Build 0)  -->
<svg version="1.1" id="map" xmlns="http://www.w3.org/2000/svg" xmlns:xlink="http://www.w3.org/1999/xlink" x="0px" y="0px"
	 viewBox="0 0 1110 663" enable-background="new 0 0 1110 663" xml:space="preserve">
<path fill="#E0E7EE" d="M675.8,486.3v2c-0.6-0.3-1.6-0.6-1.9-0.6c0,9.5-2.5,16.1-4.9,23.6c-2,5.9-2.9,14.7-9.6,14.7
	c-2.7,0-5.1-3.8-5.1-7.2c0-1.7,0.3-2.4,0.2-3.3c-1.3-1.2-1.3-3.3-1.3-5.3c0-0.5,2-2.6,2.2-2.6c0,0,2.2-5.6,2.2-5.9
	c0-1.4-1.6-4.7-1.6-6.8c0-6.4,3.9-6,7.1-8.2c2.5-1.7,5.9-6.7,7.6-8.8c0.6-0.6,0.2-2.9,0.6-3.9C675.1,474.4,674.7,482.9,675.8,486.3z
	 M766.8,401.4c0,1.8,1.2,3.7,2.7,3.7c2.1,0,3.5-3,3.5-5.4c0-4.2-3.2-5.8-4.7-8.9C768.3,394.8,766.8,397.6,766.8,401.4z M847.7,447
	c0-1.3-0.5-3.1,0.6-3.7v-5.6c0-1.3-1.5-1.7-2.2-2.5c-1.2-1.4-2.5-2.2-2.5-5c-1.2,0-2.1-0.4-2.1-2.1l0.4-1.3c-0.2-0.5-0.6-1.2-1-1.2
	h-0.9c0-0.1,0.2-0.5,0.2-0.6c0-2-1.9-2.6-3.5-3.3c-3.1-1.2-4.3-2.9-6.3-5.4c-1.1-1.3-1.9-2.9-3.5-3.5c-0.4-0.1-1,0-1.2-0.7
	c-0.9-2.1-1.6-4.1-4-5h-3.6c-0.9-0.5-1.1-1.2-2.2-1.2h-0.7v1c0.3,1.3,2.1,5,2.9,5.2c1,0.2,2.1,0,2.5,1.2c0.7,1.6,1,2.4,1.6,3.9
	c0.8,1.8,3.3,1.3,4,4.3c0.2,1.1,1,4.2,1.5,4.6c0.3,0.3,1.6,0.4,1.7,0.7c0.2,0.4,0,1.2,0.3,1.2c0.3,0,1.6,2.6,1.8,3.3
	c1.2,3,2.1,5.4,4.3,8c2,2.4,3.9,3.4,6,5.9c0.1,0.1,2.1,3.5,2.6,3.5C845.6,448.8,847.7,448.5,847.7,447z M857.9,424
	c0,0.6,1.1,5.4,1.6,5.5c0.6,0.1,1.2,0.1,1.4,0.8c0,0.1-0.1,0.5-0.1,0.7c1.4,2.6-0.3,7.2,3.7,7.2c0.9,0,1.4-0.8,2.3-0.7
	c0.1,0.5,0,2,0.2,2c0.3,0,0.5,0.7,0.9,0.7c1.3,0,1.9-1.4,2.7-1.4c1.9,0,3.1,1.6,4.8,2.1c0,0.8,0.3,1.8,1.4,1.8
	c1.4,0,1.6-1.6,3.4-2.1c0-1.5,1.3-3.4,1.3-4.5c0-0.7-0.5-0.9-0.5-1.8c0-0.8,1.1-2.8,2.4-3c0-2.2,0.9-3,1.4-5.9l0.5-1.3
	c0.3-0.1,0.8-0.3,1.1-0.3c1.2,0,2.1,0.6,2.4-1.3c-2,0-4.9-6.5-4.9-8.5c0-0.4,0.4-0.8,0.8-0.9c-0.1-0.4-0.3-0.8-0.4-1.2
	c0,0,3-1.4,3.2-1.8c-0.2,0-0.4-0.4-0.4-0.7c0-1.2,2.4-0.4,2.4-1.6c0-2.6-4.6-1-4.6-3.8c0-2,0.2-3.3-1.6-3.3c-1.7,0-4.1,5-5,7.1
	c-0.4,1.1-2.9,0.4-3.9,1.6c-0.2,0.3-0.3,0.9-0.7,1.1c-0.5,0.3-0.4,0.5-1.1,0.9c0,0-1.2,1.1-0.8,1.6c-0.9,1-0.9,2.4-2.5,2.7
	c-1.2,0.3-2.3,0.3-3.1,1.2c-1.5,1.8-1.1,5.9-4.5,5.9C860.2,422.7,857.9,421.7,857.9,424z M896.3,425.5c1.9,0,2.6-0.5,4.2-0.5
	c1.4,0,2.4,0.9,3.8,0.9c2.2,0,2.9-2.2,3.3-4.2c0.3,0,0.4-0.6,0.5-1.1h-0.7c-1.3,1.1-2.8,2.2-3.5,3H903l-7.6-1.6
	c-2.8,0-4.1,4.3-4.1,7.5c0,0.8-0.9,1.4-1,2c-0.8,3-2,4.2-2,7.1c0,1.6,1.5,1.6,2.2,1.7v6.3c0,0.8,0.9,1.7,1.7,1.7
	c1.2,0,1.6-4.6,1.6-5.2c0-1.7-1-2.6-1-4.3c0-0.9,0.9-1.6,1.6-1.6c0.3,0,0.5,0.1,0.9,0l-0.4,2.8c0,1.7,1.8,2.4,1.8,4.1
	c0,0.4,0.1,0.8,0,1.2h1.4c0-1.4,2.4-1.3,2.4-2.7c-0.4-0.1-1.5-1.6-1.5-2.4c0-0.3,0.3-0.5,0.4-0.8c-0.6-0.4-2.7-5.1-2.7-5.5
	c3,0,3.3-2.9,5.8-3.8v-1.1c-0.7-0.1-6.4,2-6.6,2.3l0.2-0.5c-0.4,0.7-0.6,1.3-1.2,1.3c-1.6,0-2.3-2.5-2.3-4.4
	C892.7,425,894.4,425.5,896.3,425.5z M875.4,458.7c1.3,0,1.2,0.9,2.3,0.9c0.2,0,1-0.9,1.2-1.4c-0.8-0.4-0.8-0.8-1.7-1.2
	c-1-0.4-1.9,0.7-2.6-0.2c-0.2-0.3-0.2-1.2-0.9-1.2c-2,0-3.4-0.3-4.6-1.7c0.2,0.1,3.9-0.3,4-0.9h-0.9l-3.3,0.5c-2,0-2.7-2.4-4.9-2.4
	c-1.3,0-1.6,2-3.3,2c-3.6,0-5-4.2-8.3-4.2c-0.7,0-1.1,0.8-1.7,0.8c-0.3,0-0.6-0.5-0.9-0.5c-0.7,0-2.6,2.4-2.7,2.8
	c1.6,0,2.5,1.6,3.6,2.9c1.1,1.3,2.7,0,4.4,0.7c2.2,0.8,3.9,0.9,6,0.9c1.1,0,1.4,1.7,2.7,1.7c4.3,0,8,0.3,11.6,2
	C875.2,459.6,875,458.7,875.4,458.7z M898.3,460.4c1.4-0.5,2.4-0.9,3.2-2.6c-1,0.5-1.5,1.3-3.2,1.3c-1.6,0-2.4-0.9-4.4-0.9
	c-0.8,0-2-0.1-2,0.9c0,1.4,1.6,1.3,2.4,1.3H898.3z M886.5,458.3c0,0.4-0.1,0.7-0.1,1.1c-0.5-0.3-1.1-0.5-2.1-0.5
	c-1,0-1.9-0.1-1.9,1.3c0,0.5,1.3,0.9,2.2,0.9c1.1,0,1.5-0.8,2.6-1.3l0.9,0.5h1c-0.2-0.3,0-0.9,0-2H886.5z M892.7,461.9h-1.1
	c-0.8,0-2.1-0.3-2.1,0.8c0,1.3,1.8,1.4,2.8,1.4c0,0.4,0.1,1.7,0.6,1.7h0.4c0.3,0,0.9-0.5,0.9-0.9
	C894.3,463.4,892.7,463.8,892.7,461.9z M880.9,458.1h-1v1.3c0,0.4,0.6,0.9,0.9,0.9c0.5,0,1-0.5,1.1-1.3
	C881.5,458.8,881.5,458.1,880.9,458.1z M907.9,462.2c1.7,0,5.3-1.1,6.4-3c-1-0.8-5.8-0.2-6.9,1.1c-0.2,0.2-0.2,1-0.5,1.2
	c-1.6,0.6-3.7,0.6-3.7,3.5c0,0.5,0.3,1.2,0.8,1.2c1.2,0,3.1-1.6,3.6-2.2C907.9,463.5,907.3,462.2,907.9,462.2z M938,449.1
	c0-0.9-0.2-0.4-0.4-1.4c-0.8,0.1-0.7,1.3-0.7,2.2c0,0.8-1.1,0.9-1.1,2.2c0,0.4,0.3,1.1,0.6,1.1c0.9,0,0.7-1.4,0.7-2.8
	C937.6,450.4,938,449.9,938,449.1z M911,439.1c0,1.1,1.3,2.5,1.9,2.5c0.3,0,1.1-1.4,1.1-1.7C914.1,438.6,911,437.6,911,439.1z
	 M916.7,439.1c0,0,1.5,0.5,2,0.5h2.5c1.5,0,2.3,1.3,3.8,1.3c0.2,0,0.6,0,0.6-0.3c0-1.1-1.2-1.3-1.3-2.4l-0.3,0.1
	c-0.6,0-1.4,0.4-1.6-0.5h-4.9C917.2,438.2,916.7,438.5,916.7,439.1z M916.3,418.3c-0.9,0.5-1,1.6-1,2.6c0,1.7,0.9,2.2,0.9,3.7v1.7
	c0,0.8,0.3,2.5,1.4,2.5c-0.5-0.9-0.8-1.4-1.2-2.2v-0.9c0.9,0,2.1-0.1,2.5-0.3c-0.1-1-0.9-1.3-0.9-2c0-0.8,1.1-0.9,1.1-1.7
	C917.2,421.2,916.5,420.2,916.3,418.3z M981.2,447.7c0.3,1.5,1.9,1.4,2.9,2.3c0,0,0,0,0.1,0.1c0.1,0.1,0.2,0.2,0.2,0.3l-0.2-0.2
	c0.5,0.4,1.3,0.9,1.6,0.9c2.3,0,3.3-1.4,5.2-2c0-2.4,2.3-1.8,2.3-4.6c0-0.8-0.3-1.9-1-1.9c-1.5,0-0.9,2.9-2.4,3.8
	c-1,0.5-2.6,0.4-4.3,1.1c0,0-1,0.5-1.2,0.4H981.2z M975.7,448.8c-2.6-1.6-2.5-5.1-6-6.4c-0.5-0.1-1.4-0.3-1.4-1.3
	c-1.3,0-2-1.8-3.3-1.8c-2.4,0-5.8-1.4-7.4-2.8v-0.1c-0.1,0-0.2,0-0.2-0.1c-0.1-0.1-0.2-0.2-0.3-0.3l0.2,0.3
	c-0.6-0.2-1.4-0.5-1.9-1.1h-3c-0.6-0.4-1.5-2-2.8-2.5c-0.3-0.1-1.2,0-1.3-0.7c-1.3,0.3-2.6,2.6-3.6,3c-1.5,0.5-1.7,0.7-2.6,1.7
	c-0.2,0.3-1.2,2.2-2,2.2c-0.7,0-2.2-2.1-2.2-2.6c-1,0-1.6-0.5-1.6-1.2v-4.7c-2-0.5-3.4-2.6-5.2-2.6c-2,0-2.7,2.2-4,2.2
	c-0.7,0-1.5,0.4-1.5,1.2c0,1.8,2.6,1.1,3.4,2.9c0.1,0.4,0.3,1,0.7,1.2c0.5,0.1,1,0.4,1.5,0.4c1.2,0,2-0.1,3.2-0.5h0.8
	c-0.8,1.6-4,1.3-5.6,2.2c0.2,1,1.4,0.5,2,1.6c0.5,1.1,0,1.6,0.5,2.9c0.1,0.4,0.8,0.4,1.1,0.4c0.9,0,1.3-1.3,1.6-2.4v1.2
	c1.7-0.7,2.4,2.7,4,2.7c1.7,0,4.7,0.7,5.9,1.3c1.1,0.7,4.2,2.1,4.6,3.7c0.6,2-0.1,3.8,1.4,5.6c-0.7,0.4-2.7,1-2.7,2.6c0,1,1,1,1.7,1
	h2.3c0-0.7,1.2-0.8,1.6-0.8c2.8,0,3.6,4.1,6.4,4.1h4.2c0-0.9,1-1.4,0.5-3.2c1.5-0.9,1.3-3.3,4-3.3c3.6,0,5.6,3.7,7.7,6.3
	c0.2,0.3,1.1,0.5,1.1,1.1c0,1.4,2.5,2.9,4.2,3.3h2.8c0.2,0.3,1.9,1.6,2.1,1.6h0.6c0-0.9,0.8-1.6,1.4-2.1c-0.3-0.1-2,0.1-2.2-0.5
	c-0.2-0.5-0.4-1.3-1.1-1.6c-0.4-0.1-1.1,0.4-1.3-0.3c-0.2-0.5-0.6-1.5-0.9-1.5c-0.8,0-2.1-0.7-2.4-1.3c-0.9-1.6-0.7-2.5-1.8-3.8
	c-0.2-0.3-2.1-2.5-2.1-3.1c0-1.2,2.1-0.7,2.1-2.1C979.1,448.1,976.8,449.5,975.7,448.8z M993.9,440.3c-1.2-1.4-2.2-3-4.3-3.8
	c0.3,1.1,1.1,0.9,2,1.6c1.4,1,1.2,2.5,2.6,3.3c-0.2,1.3-0.2,2.2,1.1,2.5c0.2,0.2,0.4,0,0.6,0c-0.1-0.3,0-0.7,0-0.9
	C996,441.1,994.8,441.4,993.9,440.3z M1001,447.3c-0.2,1.3,0.2,2.6,1.5,2.9v1.1c0,0.4,0.3,0.9,0.7,0.9c0.3,0,0.8-0.6,0.8-1
	C1004,450.7,1001.7,447.8,1001,447.3z M1022.1,464.8c-0.1,0.8,0.7,2.7,1.8,2.7c-0.1-0.3,0-0.5,0-0.8
	C1023.8,465.7,1022.9,465.5,1022.1,464.8z M1017.3,462.7c0,1.6,1.7,2.1,3,2.1c0.1,0,0.4-0.3,0.6-0.3
	C1020.1,463.2,1019,462.7,1017.3,462.7z M1017.8,457.6c0.1,1,2.1,4.2,3.2,4.2C1020.4,459.8,1019.3,458.7,1017.8,457.6z
	 M1011.4,454.9h-0.2c0,1.4,2.5,2.5,3.4,2.5c0.3,0,0.7-0.1,0.9-0.3c-0.7-1.2-2.8-2-3.8-2.6L1011.4,454.9z M1006.3,451.2l0.5,0.4
	c0,0.1-0.4,0.1-0.5,0.1l1.6,1.3h1C1008.2,451.9,1007.5,452.3,1006.3,451.2z M974.7,589.4c-0.1,0-6-2.1-6,0c0,2.8,3.6,12.4,6.9,12.4
	c2.2,0,5.1-6.9,5.1-9.8c0-1.6-0.9-2.3-1.2-3.9C978,588.6,976.1,589.4,974.7,589.4z M980.2,586.8c0.1-0.7,0.3-0.9,0.3-2.2
	c-0.3,0.1-0.9,0.1-1.4,0C979.1,585.6,979.2,586.4,980.2,586.8z M943.6,567.5c1,1.2,2.6,0.9,3.8,0
	C945.9,566.6,945.7,566.3,943.6,567.5z M926.5,471.5h1.1v-2c-1.6-0.1-2.4,0.1-4.4,0.7C923.7,470.7,925.2,471.5,926.5,471.5z
	 M993.9,522.4c-2.1-2.5-6.2-4.7-6.2-9.9c-1.4,0-3.2,0-3.6-1.7c-0.4-1.8-0.7-4.3-2-5.9c-1.8-2.2-6.5-3.4-7.4-6.5
	c-0.9-3.3-1.7-5-2.7-8.5c-0.6-2.1-0.6-6.3-1.9-7.3c-0.4-0.3-2.5-1.1-3.6-1.4c-1.2-1.1-0.7-3.4-1.1-5.2c-0.7-2.5-2.1-4.9-2.4-8.4
	c-1.9,1.2-1.3,2.9-3.1,4.4v11.8c-0.5,3-1.2,10.7-4.6,10.7c-2.1,0-2.6-2.9-4.1-3.5c-2.7-1.3-4.4-2-7.3-3.3c-0.4-0.1-0.4-2.1-1.1-2.6
	c-0.6-0.5-2.2-0.3-2.2-1.3l1.3-6.6c0.9-0.8,2.5-0.9,2.5-2.6c0-1.1-1.5-2.4-2.2-2.4c-1.2,0-1.6,1.1-3.1,1.1c-3.9,0-6.1-1.8-9.8-3.7
	c0.2,1.4,1.3,1.8,2,3c-0.3,0.1-1.2,0.9-2,0.9c-1.9,0-6.2,1.2-6.2,3c0,1.8-1.6,2.8-1.6,4.6c0,1.2,0.3,2.1-0.3,3.3
	c-0.2-0.1-1.1-1-1.6-1c-1,0-1.9,0.5-2.4,1.4c-0.2-2.4-1.3-5-3.3-5c-2.3,0-2.8,2.6-5.8,2.6c-0.2,3-2.4,3.5-2.4,7.2
	c-0.9,0-1.4-0.5-2.3-1c-0.6,1.4,0,3.4-1.2,4.3c-0.4-0.9-1.1-1.4-1.7-2.6c-1.1,0.6-1.4,1.9-1.4,3.3v2.2c0,4.5-8.9,8.1-12.9,8.9
	c-2.1,0.4-6,0.7-7.3,2.2c-1.2,1.4-3.7,4.7-5.8,5c0-0.4,0-0.9-0.1-1.3c-0.4,0.3-1.2,0.5-1.2,1.6v7.6c0,3.3,1.3,4.9,1.3,6.8
	c0,0.7,0.3,1.2,0,1.7c-0.3-0.4-0.8-1-1-1.7c-0.3,0.7-0.4,1.2-0.7,1.7c-0.5,2,1.6,2.6,2.2,4.6c1.4,5.1,1.8,6.9,3.1,12.7
	c0.6,2.3,2.2,4.4,2.2,8.2c0,3-2.5,3.9-2.5,5.9c0,1.8,5.2,4.6,7.1,4.6c4.9,0,6.5-4.3,10.4-4.3c1.3,0,1.3-1.1,3.1,0
	c2.4,0,4.3-0.7,6.5-0.9c0.9-6.7,7.7-4.3,13.3-6.5c2.4-0.9,3.2-3,7.1-3c3.6,0,10,1.3,11.8,3.9c0.9,1.4,3.3,7.9,4,7.9
	c0,0-0.4,2.4,0.9,2.4c2.3,0,5-6.8,7-9.2c0.1,2-0.4,8.8-3.2,9.4c0,0.7,0.6,1.3,1.1,1.3c1.6,0,1.7-2.3,2.7-2.9c0-0.4,0.2-0.9,0.2-1.3
	c0.4,0.5,1.1,1,1.1,2.6c0,1.3-0.4,2.1-0.8,2.9h1.3c0.9-0.2,1.4-0.4,2.2-0.9c0,0.1,0.1,0.7,0.1,0.7c0.1,1.7,1.5,3.3,1.5,5.2
	c0,5.4,7,8.8,11.2,8.8c2.7,0,1.9-2.6,4.4-2.9c0.1,0.8,4.6,3.8,5.5,3.9c0.9-6.3,9.8-3.5,11-9.6v0.3c0-4.6,2.3-8.6,3.2-11.8
	c1.1-4.2,3.1-5.5,5-9.2c0.5-1,0.2-1.6,0.8-2.6v-3.7c1-1.2,1.6-5.2,1.6-8.1c0-3.9-1.1-11-2.8-13.8L993.9,522.4z M1058.9,590
	c-0.5,0.3-1.1,1.2-1.9,1.2c-0.7,0-0.6-0.9-0.6-1.8c-0.3,0-0.8-0.4-0.8-1.3c-1,0.5-2.6,2.3-2.6,4.3c0,0.3-0.1,0.5-0.1,0.8
	c-0.9,0.1-1.5,0.4-2,1.4c-0.1,0.4-0.1,1.3-0.1,1.3s-1.5,2.9-2.1,3.1c-1.9,1.1-3.5,4.3-6.1,4.3c-0.8,0-1.3,0.8-1.7,1.7
	c-1.1,1.9-4.4,3.8-4.4,7.2c0,0.3,0.3,0.5,0.5,0.5c0,0.6,4.2,2.6,4.9,2.6c0.7,0,2,0.7,2.4,0.7c1.2,0,3.2-2,4.2-3.1c0,0,3-7.6,3.4-9.2
	c0.9,0,3.5-0.7,4-0.7c0.2-1.6-0.3-2.1,0-4.1c1.8,0,3.9-4.8,4.3-6.5c-0.4-0.3-0.6-0.9-0.6-2C1059.4,590.5,1059.1,590.4,1058.9,590z
	 M1072.9,574.7c-1.8,0-1.6,1.3-3.7,1.3c-2.6,0-4-2-4-5.4h-0.6c-0.6,0-1,0.5-1,1.3h-0.7c-0.6-0.6-1.9-3.5-1.9-4.2
	c0-0.4,0.3-0.5,0.4-0.9c-0.7-0.4-0.7-1.3-1.3-2.1c-1.1-1.3-2.9-1.4-4.1-3.7c0.7,3.1,2.2,7.5,4.7,8c-0.1,0.4-0.3,0.9-0.3,1.3
	c0,1,0.9,1.4,1.2,2.5v-0.1c0.2,0.7,0.4,1.7,0.4,2.6c0,2-0.2,3.8-1.3,5.1c-0.6,0.7-1.5,0.8-1.5,2.1c0,2.4,4,1.3,4,3.9
	c0,1.6-1.3,2.2-1.3,3.8c0,1.1,0.7,1.7,1.6,1.7c2.3,0,2.9-2.6,4-4.6c0.2-0.4,1.5-1.7,1.5-2.6c0-0.4-0.4-0.9-0.4-1.3
	c0-1,1.1-1.4,2.2-1.7c0.1,0,0.2-0.4,0.3-0.4l0.5,0.7c1.1-2,0.6-4.7,2.2-6.5C1073.6,575.1,1073.2,574.7,1072.9,574.7z M1073.2,495.1
	v-1.6c-0.5-0.1-1-0.5-1.3-1.2c-1,0.4-2.5,0.8-2.5,2.5c0,0.5,1.4,0.8,2.3,0.8C1072.6,495.6,1072.6,495.8,1073.2,495.1z M1073.8,490.2
	c0,0.4,0.3,1.2,0.7,1.2c1.1,0,1.4-1.3,2.7-1.7v-1.2C1076.5,488.5,1073.8,488.7,1073.8,490.2z M909.2,390.1c-0.1,0.3,0,1.9-0.3,2.7
	c-0.3,0.7-2.1,0.2-2.1,1.8c-0.6,0.1-0.9,0.7-0.9,1.5c-0.2,0-0.4,0-0.6,0c-0.7,0-0.5-1.8-1.8-1.9c-1.8,0-1.3,2.5-3.4,2.4
	c-0.2,1.1-0.6,1.8-0.6,2.9c0,0.3,0.4,0.8,0.4,1.1c0,0.5-0.8,2.6,0,2.6c1.1,0,1-3.7,2-4.9c0,0,0.7,0.9,1,1.1c0.1-0.1,0.3-0.6,0.3-0.6
	c0.2,0.2,0.4,0.6,1,0.6c-0.1-0.3,0-0.7,0-1l1.4,0c0.1,0.3,0.3,0.8,0.4,1.1c-0.3,0.2-0.5,0.6-0.5,1.3c0,2.2,1.1,4,2.5,4
	c0.3,0,0.7,0.1,1-0.1c0,0.3,0.2,0.9,0.5,0.9c0.7,0,1.1-0.7,1.1-1.6c0-1.2-1.2-1.6-1.2-2.4c0-0.7,0.5-0.9,0.9-1.6
	c0.2,0.3,0.5,0.6,0.6,0.9l-0.1-0.3c0.2,0.6,0.9,2.6,1.2,2.7c0-1.9,1.2-2.6,1.3-3.9c0-1-1.6-7.8-2.4-8.7
	C910.4,390.7,909.9,390.1,909.2,390.1z M885.9,394.6l0.7,0c1.2-0.9,3.1-2.3,3.6-4.9c0.8,0,1.5-0.2,1.7-1.2c0.5,0,0.6-0.3,1-0.7
	c-0.4-0.5-0.9-0.7-0.9-1.9c-0.3,0.3-0.3,0.9-0.5,1.5C890.4,389.9,887,391.2,885.9,394.6z M891.4,370.6c0,0.7,1.8,2.1,2.2,2.1
	c0.3,0,0.5-0.4,0.7-0.8l0.6,0l0,1.1c-0.2,0.2-0.6,0.6-0.6,1.2c0,0.6,0.8,1.6,1.5,1.6c0.6,0,1-0.7,1.6-0.7c1.4,0,1.5,2.5,2.9,2.6
	c-0.3-0.9-0.6-1.4-0.1-2.2c0.6,1,2.9,2.1,3.5,3.5c0.1,0.3,0.2,0.9,0.5,0.9c0.2,0,0.4-0.5,0.4-0.7c0-0.3,0-0.6,0-0.9
	c-0.7,0-1.3-0.5-1.3-1.4c-0.2,0.1-0.7,0.2-0.7,0c0-0.6,0.5-0.7,0.6-1.4c-0.2,0-0.4-0.2-0.6-0.2c-0.4,0-0.5,0.8-0.9,0.8
	c-0.6,0-0.9-2.6-2.1-2.7c-0.6,0-1.1,0.4-1.1,0.9c0,0.1,0,0.5,0,0.6c-1.1-0.6-2.4-3.5-2.4-5.2c0-2.4,1.8-2.6,1.9-5.1
	c0-1.9-1.2-3.7-1.2-5.1c0-0.2-0.2-0.6-0.2-0.8c0-0.1-0.2-0.5-0.2-0.6c-0.4,0.2-0.7,1.1-1.3,1.1c-0.9,0-0.7-2.1-1.8-2.1
	c-0.8,0-1,1.1-1,2.3c0,1.4,0.5,2.3,0.4,3.7c0,1-0.2,2.6-0.6,3.4C891.1,366.4,891.5,368.7,891.4,370.6z M908.1,380.9
	c-0.8,0-1.4-0.5-2.2-0.5c-0.3,0-0.6,0.3-0.9,0.4c0.2,0.9,2.4,1.8,2.3,3.4c0,0.2-0.3,0.7-0.5,0.7c-0.1,0-0.8,0-1.3,0l0,0.7
	c0.1,0.3,0.8,1.5,1.5,1.5l0,0.7c-0.4,0.7-0.2,1.6,0.5,1.6c0.3,0,0.6,0,0.9,0l0-0.7c-0.4-0.2-0.8-1.4-0.9-2.3l1.5,0
	c0.1-0.5,0.3-0.8,0.4-1.5c-0.1,0-0.8-1-0.8-1s0.1-1.1,0-1.8c-0.2,0-0.4,0-0.6,0C908.2,381.6,908.1,381.2,908.1,380.9z M899.6,383.1
	c-0.1-0.2-0.3-0.4-0.4-0.4c-0.2,0-0.6,0.3-0.6,0.6c0,1,0.4,3.2,0.3,5.1c0.9-0.7,3.2-1.6,3.2-3.6
	C902.1,383.9,900.3,383.5,899.6,383.1z M902.6,386.4c-0.5,0.1-1,2.9-1.1,3.3c-0.3,0-0.9,0.3-0.9,0.7c0,0.8,1.8,3,2.1,3
	c0.2,0,0.6-0.3,0.6-0.6c0-0.7-0.5-0.5-0.5-1.5c0-1.4,1.1-2.2,1.2-3.6C904,387,903.6,386.1,902.6,386.4z M903.5,390.9h0.5
	c0-1.7,1.3-2.2,1.4-4.3c-0.3,0-0.6,0-0.9,0C904.4,388.6,903.8,389.5,903.5,390.9z M906.6,389.5c-0.3,0.5-0.8,0.2-1.3,0
	c-0.3,0.7-0.9,1-0.9,1.7c0,0.2,0.4,0.6,0.6,0.6C905.9,391.7,906.6,390.7,906.6,389.5z M904.5,383.2c0-1.5-1.3-1.8-1.6-2.9l-0.9,0
	c0,0.5,0,0.9,0,1.7c0.5,0,0.9-0.1,1.4,0C903.4,382.6,904.5,383.7,904.5,383.2z M896.6,381.1c0.4,0,0.9-1.4,0.7-2.3
	c-0.3-1.4-1.4-1.2-2.6-2.1l-1,0C893.7,376.7,896,381,896.6,381.1z M897.6,377.4c0.2,0.2,0.8,0.1,1,0
	C898.4,377.2,897.8,377.3,897.6,377.4z M896.2,330c-1.5,0-3.8,5.1-3.8,7.9c0,2-0.3,3.7,1.6,3.7C896.5,341.6,898.9,330,896.2,330z
	 M864,352.3c0-0.8-0.8-2-1.3-2c-1.4,0-5.1,3.3-6,3.3c-0.5,0,0,1.2,0,2c0,1.7,0.8,2.6,2.4,2.6C860.7,358.2,864,354.1,864,352.3z
	 M848.5,435.4c0.1,0.4,0.6,1.8,0.8,1.8c0.4,0,0.8,0.8,1.4,0.8h0.8c-0.1-0.4-0.1-0.9-0.1-1.3c-1.5,0-2.2-2.5-2.7-4.4
	c-0.8,0.1-2.3,1-2.3,1.7C846.3,435,848.1,434.3,848.5,435.4z M855,438.8c0.7,0,1.1-0.8,1.2-1.6c-0.3-0.1-0.7-0.7-1-0.7h-1.1
	c-0.1,0,0,0.5,0,0.7C854.2,437.8,854.4,438.8,855,438.8z M827.4,430.8h-0.9v0.5c0,0.9,1.4,3,2,3.2c0.1-1.3-0.4-2.1-1.1-3V430.8z
	 M823.1,422.8l-0.5,0.3h0.1c0.1,0.8,1.5,2.9,2,2.9C825.5,425.9,823.8,423.3,823.1,422.8z M922.1,298.2c0,0.6,0.6,1.4,1.1,1.4
	c0.3,0,0.8-0.5,1.3-0.5c-0.2-0.4,0-0.8,0-1.2c0.1,0.7,0.2,1.4,0.9,1.7l-0.4,1.8c0,0-1.1,1.8-1.1,2.1c0,0.5,0.6,2.1,1.5,2.1v-0.8
	c0,0.4,0,1.2,0.3,1.2c1.5,0,2.4-4.1,2.7-6.4c0.3,0.3,0.6,0,1,0c-0.2-0.4,0-0.9,0-1.3l-1-1c-0.3,0-0.1-0.9-0.1-1.3c-1.3,0-2-1-2.8-1
	C925.2,295,922.1,297.4,922.1,298.2z M932.2,299.3c1.4,0,1.6-2.1,2.6-3.3c0.3,0.1,0.8,0.9,1.6,0.9c1.1,0,2.4-4.6,0-4.6
	c-1.5,0-1.8,2.2-3.7,1.6c0,0.1-2.1,2-2.1,2c0,0.6,0.2,0.9,0.9,1.4C931.4,298,931.6,299.3,932.2,299.3z M944,283.3c-1,0-1.6,4-3.5,4
	h-6.8c-2.9,0-3.8,3.3-6.1,5.1c-0.4,0.3-1.4,0.5-1.4,0.9c0,0.5,0.8,0.5,1.5,0.5c2.3,0,4.2-1,5.7-1.8c0.9-0.5,1.5,0.1,2.4-0.4
	c0.3-0.1,0.4-1,1.1-1c1.3,0,2,0.8,3.3,1.2c0,0.5-0.3,1.4-0.3,2.2c0,0.4-0.3,1.1,0,1.1c0.8,0,0.7,1,1.5,1.3c0.5-1.3,1.9-3.4,2.6-3.4
	c0.3,0,0.8,0,1.1-0.1c-0.1,0-1.1-1.6-1.1-2.1c0-0.4,0.3-1,0.7-1c1,0,0.9,2.2,3.2,2.2c0.9,0,1.5-0.8,2.2-1.6h1.1
	c0,0.3,0.3,0.6,0.5,0.6c0.4-1.8,1.4-2,3-3.1c-0.1,0.9-0.5,1-0.1,2.1c1.3-0.5,1.3-1.8,2.6-2.6c-0.2-0.8-0.6-1.3-0.6-2.5
	c0-1.7,1.2-2.5,1.2-3.7c0-1.4-0.3-5.5,0.8-5.9c0.3-0.1,0.7,0.1,1-0.3v-0.8c0-1.7,1.5-2,1.5-4.1c0-1.8-1.5-2.7-1.5-4.6
	c0-0.9,0.1-1.7-0.2-2.6c-0.1-0.4-0.5-0.7-1.3-0.7c-0.3,0-0.1,1.2,0.2,1.2c0.1,0,0.2,0.1,0.3,0.1c-1.3,1.3-1.2-0.4-1.4-0.4
	c-1.4,0-2.5,3.3-2.5,4.8c0,0.7,0.4,0.7,0.4,1.6c0,4.2-3.7,9.7-6,10.6c-1.3,0.5-1.5,1.8-3.2,1.8c-0.2,0-0.5-0.4-0.5-0.7
	c0-0.5,0.2-1,0.5-1.4C945.5,280.2,944.1,283.3,944,283.3z M956.3,254.1c-0.2,0.9-2,1.8-2,3.3c0,0.5,0.5,0.8,0.5,1.3v3h0.6
	c0.9-1,1.8-0.5,2.6-2c-0.4-0.5-2.1-0.5-2.1-1.8c0-2.2,1.8-0.9,3.3-0.9c0-0.4,0.4-0.9,0.8-1c1.9,1.4,3,1.7,4.7,3
	c0.9-1.6,1.6-4.6,3.9-4.6c1.6,0,2.4-0.4,3.4-1.2c-0.4-0.1-1.3-0.9-1.3-1.7c0-0.7,0.4-0.9,0.7-1.6c-0.7-0.5-1.4,0.3-2.3,0.3
	c-4.3,0-5.6-4.2-8.5-6.6c-0.2,0.4-0.7,0.8-0.7,1.7c0,0.5,0.6,0.8,0.6,1.3c0,1.7-0.8,6.8-2.6,6.8c-0.3,0-0.8,0.1-1.1,0l0.2,0.3
	c-0.3-0.3-0.6-0.4-0.8-0.6V254.1z M972,250.2c-0.2,0.4-0.3,1.2,0,1.2c1,0,2.3-1.9,2.7-2.7l-0.4-0.4
	C973.5,248.4,972.4,249.4,972,250.2z M974.2,248.1l0.2,0.2c0.1,0,0.1,0,0.2,0L974.2,248.1z M980.3,243.3c-1.3,0-2.4,2.9-2.4,2.9
	c0,0.1-0.1,0.7,0,0.7c1.5,0,1.5-2.6,4-2.6v-0.9C981.5,243.5,980.9,243.3,980.3,243.3z M985.4,242.2c0.9,0,1.8-1.8,1.9-2.6
	c-0.2,0-1.5,0-1.7,0.8c-0.1,0.4,0.2,1-0.1,1C985.2,241.4,985.2,242.2,985.4,242.2z M964.7,205.6c-0.4-1.7-1.3-3.4-1.3-6h-0.8v2.8
	c0,0.6-0.4,0.9-0.4,1.7c-1.6,0.4-2.3,3.9-2.3,6.7c0,2,1.7,2.7,1.7,4.7v7.7c0,1.6-0.6,2.1-0.6,4.1c0,1.6,0.7,1.8,0.7,3.7
	c0,2-0.4,3.5-0.4,5.9c0,0.6-0.3,3.8,0,3.8c1.3,0,1.3-2.9,2.6-2.9h1.1c0.1,0.5,0.7,1.4,1.1,1.3c0.1,0,0.3-0.1,0.3-0.1
	c-0.9-2.2-3.2-3.7-3.2-6.7c0-3.4,0.3-7.6,3.3-7.6c1,0,1.8,0.8,2.3,1.7c-0.6-3.1-2.1-5.8-3-9c-0.2-0.8-1-2.2-0.8-3.5v-3.1
	C964.3,208.8,965.1,207.5,964.7,205.6z M681.1,99.9c0,0,2.9-0.1,3.3,0c1.8,0.7,0.9,2.8,1.6,4.6c0.2,0.7,2,0,2.7,0
	c0.3,0,0.5,0.8,0.8,0.9h8.5c-0.1-0.3-0.2-0.4-0.4-0.6c-2.4-2.6-6-3.8-6-8.5c0-8.4,7.5-17.2,13.1-19c2-0.7,2.5-3.6,5.2-3.6
	c1.3,0,1.7-2.6,2.4-3c3.6-2.1,6.3-1,10.1-3.3c2.7-1.6,11.1-2.4,11.1-6.8c0-1.4-3.1-3.3-4.4-3.3c-5.5,0-10.6,7.5-16.4,7.5
	c-1.3,0-2-1.6-3.3-1.6c-2.1,0-2.1,1.6-3.5,1.6c-4,0-7.1,6.3-9.8,6.3c-1.6,0-2.7,0.9-4.4,0.9c-0.8,0-1.1,0.8-1.1,1.3
	c0,0.8,0.8,1.3,0.8,2.4c0,3.7-5.7,5.6-5.7,7.9c0,1,1.5,1.3,1.6,2.9c-1.7,0.5-5.2,1.4-5.2,3.7v2c0,2.4-3.3,2.1-3.3,5.2
	C679.1,98.9,681.1,99.9,681.1,99.9z M697.5,104.7c0,0,0.1,0.1,0.1,0.1c0.1,0.1,0.2,0.2,0.4,0.4L697.5,104.7z M1110,134.4
	c-2.9,1.2-4.7,0.9-6.6,3.5c-1.2,1.7-1.6,6.5-3.8,6.5c-4.9,0-10.6-11.1-17.4-11.1c-2.2,0-1.1,3.3-1.6,4.6c-1.3,3.1-7.6,2.2-7.6,7.9
	c0,2.1,12.9,9.4-3.3,9.8c-8.5,0.2-15.4,15.1-25.1,15.1c-3.3,0-11.4-12.2-20.2,10.5c-1.1,2.7,0,4.3,0,5.9c0,2.3-3.8,3.5-3.8,7.9
	c0,2.7-4.9,3.5-4.4,7.2c-4.5,1.3-6,8.5-8.2,12.4c-3.1-2.9-4.4-18.7-4.4-23.6c0-5.6,3.8-8.6,6.6-10.5c3.3-2.2,5.3-7.2,7.6-11.1
	c2-3.4,4.6-2.3,7.6-4.6c8.6-6.6,2.8-9.4,1.6-9.2c-11.9,17.6-11.1,6.3-9.3,4.6c-3.7-0.7-4.6,0-6.6,0c-7.5,0-10.8,5.1-12.6,13.8h-6
	c-2.7,0-4.8-2.6-9.3-2.6c-3.6,0-16.6,1.3-20.7,2.6c-4.7,1.6-9.2,8.4-12.6,12.4c-2.3,2.8-8.2,6.8-8.2,10.5c0,0.8,3.3,9.8,9.8,3.9
	c2.2-2,6.9,4.9,6.9,8.5c0,2.9-1.3,5.8-1.9,7.2c-1.7,3.6-0.4,6.1-1.2,9.9c-0.6,3.4-3.1,7.7-4.8,9.8c-4.4,5.2-10.2,21-16.5,21
	c-3.4,0-7.6-1.3-7.6-1.3l0,0c-2.6,2.5-3.5,4.6-4.9,8.1c-0.4,1-2.4,2.4-3.2,3.3c-0.9,1.1-2,2-3.3,2c-0.2,2.2,0.9,3.4,1.9,4.6
	c2.4,2.9,4,5.9,4,11c0,3-0.6,4.5-2.2,5c-0.7,0.3-3.4,0.4-3.4,1.6c-1.3,0.4-1.5,0.4-2.2,1.2h-1.6c0-0.7,0.5-1.1,0.7-1.7
	c-0.6-0.1-0.6-0.8-0.6-1.3c0-0.9,1-2.6,1-3c0-0.8-0.5-1.4-0.5-2.2c-0.7-0.1-0.9-0.6-1.1-0.9V282c0.9,0,1.7-0.8,1.7-1.7
	c0-1.6-1.6-2.6-2.9-2.6c-0.8,0-1.2,0.6-1.5,0.6c-0.8,0-1.1-1.6-1.1-2.2c0-1.6,1.2-1.4,1.2-2.7c0-1.6-0.5-1.6,0-2.9
	c-1.6,0-2.2-1.4-3.5-1.4c-3.5,0-6,3.9-9.1,3.9c0-2.4,2.1-3.3,2.1-5.4c0-0.8-1.2-2.5-2.1-2.5c-1.1,0-1.5,1.3-1.7,1.7
	c-0.9,1.7-3.4,3.7-4.7,4.8c-1.5,1.3-4.7,0.4-4.7,3.1c0,1.3,1.9,1.8,2.3,2.2c1.3,1.2,0.9,2.5,2.2,3.5c0.9,0.7,2,0.3,2.8,0.3
	c0.7,0,0.7-2.9,1.5-2.9c1.2,0,1.7,1,2.4,1.6c1.5,1.2,3.2-0.3,4,1.2c-2.2,2.6-6.9,2.6-7.8,6.2c-0.4,1.6-2.3,1.7-2.3,3.3
	c0,1.8,2.1,3.1,3,3.3c0,0.4,0.1,2.5,0.1,2.5h0.2l-0.1,0.1c1,0.7,1,2.2,1.3,2.9c2,3.5,3,5.6,3,11.3c0,3.8-1.6,5.1-1.6,8
	c-1.6,0.4-4.6,5.6-5.2,7.2c-1,2.5-1.7,7.3-4.4,7.3c-0.2,1.3-0.8,1.8-1.6,2.4c-3.1,2.1-4.3,5.8-9.3,5.8c-1.1,0-1.6-1.1-2.7-1.1
	c-0.2,0-1.3,2.5-1.3,2.5c-1.3,1.6-3.4,1-5.4,2.2c-0.9,0.5-3.1,0.9-3.8,1.8c-0.9,1-0.2,2.7-1.4,2.7c-1,0-0.6-2.6-0.5-3.3
	c-2.1-1.2-3.4-0.4-5.2-1.4c-2.2,4.1-7.5,5-7.5,10.6c0,1.2,0.5,1.4,1,1.9c2.5,3,3.6,6.4,6.3,8.5c2.6,2.1,4.4,7.9,4.4,12.2
	c0,3-1.3,4.2-1.3,6.6c-3.5,1-3.8,2.5-6.7,4.2c-1.3,0.8-1.1,2.9-2.4,2.9c-0.3,0-0.3-0.8-0.3-1.2v1.4c0,1.3-2.2,3.3-2.6,3.3
	c-0.4,0-0.9-1.8-0.9-2.6c0-1,0-1.6,0.4-1.8c-0.4-0.3-0.7-1.3-0.8-2c-1.6,0-3.8-0.6-3.8-2.6c-2.4,0-1.2-1.9-2.5-3.5
	c-1.5-1.8-3.1-2-4.8-2.6c-0.2,0-0.6-1.7-0.6-1.7c-0.3-1.4-1.6-1.7-2.8-1.7c-0.9,0-0.7,0.8-0.7,1.4c0,1.2,0.4,1.4,0.4,2.5
	c0,3.9-3.2,5-3.2,8.5c0,4.1,3.7,2.5,3.7,6.3h-0.2c0.4,0.9,0.5,3.3,1.3,4.2c2.9,3.5,9.4,4.3,9.4,10.9c0,1.3-0.4,1.3-0.4,2.5
	c0,2.3,1.6,3.1,2.1,4.7c0.4,1.7,0.4,2.4,1,3.8c-0.9,0.1-1,0.1-1.4,0.1c-0.3,0-0.4,0.5-0.8,0.5c-1.1,0-1.2-0.9-1.8-1.2
	c-3.4-1.3-6.4-5.2-7.6-9.6c-1-3.8-1.2-6.5-2.4-9.6c-0.8-1.8-1.5-6.5-3.3-6.5c-1.1,0-0.4,0.8-1.4,0c-0.2,0,0-0.5,0-0.8
	c0-1.8,0.2-3.1,0.5-5h0.2h0.3c-0.9-0.6,0-3.5,0-5c0-5.8-2.8-9.2-2.8-13.4c-1.4,0,0.4-3.9-0.6-5.9c-0.3-0.7-1.2-0.4-1.4-0.7
	c-0.6-0.8-0.3-1.3-1-2.1c-1.9,2.2-2.6,6-5.7,6c-1.6,0-1.7-1.6-1.7-3.3c0-1.7,0.5-2.5,0.5-3.9c0-0.6-0.5-1-0.7-1.7
	c-0.8-2.8-2.1-4.8-3.2-6.9c-1.5-1.4-2.7-2.5-3.6-4.2c-0.9-1.6-0.7-3.7-1.1-5.2c-0.4-1.8-2.3-2.6-3.9-3c0,3.9-3,4.7-5.9,4.7
	c-1.7,0-1.7-0.6-2.6-1.3c-0.8,2-3.1,2.1-3.4,3.3c-0.4,1.8-0.3,3.3-1.3,4.5c-2,2.4-5.1,3-6.9,5.1c-2.2,2.6-4.1,5.2-6.2,7.7
	c-0.9,1.1-2.1,2.6-2.8,2.9c-2,0.8-4.3,1.2-4.3,3.9c0,2.3,0.8,3.7,0.8,5.8c0,3.3-1.3,5.4-1.3,7.9l0.5,3.4l-0.5,0.1
	c0,0.4-0.8,0.4-1.1,0.5c-1.5,0.5-1.2,3.9-2.1,4.4c-1.3,0.8-1.5,0.3-2.1,1.6c-0.4,1-0.5,2.6-1.4,2.6c-0.9,0.1-1.5-0.4-1.6-1.3
	c-0.5,0-0.9-0.9-1-1.3c-0.9-3.2-2.1-5.8-2.8-8.5c-0.4-1.8-2-3.1-2.4-4.2c-0.9-2.1-0.3-3.8-1.2-5.4c-0.9-1.7-0.9-2.5-1.3-4.2
	c-0.5-2-2.5-6.3-3.3-9.2c-0.7-2.6-1.9-5.1-1.9-7.6c0-0.4-0.2-1.5-0.2-1.9l0.1,0.1c0-1.7,0.5-2.1,0.5-3.7c0-2.1-1.1-3.7-1.1-5.4
	c0-0.4,0.6-1.3,0.6-1.8h-0.9c-1.4,1.7-1.5,6.1-4.4,6.1c-3.4,0-4.7-4.1-6.3-6c1-0.8,1.7-0.1,2.7-0.5c0.9-0.3,1-1.4,1.4-2
	c-0.9-0.3-1.6-0.3-2.5-0.3c-2.2,0-5.3-2.6-6.4-4.6c-0.9-1.7-1.5-4.7-2.8-5.2c-1.2-0.4-2.1-0.1-3.3-0.1c-1.3,0-1.6,1-2.7,1l-2.8-0.9
	c-0.4,0.3-0.8,0.7-1,0.9l-3.8,0.3c0,0.1-0.4,0-0.5,0c-2.1,0-6.9-1.6-9.8-1.6c-0.6,0-3.7-1-3.8-1.2c-1.1-1.3-1.1-5.2-3.4-5.2
	c-1.2,0-1.6,1.2-2.3,2h-5.5c-1.7-0.7-2.6-2.4-3.7-3.7c-1.3-1.6-3.1-0.8-4.3-2.2c-0.6-0.8-0.3-1.8-0.5-2.4c-1.2-2.9-3.6-6.9-6.7-6.9
	c-1.5,0-2.2,2.4-2.2,4.2c0,1.3,0,2,0.2,3c0.7,3.1,3.7,8.8,6.2,9.4c0,1.4,0.6,1.8,0.7,3c1.3-0.4,1.1-2.1,2.2-2.4
	c0.1,0.5,0.1,0.9,0.1,1.4c0,1.6-0.8,2.6-0.8,4.2c0,1.8,2.8,2.8,4.5,2.8c7.3,0,7.9-5.4,11.8-8.9v4.8c1.5,3.8,3.6,4.5,6.8,5.6
	c1.2,0.4,1.3,2.6,2.1,3.1v-0.1c0.6,1.2,2.1,0.9,2.1,2.1c0,3-3.2,4-3.2,7.2c-1.6,0-2.7,0.5-3.2,2.1c-0.4,1.6-0.3,3.8-1.6,3.8
	c-1.6,0-1.5,3.8-3.2,3.8c-1,0-3,2.2-3,3.8c-3,0.7-9.6,2.1-9.6,5c0,0.4,0.2,0.9,0.4,1.2c-2.5,1.4-5.9,2.4-8.5,3.1
	c-1.3,0.4-5.7,4.1-7.1,4.9h-3.4c-1.9,1.6-2.2,2.7-4.4,2.7l-0.7,0.5c-0.3,0-3.1-1.6-3.4-1.8c-0.3-0.2,0.6-0.2-0.1-1.5
	c-1.1-2.1-1.9-4.2-1.9-6.7c-1.2-0.1-0.3-2.6-0.1-3.8c0.5-2.9-1.3-4.1-2.5-5.5c-1.3-1.6-4.3-6.1-4.3-9.2c-3.8-1-4.7-3.7-4.7-8.7
	c0-3-1.4-3.7-1.9-6.2c-0.5-0.5-1.1-1.3-1.4-1.7c-0.4-0.5-1.8-0.3-2.2-0.6c-0.7-0.8-0.4-2.8-0.7-3.5c-0.3-1.3-1.1-2.4-1.5-3.2
	c-1.3-2.3-2.4-4.3-3.6-6.5c-0.3-0.7-1.9-2.7-1.9-3.1c0-0.9,0.3-2.6,0.6-4.2c-0.5,1.9-1.6,5.2-2,6.5c-2.3-0.4-4.2-6.3-6-8.5v2.2
	l10.4,22c-0.6,2.7,2.7,8.5,4.4,10.1v6.9c1.1,3.5,3.3,3.5,4.9,6.2c2,3.1,0.8,6.6,2.7,8.9c1.7,2.1,2.9,2.2,4.9,3.9
	c1.7,1.6,2.7,7,6.3,7c0,2.2,1,2.6,0,4.1c1.4,1.3,2.8,5.5,4.7,5.5c1.8,0,1.9-1.7,3.3-2.2c1.6-0.7,2.7,0.3,4.4,0
	c4.1-0.8,8.1-2.7,12-3.9c0.3,0.8,0.8,1.2,0.8,2c0,7.5-4.9,17.2-7.6,21.6c-3.3,5.2-4.7,10-8.7,13.8c-7.2,6.8-14.9,8.9-17.7,20.6
	c-0.8,3.3-3.6,4.2-3.6,7.9c0,4.1,0.9,5.9,0.9,9.8c0,4.4,4.1,6.7,4.1,9.2c0,0.8-0.7,1.7-0.8,2v3.3c0,2.1-0.3,4.6-0.3,8.3
	c0.7,0.8,0.9,1.6,0.9,2.6c0,10.2-14.4,9-15.6,17.7c-1.5,0.3-3.3,2.5-3.3,3.9c0,2.9,3.1,4.8,3.1,8.8c0,2.1-0.2,6.4-0.9,7.6
	c-0.7,1-2.5,0.5-3.3,0.9c-2.6,1.6-4.1,2.9-5.5,6.2c1,0.6,1.6,1.6,1.6,2.7c0,3.7-3.1,6.5-4.3,8.1c-2.4,2.9-2.6,5.9-4.4,8.5
	c-2.7,4.2-3.9,7.8-8.4,10.5c-1.9,1-4.6,0-4.9,2.4c-1.4,0.1-2.3,0.9-3.3,0.9c-1.2,0-1.9-1.3-3.1-1.3c-4.6,0-7.3,3.9-11.5,3.9
	c-1.8,0-2.8-1.2-3.5-2.6c-0.7,0.1-0.9,0.5-1.1,0.7c0-2.6-1.1-5.5-2-6.6c0.9-1,1.4-2.1,1.4-3.5c0-2.1-3.1-6-3.6-7.2
	c-3.9-8-9-15.7-9-27.2v-3.5c0-1.8-1.3-2.5-2.2-4.3c-3.1-6.1-6.3-11.1-6.3-19.6c0-9.2,6.9-11.4,6.9-18.3c0-3.3-1.1-4.6-1.4-7.5
	c-0.8-5.6-1.6-7.6-2.7-10.9c-0.9-2.6-0.4-5.6-1.8-7.8c-2.8-4.3-9.1-8.9-9.1-15.1c0-1.4,1.7-4.7,2.5-5.2c-0.4-1.2,0-1.4,0-2
	c0-1.6,0-5.5,1.1-6.6c-1.2-2.9-3.2-5.5-6.9-5.5h-4.6c-3.3,0-4-7.6-8.5-7.6c-5.4,0-9.5,3-13.6,4.6c-1.6,0.6-2.2,2.4-3.8,2.4
	c-1.6,0-4.4-2-6.5-2c-4.2,0-6.1,2.6-10.4,2.6c-1.3,0-2.8-0.6-3.3-1c-3.1-2.8-9.4-7.2-11.7-11.4c-2.1-3.8-2.7-6.9-5.4-9.5
	c-0.8-0.7-6.5-6.8-6.5-7.3c-0.5-0.8-0.9-1-1.4-1.8h0.3c0-2-0.6-3-0.6-4.2c0-1.8-0.9-2.5-1.6-4.3c2.4-1.4,4.6-8.5,4.6-11.8
	c0-5.8-2.2-9.4-2.2-14.7c0-2.6,2.5-4.2,3.1-6.3c1.4-5.1,4.7-12,7.3-16.4c1.5-2.5,4.4-2.2,6.3-3.5c1.6-1.2,4.4-3.8,4.9-5.9
	c1.3-4.8-0.3-6.9,1.9-10.2c2.8-4.3,6.5-8.4,9.3-12.4h-0.2c0.9-1.3,1.1-2.5,2.2-3.5c2.7,2.4,5.6,3.3,9.3,3.3c2.3,0,2.7-1.6,4-2.3
	c4.3-2.5,12.3-6.2,17.2-6.2c1.5,0,2.9,1.3,3.8,1.3c1.2,0,3-2,4.6-2c1.4,0,2.1,0.9,3.3,0.9c2.2,0,2.3-2,4.4-2c2.1,0,1.5,2.4,3.3,2.4
	c0.7,0,1-0.6,1.6-0.8c-0.1,2-1.6,1.7-1.6,3.4c0,1.2,1.4,1.7,1.4,2.9c0,2-1.4,3-1.4,5c0,3.3,2.8,6.1,4.9,6.1h3.1
	c7.1,0,9.6,10.5,17.7,10.5c1,0,2.2-1.3,2.2-2v-2.6c0-4.2,2.6-4.2,6-5.5l0.3,0.3h2.4c0,1.8,1.2,2.2,1.6,3c1,1.6,3.5,0.5,5.2,1.3
	c3.5,1.6,8.4,3.5,12.2,3.5c3.5,0,4.6-2,8-2c2.1,0,3.3,1.7,5.7,1.7c1.6,0,1.6-0.7,3.1-1c0.1,0.3,0.2,0.6,0.4,0.9l-0.6-1.7
	c0-0.9,0.8-0.9,0.9-1.4c0.8-2.9,1.1-4.3,1.7-7c0.7-2.6,2.8-3.3,2.8-6.3c0-2.2-0.5-4.1-0.5-5.6c0-0.8,0.5-1.1,0.8-1.3v-1.3
	c-0.9,0.4-1.2,1.2-2.1,1.2c-1.1,0-1.7-0.5-2.2-1c-1.7,1.6-2.3,3.3-5.5,3.3c-2.3,0-3.2-3.3-5.5-3.3c-2.3,0-1.9,3-3.8,3
	c-2.1,0-3.2-3.5-5.2-2.4H606c0.3-0.1,0.8-0.5,0.9-0.8c-0.7-0.8-3.8-2.8-2.7-4.1c-1-1.7-2.2-1.6-3.7-2.5c1.1-1.3,2.3-1.1,2.3-3.5
	c0-0.9-0.2-0.9,0-1.6c-0.8,0-1.8,0.1-1.8-0.7c0-4,7.9-3.3,9.8-4.4c-0.2-1-0.9-0.7-0.9-1.6c0-1.2,2.1-0.7,2.6-0.7h3.4
	c1.3,0,3.3-1.7,4.5-2.6c1.4-1,4.5-1.2,6.3-1.2c3,0,2.8,2,5.4,2c0,1.6,4.2,2.5,5.5,2.6h6.2c2.2,0,3.5-2,5.5-3c0,0-0.1,0-0.1,0
	l-0.4,0.1c0-10.3-12.5-9-15.3-16.7c6.3-1.9,3.5-5.5,3.3-6.3c0.6-0.3,2-2.2,2-2.2c-3,1.3-10.9,4.8-10.9,5.9c0,1.6,1.4,2,1.9,2
	c0,0,2.8,0.5,3,0.5c-0.9,1.3-6.1,4.1-7.6,4.1c-1.5,0-6.5-9.8-8.5-9.8c-2.4,0-2.6,3.4-5,4.2c0.1,0.7,0,1.3,0.1,2
	c-1.1,0.3-2.3,0.9-2.3,2.2c-0.4,2.1-0.4,1.1-0.7,1.8v3.4c-1.1,1.3-3.1,3.9-3.1,5.8c0,2.6,2.9,4.4,3.6,5.6c-0.4,0.5-0.9,0.4-1.4,0.5
	c-1,0.4-1.7-0.1-2.7,0.4c-1.4,0.8-1.7,2.5-3.2,2.5c-1.6,0-2.6-2.6-4.6-2.6c-1.7,0-2.2,1.2-3.6,1.7c0.2,1.1,0.2,1.8,0,2.9
	c-1.6,0-1.8-2-2.8-2c-0.6,0-1.2,0.8-1.2,1.4l2.1,2.9c-0.1,0.8-0.4,1.2-0.4,1.6c0,0.4,3,3.7,3.8,3.7c0,0.4,0.2,0.9,0.4,1.2
	c-0.5,0.4-1.6-0.1-1.9,0.8h-0.2c-1.2-0.3-2.3-1.3-2.8-2v1.1c0.3,0.8,0.6,1.2,0.6,2.2c0,0.8-1.1,2.4,0,3h-1.5c-1.8,0-3.3-2.1-3.3-4.3
	c0-0.9,1.1-1.3,1.4-2h-1.9c-0.4,0-0.6-1.2-0.6-1.4c-0.4-1.8-1.3-3-2.3-4.2c-1.3-1.6-3.1-2.8-3.1-5.5v-3.4c0-1.8-2.4-4.6-3.9-5.5
	c-1.5-0.9-3.3-1.1-3.3-2.9h-1.5c-2.4,0-5.1-4.5-5.1-7.5h-3.3c-1.4,0-0.8-2.7-1.4-3.5c-1.2,0.9-3.6,0.9-3.6,2.4
	c0,0.3,0.3,0.8,0.6,0.8c-0.2,0.8-0.4,1.6-0.4,2.4c0,2,1,2.7,2.3,3.3c1.6,0.7,2.5,2.9,2.8,4.1c0.4,1.8,1.2,3.9,2.1,4.4
	c1.6,0.9,2.7,0.3,4.4,0.3c0,0.4,0,0.8-0.2,1c-0.4,1.6,2.2,2.3,2.8,2.6c2.2,1.3,4.8,2.4,4.5,5.1c-1.1-0.3-1.7-2-3.5-2
	c-1.3,0-2.4,0.8-2.4,2.1c0,1.7,2,2.1,2,3.8c0,0.7-1.4,0.7-1.4,0.7c-1,1.2-0.8,3.9-2.3,3.9c-0.8,0-1.2-0.4-1.2-0.9
	c1.3,0,1.8-2,1.8-3.5c0-2-0.9-2.5-1.1-3.7c-0.3,0-2.9-3.1-3-3.9c-0.4,0-2.1-0.6-2.1-1.3c-3.4-0.9-4.1-2.1-6-4.3
	c-0.8-0.9-2.4-1.4-2.6-2.4c-2-3-2.6-8.4-6.8-8.4c-2,0-2.1,1.7-3.1,2.2c-2.1,1.2-3.5,3.5-5.9,3.5c-2.4,0-3.9-1.4-6.1-1.4
	c-1.6,0-3.4,1.3-3.4,3.3l0.7,2.9c-0.7,2.6-3.1,3.5-5.4,4.2c-2,0.5-5.1,5.9-5.1,8.8c0,1,0.6,1.4,1.1,1.7c-1.4,2.6-2.1,4.2-4.4,5.5
	c-1.3,0.8-1.5,4.1-3.7,3.3v0.1c-1-0.4-2.8,0.3-3.4,0.3c-2.6,0-4,2.6-6.4,2.6c-1.6,0-1.7-4.8-4.2-4.8c-1.9,0-3,0.9-4.7,0.9
	c-0.6,0-0.9-0.6-0.9-1v-5.2c-0.9,0-1.7-0.8-1.7-1.8c0-1.7,1.2-2.1,1.2-3c0-3.3,1-6.7,1-10.1c0-2-1.2-3.8-1.2-5
	c0-0.8,3.7-3.5,4.4-3.5c0.4,0,1,0.8,1.6,0.5h4.9c0.4,0.5,1.3,0.7,1.9,0.8h5.2c1.3-0.4,2,0.5,3.1,0.5c0.8,0,2.4-0.6,2.7-0.6
	c0-2.6,1.4-3.4,1.4-5.9c0-0.5-0.1-2.8-0.1-3.6l-0.2,0.2c0.2-0.5,0.4-1.4,0.4-2c0-1.2-0.7-0.9-0.7-2c-2.2,0-2.8-2.4-2.8-4.4
	c-0.6-0.1-0.8-0.8-1.3-0.9c-1.7-0.7-6.5-1.7-6.5-3.7c-0.1,0-0.1-0.4-0.1-0.5c0-1.2,3-2,4.1-2.4c0.3,0.8,2.1,1.3,3,1.3
	c0.9,0,2.1-0.5,2.5-0.7v-0.9c-0.8-0.3-0.4-2.2-0.5-2.6v-1.1h1.1c0.9,1.1,2,1.7,3.3,1.7c0.9,0,1.6-0.9,1.9-2c3.3,0,4.1-2.9,4.8-6
	c0.7,0,1-0.1,1.5-0.3c0.7-0.3,5-2.3,5.4-2.9c0.9-1,0.5-2.6,0.5-4.2c0-0.5,1-1.3,1.1-1.4c1.5-1.8,3.1-3.9,5.6-3.9
	c1.4,0,0.8,0.4,1.5,0c0.3,0.4,0.7-0.6,0.9-0.9c0.8-0.9,1.7-0.1,2.7-0.1c0.7,0,2.4-1.2,2.4-2.2c0-0.7-0.8-3.2-0.8-3.3
	c-0.4-3.5-2.2-4.6-2.2-7.7c0-5.5,4.3-5.9,7-8.2v1.6c-0.5,1.3-0.7,2.1-0.7,3.4c0,1.3,1.2,1.4,2.1,1.4v1c0,0.6-1,0.9-1.3,1.3
	c-1.1,1.3-2.4,2.5-2.4,4.8c0,1.3,0.5,2.2,1.2,2.3c0,0.8,0.1,1.1,0,1.4c1.2,0,1.6,0.5,2.6,0.5c0.2,0.7,0.4,1.6,0.8,1.6
	c2.9,0,5-3,7.5-2.6c-0.1,0.7-0.7,1.1-0.7,1.4c0,0.3,1.9,1.8,1.9,1.8c1.2,0,1.3-0.9,1.9-1.2c1.8-1.1,3.3-0.7,4.9-1.6
	c1-0.5,2.7-2.5,4-2.5c1.4,0,2.9,0.1,3.7,0.5c-0.2,0.5-0.4,1.2-0.4,1.4c1.3,0,2.7-0.1,3.9-0.3c0.2-4.6,3.7-3.9,3.7-9
	c0-3.1,2.4-9.2,4.4-9.2c1.9,0,2.2,3.3,4.4,3.3c1.3,0,4.2-2.4-1.3-8.6c-1.7-1.9,3.8-4.5,6.2-4.5c2.4,0,3.6,0.9,5.5,0.9
	c1.4,0,4.7-1.8,6-2.9c-0.8-2.5-1.8-3.1-2.7-4.6c-1.1,2.6-6.1,3-8.2,2.6c-2.2,0.8-4.7,2-6.6,2c-1.4,0-2.4-0.3-2.4-1.7
	c-2.3,0-4.7-1.8-4.7-4.6c0-1.3,1.2-2.2,1.5-2.9c-1.1-0.5-2.1-3.5-2.1-5c0-0.9,0.2-1.7,0-2.6c4.6,0,7-7.2,9.8-9.2
	c1.5-1,4.1-1.7,4.1-3.9c0-3.3-3.6-3.9-6.3-3.9c-3.6,0-6.5,1.6-6.5,5.2c0,1.6,0.3,2.2,0,3c0,3-5,5.6-7.3,7.2
	c-1.9,1.3-3.8,1.8-4.9,4.2c-0.9,1.8,0.2,4.3-1.4,5.2v2.6c0.5,0.5,0.9,1.4,0.9,2.3c2,0.4,4.9,2.8,4.9,5.2c0,2-3.3,5.2-4.4,5.2
	c-2.2,0-3.1,3.8-3.1,6.5c0,1.6,1,2.1,1.6,2.2c-0.3,3.5-3,3.8-3.3,6.3H566c-1.9,0-2.5,4.2-5.2,4.2c-0.9,0-2.4-5.5-2.4-6.1
	c0-0.4,0.2-0.9,0.2-1.3c-1.8-2.2-1.6-4.1-2.4-6.9c-0.5-1.9-2.2-2.5-2.2-4.8c0-0.6,0.3-1.4,0.5-1.9c-1.2-0.8-1.5-1.9-2.2-3.1
	c-2.3,3.9-5.8,8.9-10.4,8.9c-0.7,0-4.9-3.1-4.9-3.7c0-1,1.4-1.7,1.9-2v-2c-1.5,0-1.5,0-2.8,0.6c0-0.9,1.2-2.5,1.8-3.4
	c-1.6-2.4-1.8-5.6-1.8-9.3c0-2,1.7-1.8,2.4-3c1.3-2.2,2.5-3.8,4.9-4.6c2-0.6,2.4-3.8,6.3-3.3c-1.2-0.4-1.6-0.7-2.6-0.9
	c4.8-1.5,6.7-6,9.9-9.2c1.3-1.2,1.1-5.2,2-5.2c0,0,1.1-2.9,1.1-3c1.3-2.6,2.8-4.5,5.1-5.5c2.3-1,5.3-5.5,5.9-8.3
	c-2.7,0.7-3.8,2.4-6.4,2.4c0.6-0.9,1.8-1.6,2.2-1.8c-0.5,0-1.6-0.4-1.6-0.4c0.2-1.3,0.8-2.1,1.6-2.1c0.3,0,0.6,0.4,0.9,0.4
	c0.3-0.8,0.7-1.3,1-1.7c0.5,0.8,0.6,1.4,0.3,2.4c1.7,0,2.2,1.3,3.6,1.3c0.5,0,1.8-3.1,2-3.3c-0.8-0.3-0.8-0.4-1.7-0.3
	c0.5-1,1.4-2.1,2.5-2.1c0.8,0,1.4,0.3,2.2-0.3c-0.5-0.7-0.4-0.5-0.9-1c1.1-1.3,3-1.2,4.7-1.6v1.6c1.4-0.4,1.8-3.4,4-3.5v2.2
	c1.4-3.1,3.3-2.4,5.2-3.7c-0.9-0.4-1.6-0.7-1.6-1.6c0-0.6,2-1.2,2.3-2c0.7,0.9,1.3,2,2.3,2c1.6,0,5.8-3.3,5.8-1.6
	c0,1.8-1.9,2.4-2.3,4.2c2.2,0.3,2.8-2.7,4.7-3.9c0.4,0.9,0.4,1.6,0.6,2.4c1.5-1.8,2.4-2.4,4.1-3.7c0.1,1.7-0.1,2.9,1.1,3
	c0.3-1,0.8-2,1.6-2c0.5,0,2.9,1.6,3.8,2.1c-1,3.2-1.9,2.1-4.4,3.2c1.1,1,1.8,1.2,1.8,2c1,0.1,3.3,0.5,3.6,0.5
	c2.5-0.4,2.6,0.1,2.9,0.1c3.6,0,15.4,7.1,20.7,9.2c18.6,7.1,6.4,16.3,0.3,14.3c-4.5-1.4-7.1-1.3-11.8-1.3c2.2,3.8,1.4,11.8,7.6,12.5
	v-5.2c12.6,6.5,11.1-6,14.2-7.2c3.1-1.2,8.7,2,8.7-2.6c0-2.3-1.9-2.8-1.6-3.9c4.7-17.4,7.1-5.9,5.5-0.7c-0.5,1.5,1.4,2.6,2.7,2.6
	c4,0,20.4-17.5,22.9-9.8c5,2.9,11.9-2.6,15.3-2.6c2,0,5.5,8.1,6-2c0-0.9-4.8-7,10.2-2.3c5.4,1.7,19.9,14.4,13.8,3
	c-2.6-3.1-4.9-7.1-4.9-13.1c0-5,8.9-14.2,13.6-13.1c9.3,2.2,3.3,4.1,3.3,8.5c0,4.1,1.2,23.8,5.8,23.8c3.6,0-3.2-9.7-0.9-12.7
	c3.4-4.3-1.3-8.1-2.2-11.8c2.8-1.8,5.1-3.7,5.7-7.9c1.5,2.4,0.9,14.3,7.4,3.9c7.6,0,8.5,1.8,10.9,0c-0.4-2.1-1.6-3.7-1.6-5.2
	c0-7.5,13.5-5.9,17.1-5.9c2.5,0,3-5.4,4.7-7.2c8-8.6,23.3-9.8,26.9-11.1c-1.2,6.2,12.9-0.6,15.1-2.6c2.9-2.8,5.2-7.9,10.9-7.9
	c4.7,0,7.1,3.5,8.2,7.2h11.5c27.1,7.8-5.9,18.5-9.3,23.6c0,0-3.2,8.8,11.1-5.2c2.4,4.7,21.3,7.3,24.9,8.5h12c0-4.1,1.6-5.5,4.4-5.2
	c22.4,2.2,13.6,8.9,13.6,9.8c0,3.7,2,10.5,6.5,10.5c1.7,0,2.4-4.1,2.7-5.9c3.6,0.3,4,3.3,7.1,3.3h17.4c0.7-5.1,1.9-10.5,10.4-10.5
	c8.5,0,15.7,2,22.4,4.6c3.2,1.2,3.3,4.3,5.5,6.6c2.4,2.5,8.5,0.7,12.5,0.7c7.4,0,11.1,2.4,12.5,9.2l25.1,0.6
	c2.1-0.1,10.5,12.7,7.1,0c-0.5-1.7,2-2.6,5.5-2.6c12.7,0,24.1,6.4,32.7,12.4C1093.3,124.6,1106.1,128.1,1110,134.4z M628.1,312.5
	l-0.1-0.2c0,0.1,0,0.2,0,0.3C628.1,312.6,628.1,312.6,628.1,312.5z M669.9,273.1c-0.4,0.8,0.9,0.9,1.4,1.9c0.9,1.6-0.1,2.6,0.5,4.2
	c0.5,1.4,2,0.6,3.2,0.9c1,0.3,1.2,1.6,1.9,2.4c0.9,1,3.6,0.8,5,0.8c1.9,0,3.8-0.4,5.1-0.8v-2.3c-0.1-0.1-1.1-1.6-1.1-2.8
	c0-1.2,0.8-1.6,0.8-3c0-2.5-1.5-5.1-3.8-5.5c0.2-2,1.2-3.3,2.2-3.3h3.3c0-2-1.7-3-1.8-5c-0.8,0.2-2.8,1.5-3.7,2
	c0-5.1-2.9-6.8-5-11.1c-0.7-1.4-2.4-1.3-2.5-3.9c0.3,0.1,4.7-3.3,7.6-3.3c2,0,4.1,1.5,5.8-0.1c-2.2-3.9-3.2-7.3-9.1-7.3
	c-3.6,0-5.3,0.9-8.2,2.2c-0.3,0.1-3.6,2.4-4.1,2c-0.6,0.8-2.6,5.6-2.6,6.3c0,2,2.4,3.9,2.4,5.2c0,4.5,4.5,12.3,7.4,14.3
	c-1.7,1-1.7,4.2-3,6.3C671.5,273.1,670.3,272.3,669.9,273.1z M826.4,387.7c-0.1,0.4-0.3,0.8-0.5,1.3h0
	C826.1,388.5,826.2,388.1,826.4,387.7z M828.1,382.8c-0.6,1.6-1,2.8-1.4,4C827.1,385.6,827.5,384.4,828.1,382.8z M829,381.4
	c0-0.4-0.2-1.7-0.6-3.1C828.7,379.7,829,381,829,381.4c0,0.3-0.1,0.5-0.3,0.7C828.8,381.9,829,381.7,829,381.4z M1075.4,102.6
	c1.2,0,9.8-0.6,9.8-2.4c0-2-4.1-3.3-5.8-3.3c-1.9,0-5.1,2.4-5.1,4.3C1074.3,101.9,1074.8,102.6,1075.4,102.6z M1044.5,110.7
	c0.5,0,1.1-0.7,1.1-1.3c0-0.8-0.7-1.1-0.8-1.6h-3.6C1041.9,109.4,1043,110.7,1044.5,110.7z M940.7,69.2c0.8,0,0.9-1,1.1-1.7l0,0l0,0
	c0-0.1,0-0.2,0-0.2h-0.2l-0.9-1.1c-0.4,0.7-0.9,1.2-0.9,2C939.8,68.9,940.2,69.2,940.7,69.2z M868.9,75.7c-1.1,0-2.4,0.7-2.4,2
	c0,1.2,1.2,1.6,2.4,1.6c0.9,0,1.6-0.3,2.3-0.8c0.1-0.2,0.2-0.5,0.2-0.8C871.4,76.1,870.4,75.7,868.9,75.7z M871.4,78.3
	c-0.1,0.1-0.2,0.1-0.2,0.1c-0.2,0.3-0.5,0.6-0.6,0.8L871.4,78.3z M828,48.5c0,1.3,0.3,2,1.6,2l5.8-2c0,0,3.4-0.7,3.8-0.7
	c2,0.4,7.6-0.1,7.6-3.3c0-1.8-4.5-5.2-6-5.2c-0.8,0-1.2,1-2,1.3c0.9-1,0.3-1,0.3-2.9h-1.4c-4.4,0-5.3,4.8-7.8,7.9
	C829.3,46.4,828,46.4,828,48.5z M801.6,32.7c0,1.2,1.5,3.3,2.2,3.3c1.3,0,4.9-0.3,5.1-2.6c-0.8-0.3-3.8-2-4.4-2
	C803.9,31.4,801.6,31.4,801.6,32.7z M816.5,32.4c-3.5,1.3-4.6,2.7-8.2,4.2c1.6,1,4.5,4.7,5.8,4.7c3.9,0,7.4,2.4,12.2,2.4
	c1,0,2.2-0.8,2.2-2c0-0.9-0.9-1.3-1.6-1.6c0.7-0.3,2.2-0.4,2.2-1.7c0-1.3-0.2-1.6,0.9-2.6c-1.4-1.7-1.4-2.6-3.6-2.6h-2.2
	c-1.3,0-2-1.3-3.3-1.3c-0.9,0-1.2-0.4-2.3,0c0.9-0.5,2.1-1.6,2.1-2.4c0-0.7,0.1-1,0-2.6c0.4,0.1,0.2,0.4,1.3-0.1
	c-1.8-1.6-3.5-5.1-6.6-5.1c-5.2,0-6.9,6.2-11.5,7.7c2.8,1.7,4.9,2.8,8,2.8C812.6,32.1,815.5,32.4,816.5,32.4z M816.3,58.9
	c1.3,0,2-0.8,2.2-2.6h-1.6c-0.4,0.4-1,0.9-1.6,1.3C815.4,58.3,815.8,58.9,816.3,58.9z M803.2,23.3l-0.3-1h-4
	C799.5,24,801.6,23.6,803.2,23.3z M852.5,49.5c0.8,0,1.3-1,1.4-2c-1,0.5-1.3-0.1-3.6,0.4C850.7,48.6,851.2,49.5,852.5,49.5z
	 M675.3,29.5c-0.3,0.3-0.5,0.4-0.8,0.5v0.5L675.3,29.5z M663.8,26.9c1,0,1.5,0.8,2.5,1.2c-0.5,0.5-1.1,0.8-1.6,1.2
	c0.4,0.1,1,0.3,2,0.3c-0.9,0.3-1.4,0.5-2.3,1.1c0.3,1.2,1.4,1.6,3.1,1.6h-0.1c0.3,0.5,0.6,1.2,1.2,1.3c1,0.1,1.2-2.2,2.2-2.9
	c1.5-1,2.4,0.2,3.8-0.5v-0.8c0.3,0.1,0.8,0.1,1.1,0c1.3-1.2,2.7,0,2.9-2.4c-0.6-0.3-2-1.3-3.3-1.3c-1.6,0-2.4,1.7-4,1.7
	c-2.1,0-3.6-1.7-6.3-1.7c-2.3,0-7.4,0.4-8.4,2.5c0.9,0.1,1.5,0.5,2.4,0.5C660.6,28.6,662.6,26.9,663.8,26.9z M715.6,26.2
	c0.8,0,5-1,5.8-1.7l-1.5-4.2c-1.6,0-6.1,2.1-6.1,3.9C713.8,25.5,714.3,26.2,715.6,26.2z M709.6,29.5l-0.5-1.6c1,0,2.1,0.5,2.7-0.7
	c0-0.5,0.1-0.8,0-2c-1,0.3-2.8,0.1-3.5,0c0.2,0,0.9-0.4,1.1-1.1h-3.6c0,0.3-0.1,0.7,0,1.7c-1.3,0.5-2.2,1.6-2.2,3.5
	C703.6,30.1,709,29.9,709.6,29.5z M698.2,29.2c-1.1,0-5.5,0.8-5.5,2.6c0,0.5,0.5,0.9,1.1,0.9c1,0,1.4,0,1.6-1.3
	c0.7,0,1.5,1.3,2.2,1.3c1.5,0,1.4-2,3.6-2C700.7,29.9,699.6,29.2,698.2,29.2z M697.6,26.6c1.2,0,2.4,0.3,3.3-0.5
	c-2.4-1.2-3.2-1.4-6.2-2c1.1-1.3,3.3-2.1,5-3.4c0-0.7,0.5-1.3,1-1.7c0-0.4-0.1-1.6-0.3-1.6c-1,0-1.7,1.1-1.8,2.2
	c-3.2,0-3.3,2.6-6.5,2.6V24c1.1-0.8,0.6-0.3,1.8,0.3h-4.6c-0.6,0.5-0.8,0.8-1.4,1.4c0.2,0.1,4.7,2.5,5.5,2.5
	C694.6,28.2,696.3,26.6,697.6,26.6z M555.3,41c0.3,0,0.5,0.4,0.9,0.5c-0.4,2.1,1.2,3.1,3.1,4.3c-0.3,0-0.5,0.1-0.9,0.3
	c0.5,1.3,1.7,2.1,3.5,2.1c2.3,0,2.3-2.9,3.3-3.5h0.9c0.4,0.4,1.4,1.2,1.6,1.2h2.8c-1.2,1.2-4.1,2.7-5.6,3.3
	c-0.6,0.1-3.1,0.1-3.1,1.3c0,3.1,2.8,1.7,4.2,1.7c0.8,0,4.2,0.1,4.9,0.7c-1.3,0.4-2.5,0-3.6,1.1c0,0-2.5-0.4-4-0.1
	c0,4.5,5.9,6.1,8.5,8.2c1.5-1.8,1.3-5.5,3.2-7.2c0.5-0.5,1.4-0.3,1.6-1c1.1-3.4,2.3-9.2,6-9.2c0,0,0.9,1.7,2.6,2
	c-0.5,0-1,0.1-1.5,0.3c0.4,1,1.4,3.4,2.2,3.7c-0.2,2-1.4,1.3-1.6,3.7c1.4,0.1,3.7,0,5,0.3c-0.3,0.7-0.3,1.3-0.1,2.4
	c2.7-1.1,3.9-3.3,6.9-4.4c-1-1.7-4.1-0.7-4.1-4.7h-3.5c0.3-0.5,0.2-1.3,0-2c-0.8,0.1-1.1,0.3-2,0c0.3,0,0.8,0,1.1-0.1
	c-1.1-1.6-6.9-5.5-8.7-5.5c-0.3,0-0.8-0.1-1.1-0.1c0.2-1,0.4-3.1-1.3-3.1c-0.9,0-1.1,1.2-2,1.7c0-0.9,0.3-1.7,0.3-2.6
	c0-1.3-2.9-2.6-4.4-2.6c-1.4,0-2.2,0-2.2,1.9c0,2.5,0.6,3.7,1.3,5.8c-2.7-1.2-2-5.8-4.9-5.8c-1,0-1.8,1-1.8,2.2
	c0,0.8,0.3,1.4,0.8,1.7c-0.8-0.9-1.8-0.9-2.9-2c0.3-0.7,0.8-1.1,1.3-1.8c-2.5-0.5-3.7-0.5-5.5-0.5c-1.1,0-3.4,2.5-3.8,3.1
	C553.3,38.8,554.5,41,555.3,41z M576.9,33.9c-0.2,3,2,1.4,3.8,1.4c0.2,0,4.7,0.4,5.1,0.4c-0.5,0.3-1.8,0.3-2.7,0.6
	c-0.2,0-1.4,0-2.2,0.1c0.1,1,0.4,1.7,1.4,2.1h6.2c0.8,1.6,1.9,2.4,3.8,2.4c3.2,0,8.6-4.6,11.2-6.7c-0.6-1.6-2.7-3.5-4.9-3.5h-3.6
	c-1.6,0-2.3,1.3-3.3,1.3c-0.2-0.9,0-1.6,0-3.3h-1.3c-0.5,0.5-1.4,3-2.7,3c-0.6,0-3.7-1.8-4.4-2.6h-3l0.5,1.3h-1.8v0.6
	c-0.7,0.4-1.5,0.1-2.2-0.4h-1.6C575.3,32.1,576,33.2,576.9,33.9z M556.3,48.2c-0.7-2.8-2.2-3.4-3.6-5.4
	C551,44,554.2,47.6,556.3,48.2z M552.9,42.6c-0.1,0-0.1,0.1-0.2,0.2l0.2,0.2V42.6z M552.5,42.6c0,0.1,0.1,0.1,0.1,0.2c0,0,0,0,0,0
	L552.5,42.6z M489.2,212.8c0,1.6,1.4,3,2.7,3c0.7,0,1.5-0.1,2.1-0.5c0.9-0.7,2.2-2.9,3.9-2.9c1.1,0,2.2,0.1,2.8-0.7
	c0.9-1.1,0.1-2.6,0.1-3.7v-4.4c0-1,2-0.9,2-2c0-2.2-1.2-5.4-3.7-5.4h-1.9c-1.1,0-3.3,1.6-3.3,2.5c0,0.6,0.2,0.9,0.7,1.7
	c-0.7,0.8-2.5,1.4-3.2,1.4c-0.3,0-1.2-0.3-1.2,1.4c0,1.3,1,2.1,2.1,2.7C491.9,209.3,489.2,209.6,489.2,212.8z M499,182.7
	c1.2,0,2.1-1.6,2.1-3c-0.9,0-2.7,0.6-2.7,1.4C498.3,181.7,498.6,182.7,499,182.7z M502.5,186.5v1c0,0.1-0.8,1-0.8,1.7
	c0,0.5,1,0.9,1.6,1.1v1.2c-0.3,0.3-0.4,0.5-0.4,0.9v2.1h0.9c-0.2-0.5-0.5-0.9,0-2c0.3,0.3,1,0.7,1.9,0.7c-0.3,1,0,1.3,0,2.5
	c0,1-1.1,1.7-1.1,2.8c0,1,0.8,1,1.7,1c0.9,0,1.4-0.6,2.5-0.6c0.3,0,0.6,0.1,1,0.1c-0.2,0.5-0.8,0.8-0.8,1.8c0,1.3,1.5,1.6,2.6,1.4v2
	c-0.5,1.3-3,2.5-4.9,2.5c0,1.4,0.9,2.1,0.9,3.8c0,2-3.1,2.1-3.1,4.1c0,0.3,0.3,0.7,0.5,0.7c0.5,0,0.4-0.7,1.1-0.7
	c1.2,0,1.6,1.6,3,1.6c0.8,0,1.5-0.5,2-1.3c0,0.3,0.2,0.7,0.2,0.9c0,1.8-2.2,1.2-3.7,1.7c-0.3,0.1-3.6,4.3-3.8,4.8v0.8h0.8
	c0.4-0.5,0.8-1,1.5-1h1.5c0-1.1,0.6-2.2,1.7-2.2c0.8,0,1.2,0.8,2,0.8c1.6,0,4.6-1.2,5.7-1.2h4.4c1.3,0,2.1-0.8,3.1-2v-0.9
	c-0.6,0-1.1-0.1-2.2-0.5c0.9-1.7,3.5-2.9,3.5-5.2c0-1.3-1-2.5-2.3-2.5c-0.9,0-0.7-0.1-1.4,0.5l0.5-0.5c-0.4,0.3-0.5,0.7-1.3,0.9
	v-0.9c0.3-0.1,0.5-0.5,0.5-0.9c0-1-1.2-1.7-1.2-2.8c0-3.1-2.8-4.1-4.6-6.1c-1.3-1.6-1-4.7-3.1-5.5c-0.9-0.3-1.4,0.3-2.5-0.1
	c0.1-0.5,0.5-0.9,0.9-1c0-2.8,3.4-4.3,2.9-8h-6.4c-0.2-0.4-0.3-0.6-0.3-1c0.3-1.8,2.7-1.6,2.7-3.4c0-0.3-0.7-1.2-1.1-1.2h-3.2
	c-0.7,0-1.8,1-1.8,1.7c0,0.7-0.4,1.2-0.4,2.2c-0.8,0-1.5,0.5-1.5,1.6c0,0.3,0.3,0.7,0.5,0.8c0,0.3-0.2,0.8-0.4,0.8
	c-0.2,0-0.8-0.4-0.8-1.2H500C500,185.7,500.8,186.1,502.5,186.5z M506.2,201.3c-0.7,0.4-0.8,0.9-0.8,1.6h1.2c0-0.7,0.1-1.2,0.1-1.6
	H506.2z M951.1,74.4c1.1,0,1.6-1.2,2.4-2c0.6,0.8,1,1.3,2,1.3c1.1,0,1.7-1,2.4-1c0.9,0,1.3-0.9,2.2-0.9c0.8,0,1.2,1.3,2,1.3
	c1.3,0,1.8-1.3,2.7-1.3h2.9c0-1,1.5-2.5,2-4.3c-2.3-0.8-8.7-3.5-10.7-3.5c-1.3,0-1.8,1.6-1.8,3.5c-3,0-3.2-4.2-6.6-4.2
	c-2.3,0-4.9,2.2-4.9,5.2C945.6,71.7,948.2,74.4,951.1,74.4z M567.1,277.9c-1.6-0.4-2.3,0.9-3.7,0.9c-1.5,0-2.5-1.7-4.8-0.4v0.9
	c0.3,0.6,1.2,0.5,1.5,0.6c1.8,0.7,3.2,2.9,5,3.4c0,0.4,0.6,0.5,0.9,0.5c0.3,0,0.7-0.5,0.7-0.9c0-1-0.6-1.2-0.6-2.1
	c0-0.5,0.6-1.4,0.6-1.4L567.1,277.9z M548.6,263.3c0.3-0.8,0.7-3.7,1-5.2c-0.3-0.1-0.4-0.8-0.4-1.4c-0.5,0.1-1,1.3-1.7,1.3
	c-0.2,0-0.6,0.3-0.8,0.3C547.2,259.2,547.5,263,548.6,263.3z M547,268.6c0,0.9-0.5,1.6-0.6,2.6c0,1.1,0,2.7,1.1,2.7
	c0.9,0,2.9-1.8,2.9-3.7c0-2.1,0.3-3.3-0.7-5.4c-0.3,0-0.7-0.8-1.4-0.8c-1,0-1.1,1.3-2.3,1.7C546,266.9,547,267.6,547,268.6z
	 M530.6,271.5c0-0.4-0.5-1.2-0.5-1.4c-0.7,0.1-1.1,0.5-1.7,0.9c0.1,0.1,1,1.2,1.4,1.2C530.1,272.2,530.6,271.9,530.6,271.5z
	 M553.7,197.4c0-1.3-0.8-1.1-0.8-2.6h-2.1v1.3c0,1.3,1.2,1.7,2.5,1.7v1C553.5,198.2,553.7,198.4,553.7,197.4z M555,198.7l-0.2-0.5
	c-0.1,0.1-0.4,0.4-0.6,0.7c0.1,0.1,0.8,0.8,1.5,0.8c2.4,0,1.5-4.6,3.4-5.2c-0.5-2.2-0.7-3.4-2.8-3.4c-0.8,0-2.1,3.4-2.1,3.9
	c0,0.8,1.2,1.8,2.3,2.1C556.6,197.6,555.8,198.6,555,198.7z M578.5,181.4c-1.9,0.1-2.5,2.5-2.5,3.3c0,0.7-0.3,1.2,0,1.7
	c0.8-1.2,1.6-1.8,1.6-3.3C577.6,182.4,578.3,181.9,578.5,181.4z M588.3,180.8c0.4,0,1.8-0.9,1.8-1.3v-1.6c0.2-0.1,0.8-1,0.9-1.7
	c-0.4-0.3-0.7-0.5-1.2-1.3c0,0-1,0.7-1,1.3c0,0.7,0.4,1.1,0.8,1.6c-0.9,0.1-1.5,0.9-2.4,1C587.2,179.6,587.3,180.8,588.3,180.8z
	 M600.9,290.5c-1.9-0.7-4.5-1.3-6.9-0.8c1.2,0.8,3.3,1,4.1,1C598.9,290.8,599.5,291.4,600.9,290.5z M626.6,288.1
	c-1.9,0.4-4.7,1.7-6.3,2.6c0,0.3,0.3,0.7,0.5,0.7c0,0.4,0.4,0.7,0.8,0.7c1,0,3.1-0.7,3.4-1.4c0.1-0.4-0.1-1.2,0.2-1.3
	C625.9,288.9,626.4,289.5,626.6,288.1z M686.2,382.1c0.9,0,1.7-1.1,2-1.6c-1.4,0-2.2,0.3-3.2,0.7
	C685.1,381.8,685.9,382.1,686.2,382.1z M669.6,113.3c-0.2,0-1.4,2.5-1.4,3c0,1.3,0.6,1.6,2,1.6c1.9,0,3.2-1.3,4.6-2.2v-1.7
	c-1.5-0.3-2.3-2-3.8-2C670.4,112,670.2,113.3,669.6,113.3z M700.9,107.8c0,1.6,2.4,3.3,3.8,3.3c0,0,1.4,0.3,1.4-0.7
	C706.2,107.8,700.9,105.2,700.9,107.8z M741,86.7c-1.1-1-1.4-2.5-2.7-2.5c-1,0-1.6,1.4-1.6,2.6c0,0.4-0.3,1.3,0,1.3
	C738,88.1,740.5,87.2,741,86.7z M962.2,85.5h3.3c-0.1-3-2.3-5.2-5.1-5.2c-2.5,0-3.9,1.8-5.2,3.9l0.6-0.6
	C957.7,84.5,960.2,84.2,962.2,85.5z M983.8,74c1.8,0,4.9-0.5,4.9-2c0-0.7-0.4-1.3-1.1-1.3c-0.4,0-11.9-1.7-12.9-2.6l1.1,1
	C975.8,72.4,981,74,983.8,74z M957.8,78.6c0-1.8-2.9-2.1-2.9,0c0,1.2,0.1,1.7,1.3,1.7C957,80.3,957.8,79.6,957.8,78.6z M477.9,141.3
	l0.2-0.3c0-3.7-4-2.7-4-6.5c0-0.4,0.3-0.9,0.7-1.2c-1,0-1.6,0.7-2.6,0.7c-1.1,0-2-0.1-2-1.7c-0.4,0.4-0.4,0.3-1.2,0
	c-0.2,0.5-0.4,0.9-0.4,2c-1-1.2-2.3,0.4-3.7,0.4c-1,0-1.9-0.4-3.5-0.4c0,0.4-0.1,0.9,0,1.3c-0.4-0.2-0.7-0.7-1.5-0.9l-2.6,0.8
	c-0.7,0-1-0.7-1.4-1.2c-0.3,0.5-0.2,0.8,0,1.7c-0.5,0.1-1.2,0.8-2,0.8c-0.8,0-1.8-1.7-1.6-2.6c-0.1-0.8-0.6-1.2-0.7-2h-0.9
	c-0.9,0-1.1,1.4-2,1.4v1c-0.7-0.4-1.2-0.6-2.2-0.3c0.2,1.4,4.2,2.9,5.6,2.9c0,0.4,0.1,0.8,0.4,1c-1.2,0.5-4,1.2-5.7,1.2
	c1.1,1.3,3,0,4.7,0.5c-0.2,1.4-0.5,2.2-0.5,3.9c-0.3,0-0.6,0.4-1,0.7c2.4,0,3.3,1.8,4.8,2.4c2.9,1.2,5.8,2.4,9.8,2.4
	c3.7,0,5.8-2.2,8.4-3.3C474.4,145.5,477.1,143.2,477.9,141.3z M289.7,352.3c-0.8-0.4-1.3-2.2-2.5-2.6l-1.6-0.1c-0.1-0.2,0-0.6,0-0.9
	c-2.5,0-5.2-1.4-6.8-3.3c-0.2-0.3-1.1-1.6-1.9-1.6c-3.6,0-5.9-3.3-10.7-3.3c-4.9,0-7.2,2.2-8.9,5.8h1c1.1-1.3,4-3.1,6.1-3.1
	c0.5,0,1.1-0.1,1.5,0.4c-0.3,0.4-0.4,0.9,0.2,1.4h3.2c1.5,0,2.3,1.9,3.8,1.9c0.9,0,1.4-0.4,2.3,0.1c0.4,0.3,0.3,1.2,1.2,1.2
	c0.3,2,2.1,1.8,3.7,2.8c-0.1,0.6-0.5,1.2-1.1,1.2v0.8c2.1,0,3.8,0.9,6.3,0.9C286.9,353.9,289,353.9,289.7,352.3z M262.8,345.5v0.9
	c-0.3,0-1,0.3-1,1.2c0,0.3,1.4,0,1.5,0c0.2-0.7,0.1-1.3,0-2l-0.3-0.1H262.8z M278.1,359.5c0,1.1,0.9,2,1.7,2c1.3,0,2.3-0.5,3.6-0.8
	c-0.1-0.5-0.3-0.9-1-1.2l0.2,0.3c-0.7-0.3-2.2-1.1-3.5-1.1C278.7,358.7,278.1,359,278.1,359.5z M312.4,359.3c0,1.3,1.4,1.4,2.7,1.4
	c0.7,0,1.4,0,1.8-0.8c-0.3-0.8-2.9-1.5-3.3-1.5C313.3,358.5,312.4,358.6,312.4,359.3z M290,358.7c0,0.8,0.7,2,1.3,2.1
	c0-0.4,0.1-0.6,0.1-1c0.5,0.4,0.5,0,1.3,0c1.3,0,3.9-0.4,4.9,0.4c0.5,0.4,0.3,1.7,1.3,1.7c1.2,0,1.1-2.3,2.5-2.3
	c0.5,0,0.4,0.7,1.1,0.7c0.8,0,1.2-0.5,2-1.1h4c-0.8-1.3-1.8-1.8-2.9-2.9l0.5,0.5c-2-1.2-2.6-3.4-6.1-3.4c-1.2,0-1.9,0.5-3.3,0.5
	c-1,0-1.6-0.9-2.6-0.9c-0.3,0-0.9,0.5-0.9,0.9c0,0.8,0.8,1.4,1.4,1.4c0,1,0.1,2,0.8,2.7c-1.3,0.8-2.4,0.1-4.9,0.1
	C290.4,358.3,290.2,358.7,290,358.7z M329.3,391.3c0,0.4,0.7,0,1,0c0.6,0,1.1-1.2,1.3-1.7v-0.9h-1C330,388.7,329.3,390,329.3,391.3z
	 M365.5,428.3c-1.3,0-2.2,1.3-2.2,3.3c0,1.2,2.8,3.5,4.5,3.5c1.3,0,2.9-3,2.9-4.2c0-0.3-0.3-1.2-0.8-1.2c-0.5,0-1.5,1.4-1.8-0.3
	c-0.9,0-1.6-0.7-2.3-1.2C365.9,428.4,365.6,428.3,365.5,428.3z M291.8,604.3h1v-3.9c0.1-0.4,0.4-0.7,0.4-1.5c0-1-0.3-2.1-1.3-2.1
	c-0.7,0-1.3,3.9-1.3,3.9v1.7C290.6,603,291.2,604.2,291.8,604.3z M138,228.6L138,228.6L138,228.6L138,228.6z M413.2,454.1
	c0,9.7-4.4,12.3-7.4,17.6c-0.7,1.2-1.1,1.5-1.8,2.7c-1.1,2-2.3,2.2-3.4,3.5c-1.6,2,0,6.2,0,9.3c0,2.4-0.7,4.6-0.7,6.2
	c0,0.6-0.4,1.2-0.5,1.6c-0.4,0.7-1.4,2-1.4,3c0,1.3-0.3,3.9-0.5,4.4c-1.6,3-2.2,4.3-3.8,6.9c-0.4,0.8-0.3,2.4-0.6,2.9
	c-0.6,1.6-2.9,3.4-4.8,3.4c-2.1,0-3.7-0.1-5.3,0.8c-0.7,0.4-0.8,1.1-1.1,1.4c-2.6,3.1-5.4,1.3-7.3,5c-0.9,1.7-2.3,1.7-3.2,2.8
	c-1.4,1.7-1.2,3.6-1.2,6v6.1c-2.2,1.3-3.3,3.5-4.4,6.3v-0.1c-0.8,1.7-0.7,2.6-1.5,4.3c-2,3.5-4.1,3.9-6,7.3c-2.2,3.9-3,10.5-8,10.5
	c-1.7,0-4.2-1.4-4.9-1.4c-1.5,0-2.9-1.6-4.6-1.6c-0.3,0-0.9,0.3-0.9,0.7c0,1.2,1.6,1.8,2,2.2c0.9,1.1,0.9,2.5,1.3,4.1
	c0.3,1.5,2.1,1.5,2.1,2.9c0,1.6,0,2.5-0.5,3.5c-1,1.8-1.8,2.7-2.8,4c-1.9,2.2-4.1,1.6-6.8,2.6c-1.7,0.6-5.3-0.8-6.3,0.4
	c-1.4,1.7-0.3,5.6-1.1,7.5v1.3c0,0.6-1.7,1.6-2.5,1.6c-2.3,0-2.7-1.8-4.9-1.8c-0.8,0-1.1,0.9-1.1,1.6c0,1.8,1.3,5.2,2.3,5.2
	c0.6,0,1.2-0.8,1.5-0.9c0.4,0.5,1,0.7,1,1.3c0,0.8-0.9,1.7-1.1,1.7c-1.3,0-1.7-1.2-2.8-1.2c0,1.4,0.7,1.7,1.2,2c-2,2.3-2,4.7-2.6,8
	c-0.2,1.4-2.2,1.6-2.9,1.7c-1.7,0.5-3.3,2.3-3.3,4.6c0,5.1,4.9,3.3,4.9,7.4c0,3.7-2.7,4.1-4.2,5.9c-0.9,1.1-0.5,2.7-1.2,4.5
	c-0.8,1.8-2.5,1-3.5,2.2c-1.3,1.6-1.9,3.4-1.9,5.9c0,1.3,1,2.9,1.6,3c2,1.3,1.9,7.4,3.3,9c2.4,2.9,5.3,4.1,8.3,5.8
	c-0.4,0.8-1.1,0.4-1.7,0.4c-1.6,0-4.4,2.5-5.3,2.5h-1.2c-0.3,0-0.8,0.5-1.1,0.5h-3.1c-2.5,0-1.6-3.5-3.4-4.2c-1.6-0.6-4-0.6-4-3
	h-2.1c-0.9,0-1.1-1.1-1.2-1.7c-3.1,0-3.9-1.8-5.3-3.5c-0.3-0.4-1-1.1-1-1.3c0-1.2,2-1,2.1-2.2c-0.3-0.1-0.5-0.4-0.9-0.7
	c0.3-0.7,0.8-1.4,0.8-2.2c0-3.1-2.9-2.6-2.9-5.4v-1.8c0-2.9-1.6-7.5-1.6-9.7c0-2.3,2.5-3.3,2.5-5.4c0-1-1.3-3.1-1.5-4.6V616h0.1
	c0-0.8,0.4-1.4,1-1.4c2,0,1.2,2.4,2.8,2.4l3.6-19.4v-2c-0.3,0-0.7-0.1-1,0c-0.8,0.4-0.9,1.4-1.6,1.4c-0.9,0-1.5-3-1.5-4.5
	c0-2.5,0.8-3.5,1.1-5.9c0.8,0,1.1-0.4,1.1-0.8c0-0.8-0.6-1.4-0.6-1.4c-0.4,0-0.5-3.7-0.5-4.6c0-3,1.5-6,2.5-7.9
	c0.4-0.9,0.7-2.8,1.2-3.7c0.3-0.5,0.9-0.4,1-0.9c0.8-3,0.8-5.2,1.4-8.4l-0.1-9.8c-0.6-2.4,0.5-4.2,0.5-6.3c0-5,2.5-8.3,2.5-12.7V529
	c0-0.9,0.5-3.3,0.8-4.6v-5.7c0-1.8,1-5.4,1-7.5c0-1.3-0.5-9-0.9-10.5c-1-3.1-2.7-5.1-4.7-6.3c-1.6-0.9-2.8-0.7-4-2.1
	c-1.3-1.6-2-2.1-3.5-2.6c-3.1-1.2-4.6-3-6.5-5.4c-0.9-1-0.4-2.5-0.4-4.1c0-2.1-1.6-3.1-2.1-5c-0.9-3.2-3.1-5.5-3.8-8.4
	c-0.8-3-1.4-4.7-2.4-7.2c-0.3-0.8-1.1-0.5-1.4-0.9c-0.8-0.9-1-2.7-1.3-3.7c-0.3-0.8-1.2-0.5-1.6-1c-1.2-1.4-2.7-4.1-2.7-6.4
	c0-1.6,0.8-3.4,1.2-3.9c1-2,3-2.5,3.4-4.6c-1-0.8-0.9-0.1-1.6-0.1c-1.5,0-1.7-2.6-1.7-4.4c0-3,2.8-2.5,2.3-8.3
	c2.9,0,3.7-3.5,4.6-5.6c1.2-2.9,4-2,4.7-5.5c-0.5-0.3-1.1-0.9-1.1-1.3l0.4-1v-0.7c0-1-0.7-1.8-0.7-2.9c0-1.6,0.6-2.1,0.6-3.4
	c0-2.8-2-2.4-2-4.7c0-0.3,0.1-0.6,0.2-0.8c-0.1,0.1-0.2,0.2-0.3,0.1c-0.2-0.3-1.2-0.6-1.2-1c0-0.5,0.4-0.8,0.7-1.3
	c-1.2-0.7-1.5-2.4-2.7-2.4c-0.8,0-3.8,2.6-3.8,3.4c0,0.5,0.7,1.1,0.9,1.2c-0.2,1.3-0.8,2-1.6,2c-1.7,0-2.8-2.5-3.7-3.5
	c-0.8-0.9-2.5-0.1-3.3-0.1c-0.2,0-0.5-0.5-0.5-0.8c-1.5-0.4-1.5-1.7-2-2.8c-0.3-0.8-4-3.5-4.1-3.5c-0.2,0.4-0.2,0.9,0,1.2h-1.1
	c-1.6-1.3-0.6-3.1-1.1-5.1c-0.3-1.3-0.9-1.6-1.4-2.2c-1.8-2.1-3.6-3.3-4.3-6.4h-0.7c-0.8,0-1.3,0.7-2.1,0.7c-2.1,0-3.2-1.4-4.6-2.2
	c-2.1-1.2-3.6-0.5-5.8-1.8c-3.4-2-3.8-5-6.8-6.7h-0.7c-0.9-0.6-1.5-1-2.4-1c-2,0-2.3,2.6-4.1,2.6c-0.9,0-1.7-0.9-2.2-1.2
	c-0.9-0.5-1.6-0.3-2.5-0.3c-1.3,0-5-3.1-6.1-3.8c-1.2-0.7-2,0.1-3.2-0.3c-1.5-0.5-1.9-2.1-3.4-3c-1.4-0.8-2.2-0.5-3.6-1.3
	c-0.7-0.4-0.9-0.5-1.2-0.9c-1.3-1.6-4.7-2.5-5-4.2c-1,0-1.6-1.4-1.6-2.6c0-1.4,1.1-2.2,1.1-3.7c0-1.7-0.9-2.1-1.1-3
	c-1.3-4.7-5-8.5-7.4-11.4c-1.1-1.3-2.8-1.8-3.9-3.2c-0.9-1-0.1-2.3-0.7-3.8c-1-2.3-4.4-2.6-4.4-5.8c-1-0.3-0.9-0.4-1.2,0
	c-1.4-1.7-2.5-3.1-3.7-4.6c-1-1.2-0.6-3.4-1.6-4.6c-1-1.2-0.8-4.1-1.6-4.6c-1.8-1.1-3.6-0.9-5-2.6c-0.3,0.5-0.2,1.3-0.2,1.7
	c0,2.7,1.1,4.4,2,6.7c0.8,2,2.2,2,3.3,3.3c1.5,1.8,1.7,3.1,2.3,5.4c0.8,3,2.9,4.5,3.7,7.2c0.9,3.1,1.5,6.6,3.5,8.1
	c0.9-1,2.2,1.2,2.2,2.2c0,0.7-0.4,2-0.8,2c-0.2,0-1.7-2.3-1.8-2.8c-2,0-3-3.1-4.2-4c-0.6-0.5-0.8-0.5-1.1-1.2V331
	c-1.2-1.4-2.1-2.9-3.2-4.2c-1.5-1.8-3.9-1.5-5-3.4c0.5,0,3.1,0.5,2.2-1.2c-1.6-2.8-3.4-5.6-5.3-7c-1.3-1-1.2-4.6-1.9-6.2
	c-1-2.4-2-3.1-2.7-6.2v-0.9h0.2c-1.6-3.9-7.2-6.7-11.1-8.5c-0.9-0.4-0.5-1.8-0.9-2.9c-1.5-4.6-4.6-6.2-4-11.5
	c-2.3-0.4-4.7-6.2-6.5-10.1c-0.5-1.1,0.4-2,1.1-2.5c-1.2-2.9,0-7.7-1.1-11c-1-3.2,1.8-10.6,1.8-14.7c0-2.9-2.7-4.1-2.7-6.9
	c0-0.8,1.2-0.9,1.6-0.9c1.6,0,2.6,1,3.2,2.2c0.5-0.8,1.5-2.4,1.5-3.5c0-1.3-1-1.7-1.4-3l0,0l0,0c-0.4-0.3-1-0.5-1.2-0.8
	c-1.1-1.3-3.8-1.6-4.1-2.9c-0.9-3.4-4.7-1.7-5.2-4.3c-3.7,0-3.9-3.5-4.7-6.5c-0.1-0.4-2.9-2.5-2.9-2.5c-1.3-1-0.1-2.8-1.1-3.9
	c-0.7-0.8-1.5-0.8-2.4-1c-1.5-0.5-1.1-4.1-1.1-5.8c0-0.8-0.6-1.2-0.6-1.8c0-0.9,1.5-1.2,1.5-2.6c0-2.5-1.5-3.3-2.6-4.3
	c1,1,2.6,1.8,2.6,4.3c0,1.4-1.5,1.7-1.5,2.6c-0.5,0-0.5,0.1-1.1,0.1c-1.9,0-4.6-2.5-4.6-3.9v-2c0-2-1.3-2-3.3-2c-1.5,0-2-1.2-2-2
	c0-1,1.6-1.2,1.6-2.2v-1.7c-2.1,0.1-1.5,1.7-3,1.7c-0.4,0-1.6-1.2-1.6-2c0-1.6,0.8-2.1,1.1-2.8c-0.5-0.7-1.5-1.8-2-0.9
	c-1.6,0-2.4-0.9-3.3-1.9c-0.3,1-0.8,2.3-1.6,2.3c-2.3,0-3.8-3.8-5.1-5c-2.8-2.5-6.5-2.4-9.8-4.6h-6c-3.6-1.4-8.4-2-10.2-6.6
	c-1.3,0.7-3.5,1.3-4.5,2c0.3,0.9,0.5,1.3,1.1,1.8c-1.4,2.6-8.4,7.3-10.9,7.3c-0.4,0-1.1-0.4-1.1-0.9c0-0.8,0.7-0.9,0.9-1.1
	c-0.5-0.9-0.1-0.9-0.1-1.6c0-2.9,1.6-5.1,4.8-6.3c0-0.4,0.1-0.9,0.1-1.3h-1.3c-2.6,0-9.8,7.2-9.8,11.5v2c0,3-2.4,4.1-4.9,5.2
	c-1.4,0.7-1.9,2-2.7,3.3c-1.6,2.5-5.3,3.8-7.1,5.9c-1.6,2-5.6,3.4-8.7,3.9c-3.9,0.8-6.1,6.3-10.7,4.7c1.3-2.5,3.4-1.4,5.2-2.8
	c1.3-0.9,2.3-3.5,3.5-4.3c1.8-1.3,3.9,0,5.2-2c1.8-2.9,6.1-5.1,8.7-7.2c2.5-2,2.5-5.9,5.1-7.9h-1.6c-1.6,0.8-2.4,1.7-4,1.7
	c-1.3,0-1.9-0.6-3-1c-0.3,1-0.7,1.4-0.8,2.4c-2.6-1.2-3.4-2-5.2-3.7c-0.2,0.8-0.1,1.4-0.1,2h-1.3c-0.7,0-1.2,1-1.7,1
	c-0.7,0-1.1-2.2-1.1-3.3v-2.6c0-0.4,0.1-2-0.9-2c-0.9,0-1.7,2.2-2.2,2.2c-1.4,0-6.5-4.8-7.3-6c0.5,0,1.1-0.4,1.6-0.4
	c-0.9-2.9-4.4-3.5-4.4-5.6c0-3.9,5.9-7.2,8.2-7.2c1,0,8.4-3.5,8.4-5.2c0-0.9-1.7-2.8-1.9-3.1c1.1-0.8,0.9-0.7,1.6-0.1v-2
	c-1-0.1-1,0-1.6,0c-1.7,0-2.4,2.2-4.7,2.2c-2.2,0-3-1.3-4.6-0.9H4.4c-0.1-2-1.4-2.5-1.4-3.7c0-0.4,0.2-0.9,0.3-1.3
	c-1.8,0-2.7-0.8-3.3-2.1c2.7-2,7.2-3.7,9.8-5.7h2c0,4.2,1.8,3,4,3c1.5,0,1.7,0.4,3,0c-1.1-4.2-3.4-4.5-6.5-6.3
	c-0.9-0.5-2.2-4.4-3.3-5.2c-1.3-0.9-5.8-2-5.8-2.9c0,0,1.5-3.3,1.6-3.7h6c3.3-5.2,8.2-10.2,14-12.4c1.5-0.5,2.5,0.4,4-0.3
	c1.7-0.8,2.8-3.7,4.7-3.7c1.4,0,2,1.4,3.4,2c-0.5,0.8-0.7,1-1,1.7c1.1,0.3,2.2-0.6,2.7-1.7c1.2,0.5,1.5,0.9,2.5,1.3h5.4
	c1.3,1,1.7,1.7,3.3,2.6h8.4c2.2,2.6,8.9,3.3,12.3,3.3c2,0,3.2-0.9,5.1-0.9c3.2,0,4.2,1.6,6.9,2.6l0-0.1c1.1,0.3,0.5,0.5,1.3,0
	c0,0.4,1.3,1.6,1.5,1.7c4.5,3.3,9.4,3.9,12.1,3.9c1,0-3.9-3.1,3.2-3.4c1,0,0.5-4.1,3.4-0.9c1,1.1,3.8-1.4,5-1.7
	c3.1-1.4,4.3-1.7,7.6-2.6c0.3,1,1.1,1.8,2,1.8c2.3,0,1.5-3.8,3.7-3.8c0.7,0,3.6,5.9,5.7,5.9c2.2,0,2.2-2.9,4.3-3.4
	c0.2,1,1.4,3.5,2.6,3.5c1.7,0,2.6-1.7,4.7-1.7c6.7,0,9.9,6.5,16.6,5.9c6.2-0.6,5.7-1.4,8.7,3.7c-0.7,0.8-4,0.3-4,1.5
	c0,0.4,0,2.3,4.3,2.1c2.4-0.1,3.8-1.2,6-1.2h7l1.6,0.9c1.9,1,2.3,4.3,4.5,4.3c0.5,0-0.7-3-0.7-3.9c0-4.5,5.6-0.9,5.1-5.2
	c-1.3,1-4.2,2.1-5.9,2.1c-0.9,0-1.4-0.5-1.4-1.4c0-2.9,6.5-3,8.5-3.7c1.4,5.4,8.3,7.9,14.2,7.9c6.2,0,7.4-0.3,9.3,0
	c0-2.8,0.8-4.2,2.7-4.2c1.6,0,4.6,0.9,4.9,1.6c0.9,1.4-1.9,5.7,1.6,4.6c0-6.4,7.2-3.8,5.8-9.2c-0.9,0.5-1.5,0.8-2.3,1.3
	c0,0,0.9-3.1,0.9-3.9c0-4.4-7.4-1.8-7.4-6.2c0-1.8,1.4-1.7,1.4-3c0-1.3-0.9-2-0.9-3.3c0-2,1.7-1.6,3-2c-0.1-1.3-1-2.9,1.1-2.9
	c4.3,0.1,6.7,2.7,6.8,6.8c0.1,1.9,3.3,1.8,3.3,4.3c0,1.7-2,2.6-2.7,3.1c1.3,2,3.7,0.7,5.5,2c-0.5,0.5-0.8,0.9-1.1,1.6
	c2.3,1.3,2.5,2.9,2.5,5.1c3.4,0,1.2-5.6,4.4-5.6c0.9,0,4,3.7,4,4.6c0,2-1.8,1.6-1.8,3.3c0,1.4,3.2,7.5,5.7,3.8
	c1.6-2.4,1.3-4.2,2.1-6.4c0.5-1.3,3.1-1.3,3.1-2.6c0-1.2-1.6-1.8-1.6-3.5c0-1.6,1.4-2.6,2.7-2.6c1,0,1.7,0.8,2.7,0.9
	c4.5,0,3.6,3.3,7.1,3.3c0,2.2,0.4,2.1,0,3.3c-3.4,2-2,4.1-2,5c0,0.8,2.5,2.1,2.5,3.3c0,1.7-5.6,7.5-6.3,6.2
	c-1.3-2.5-1.9-0.1-1.3,0.7c-2,0-2.6,1.1-3.6,1.1c-1.5,0-2.4-2.6-4.8-2.6c-0.9,0,0.8,2.4,0.8,2.9c0,1.6-3.2,4.3-4.9,4.3
	c-2.1,0-3.5-2-4.9-3h-2c1.6,3.9,5.3,3.3,9.1,4.3v2c-1.7,1.6-3.2,4.8-5.8,4.8h-2.4c-1.3,0,0.1,3.6-2.2,2.8c-8.9-3.3-5.6-0.6-6.5-1
	c1.5,1,5.7,1.2,5.7,3.2c0,3.1-3.3,1.8-5.1,2.6c-0.9,0.4-2.7,5.5-3.6,6.5c-2.5,3-3.8,6.2-3.8,11.4c0,3.8,0.4,4.3,0,5.9
	c1.1-0.3,1.6-1.3,2.7-1.3c2.4,0,4.1,7.3,4.1,10.5c1.6,0,2.4-2,4-2c1.5,0,4,2.2,4.9,2.6c4.8,2.2,9.4,4.3,13.4,7.9h7.1
	c3.1,2.3,2.4,5.6,2.4,9.8c0,3.8,3.8,7.9,6.5,10.5c1,1,2-1.6,3.3-1.6c0.1-1.4,1.5-2.3,2-3.1c-1.5-2.2,0-9.4-3.8-11.7
	c2.2-0.5,8.7-6.4,8.7-8.8c0-8.6-3.8-10.3-6.3-15.4c1.4-0.7,4.5-1.6,4.1-5.5c-0.2-2-3.6-4.8-2.2-5.9c3.5-2.7-0.3-4.6-0.3-5.9
	c0-2.3,1.6-3.3,3.3-3.3c3.1,0,5,2.2,8.2,2.2c1.6,0,1.6-1.3,3-1.3c3,0,3.7,4.5,6.8,5c0,4.9,5.9,2.2,6.3,5.9c0.3,2.7,1.1,9.2,2.9,9.2
	c1.3,0,1.6,2.9,3.6,2.9c2.7,0,6.2-4.8,6.2-6.8c0-1.8,1.7-3,2.5-3.7c0.4,0.5,1.5,1.7,1.9,1.7c0.3,3.5,5,4.2,3.8,7.2
	c-0.9,2.4,2.6,5.1,3.6,5.5c-0.2,1.3,0.8,2.4,0.8,3.7c0,1.6-1.1,2-1.6,2.4c1.4,1.3,2.8,3.1,5.2,3.1v0.4c0,4.4,5.6,5.9,8.2,5.5
	c0.1,0.6,1,0.8,0.9,1.5c-0.7,2.5-6.7,3.5-8.9,4.9c0.1,0.3,0.8,0.5,1.1,0.5c2.6,0,7.8-2.2,10.4-3.9v1.6c1.3,0.7,0,2,0.9,2
	c1,2,1.9,3.3,1.9,6.3c0,4.2-8.8,4.8-10.4,7.2c-3.2,5-6.2,2.9-11.7,2.9c-4.1,0-6.5-0.9-10.7,0.7c-2.3,0.9-1.2,2.1-2.7,3.9
	c-2.4,2.9-4.7,1.7-6.1,5.2c3.3-0.5,5.5-4.6,10.2-4.6c2.3,0,5.7-0.5,5.7,2c0,2.6-3.9,3.3-4.6,4.3c1,0,2.2,0.4,2.7,0.4
	c-0.2,1.3-1.1,2.4-1.1,3.1c0,3.3,5,7,8.2,7c0.7,0,3.5,0.1,3.5,1.6c0,1.1-7.5,4.5-8,4.6c-2.2,0.8-4.2,4.3-5.1,4.3
	c-0.6,0-2.2-2.1-2.2-3.3c0-2.9,3.9-5,6.4-5.2c-1.7,0-1.6-0.1-1.6-2c-1.6,0.1-1.6,1.8-2.6,2.6c-1,0.8-3.7,0.3-4.4,0.3
	c-0.3,0-0.9,0.1-1.1,0v0.4l0,0.3c0.1,0.3,0.3,0.7,0.5,1c-0.8,1.4-2,2.2-3.5,2.2c-1.3,0-1.4-0.6-2.5,0c-1.7,2.1-5.5,3.6-5.5,8.5
	c0,0.4,0.1,1,0.4,1.2c0,0.6,0.4,2.4,1.1,2.4c0.2,0,1.2-0.9,1.2-0.9v0.9c-1.3,0.4-3.2,0.9-3.6,0.4c-2.2,2-5.9,1.2-8.1,2.9h1.1
	c1,0,2-0.7,2.7,0c-1.5,0.7-2.6,0.7-4.1,0.7c-0.3,0-0.7-0.1-1-0.1c-0.3,0.1-0.7,0.5-0.7,0.9c0,0.7,1,1.6,1,1.6
	c-0.2,1-2.3,5.6-3.1,5.6c-0.3,0-0.5-0.8-0.8-1l-0.5,0.6c0.2,1.1,1,1.5,1,2.5c0,0.8-2.2,5.4-2.5,5.4c-0.2,0-0.4-0.5-0.4-0.8V280
	c0-0.9-1-3-1.2-4.3c-0.2,0.7-0.1,1.7-0.1,1.7c0,0.9,0.6,3.3,0.6,4.6c0,1.3-0.7,1.2,0,2h0.8v1.3c0,1-0.9,1.6-1.4,1.6
	c0.4,0.9,0.9,1,1.5,1.1c-0.2,1.4-0.7,1.3-1.7,1.3v1l1.3,0.9c-0.3,0.5-0.7,1.3-1.3,1.4c-1.3,0.3-1.9,1.3-2.7,1.6
	c-1.3,0.5-1.2,0.9-1.9,1.7l0.3,0.3c-5.1,3.5-11.6,5.9-11.6,15.5c0,4.3,3.1,5.6,3.1,9.8v0.7c0.3,1.6,1.3,2.9,1.3,5.3
	c0,2.7-0.5,5.2-2.4,5.2c-1.6,0-1.5-2.1-2.2-3.3c-1.3-2.1-2.4-2.7-3.3-4.8c-1.8-4.2-0.4-12.2-5.2-12.2c-1,0-1.4,1.7-2.4,1.7
	c-2,0-3.2-3-5.8-3c-1.5,0-1.8,1.1-2.7,1.1c-0.3,0-0.8-0.6-0.8-1.1c-1.7,0.5-4,0.3-5.9,1.1c1.1,0.4,0.9,0.4,1.5,0
	c-0.1,2-1.1,3.1,0.2,4.2c-3.1,1.8-5.7-2.6-7.9-2.6c-0.7,0-1,1-1.6,1c-1.2,0-1.9-1.3-3.1-1.3c-3.2,0-4.7,3.3-6,4.9
	c-0.9,1.1-1.9,0.1-2.9,0.7c-2.4,1-3.8,4.6-3.8,8.5c0,0.4,0.5,0.9,0.5,1.3c-0.1,0-0.2,0-0.3,0l0.1,0.3c0.2,0.8,0.4,1.3,0.4,2.1
	c0,2.4-0.8,3.3-1.1,5.2v7.3c-0.2,1.1,0.7,2.1,0.9,2.6c0.4,1.2-0.1,2,0.3,3.1c0.4,1.1,1.9,2.9,2.6,3.8c2,2.4,2,4.6,4.8,5.6
	c1,0.4,1,1.6,1.8,1.6c2.1,0,3.8-1.9,6-1.9c1.2,0,1.6,0.8,2.1,0.8c0.9,0,1.4-1.6,1.5-2.1c0.4-1.6,2.3-3.3,2.3-5.2
	c0-3.8,3.6-5.1,6.5-5.1c1,0,1.7,0.1,2.2,0.4c0.4,0.1,1.9,0.3,2.5,0.3v1.2c0,1.8-1.9,4.2-1.9,6.7c0,2.1-0.7,3-1.3,4.3v-0.9h-0.9v6.3
	c0,1.3-1.3,1.8-2,2.6v0.7c0,0.9,0.7,1.4,1.3,1.4c3.6,0,6.5-0.8,10.4-0.8c2.6,0,3.3,2.3,5.2,2.8v2c0,1.2-0.1,4.5-0.8,5.8v8
	c0,2.9,2.3,4.1,4,5.1c1.2,0.7,1.2,3.1,3.1,3.1c2.8,0,4.3-2.6,6.9-2.6c3,0,4.4,2.6,6.1,4.2c0,0.1-0.3,0.5-0.7,1
	c0.3-0.3,0.6-0.6,0.8-0.9c0.9,0.3,0.5,0.3,1.3,0v-0.8c0-0.3,0.4-0.7,0.7-0.7c0-1.3,1.1-1.7,1.7-2.2c0.7-0.5,0.8-2.2,1-3.3
	c0.5-2.1,1.5-2.5,2.9-3c2.6-1,4.4-1.6,7.1-2.6c1.4-0.5,1.7-2.5,3.2-2.5c0.5,0,1,1.4,1,1.6c0,1-0.7,1.6-1.1,1.6c-0.3,2-1,4.2-1,5.4
	c0,1.4,0.6,4,1.8,4c0.4,0,1-1.6,1-2.1c0-1.6-1.3-2.5-1.3-4.1c0-2,1.7-1.7,2.7-2.5h2.6c-0.4-1.6-2.1-0.9-2.1-2.5l1.9,0
	c0.4,2.1,2.9,2.8,4.5,3.3c0,1.3,0.7,2.2,1.3,2.3h5.9c0,1.2,1.3,1.4,2.2,1.4c1.6-0.3,2.7-0.3,3.4-1.8c0.1-0.4,2.4-0.4,2.7-0.7
	c1.1,0,3.1,0.4,3.1,0.4c-0.4,0.4-1.3,0.5-1.6,0.3v1.1c0.8,1.8,3.1,2.2,4.7,2.9c1.4,0.5,1.1,2.5,1.5,4.2h3.1c2.1,2.5,3.1,2.1,4.4,5.4
	c0.2,0.5,1.1,0.8,1.6,0.8c0.8,3.7,5.3,3.3,8.3,3.9h2.8c0.8,0.4,2.5,1.4,3.6,1.4v0.3h0.6c1.8,0,4,4.3,5.9,4.9c0,1.6,1.4,5.7,2,7.2
	c0.5,1.3,2,1.3,2,2.6c-1.7,2.6-4.9,3.9-4.9,7.9c0,1.3,1,1.2,1.5,1.4c1.1,0.7,1.6,1.7,1.9,3h2.6c0,0.4,0.2,1.4,0.5,1.4
	c0.4,0,0.9-0.9,1.2-1.6c1.1-2.1,2.4-4.9,4.1-4.9c2,0,5.9,2.5,7.3,3.5c0.9,0.7,1.9,0.4,2.1,1.4c0.3,1.2,0.2,2.1,0.2,3.3h0.8
	c1-0.5,1.4-1.4,2.4-1.4c2.3,0,2.7,2.1,4.9,2.1l4.1-0.7c2.1,0.5,3.9,1.5,5.1,2.1c1,2,4.4,5.6,6.1,6.3c1.5,0.5,2.5-0.3,4,0.2
	C412.7,448.6,413.2,451.3,413.2,454.1z M272.3,255.7c0,0.4,0.4,0.7,0.6,1.1c-0.1-0.3-0.2-0.6-0.4-0.8c0.8,0,0.8-0.1,1.3-0.1
	c3.2,0,10.1,1.3,10.2-3.7c0,0,0.1-0.1,0.2-0.2c-0.1,0.1-0.2,0.2-0.2,0.2c-2.7,0-7.9,1.6-10.3,2.5C273.4,254.8,272.3,255,272.3,255.7
	z M271.9,260.1c0.7-0.4,1.3-0.8,1.7-1l0,0C273.1,259.3,272.6,259.7,271.9,260.1z M269.2,259.6c-1.5,0-3.2-0.1-4.1,1
	c-0.4,0.5-0.5,1.3-1.5,1.3c-0.7,0-1.3-0.9-1.6-1.6c0,1.3,0.4,3.3,1.5,3.3c2.2,0,5.9-2,8.4-3.5C271.3,260.5,270.7,259.6,269.2,259.6z
	 M242.2,232.8c-1,0-5.7,3.8-8.2,7.6h1.6c0.8-0.4,1.2-0.8,2-0.9c0.4,1.2,0.8,1.3,1.6,1.3c1.9,0,2-1.7,2.9-1.7c1.2,0,3.2-2.5,4.8-2.9
	c0,1.8-0.8,2.2-1.2,3.3h2.2c0.1,0.9,1.1,1.6,1.9,1.6c1.4,0,1.9-1.3,3.1-1.3c2.6,0,3.9,1.7,6.2,1.7v1.6c-1.6,0.7-4,0-4.9,0
	c-2.4,0-6.8,3.7-7,6.3c1.1-0.8,1.5-1.8,2.6-1.8c-1.9,2.9-2.7,9.6-2.7,13c0,1.4,1.3,2.6,2.5,2.6c1.6,0,2.2-3.9,2.2-5.6v-4.2
	c0-1.7,0-5.6,1.2-5.7c4-0.3,2.1-3.5,3.9-3.5c0.9,0,4.9,2.4,4.9,3.9c0,1.8-0.9,3-1.2,4.8c1.3,0,1.1-0.5,2.2-0.9
	c0.4,2.1,0.4,3,1.5,4.1l0,0c1.5,0,2.5-6.3,2.9-8.4c0.4,0.5,1.7,2.2,3.1,2.2c0.6,0,1.1-0.6,1.1-1.6c0-2-1.6-3.3-2.9-4.3h-2.8
	c-2.7-2.1-6.1-1.4-8.6-4.5c-0.9-1-0.2-2.4-0.9-3.9c-0.2-0.5-4.8-5-5.5-5h-0.9c0,0.3,0.1,1.3-0.1,1.8c-0.4-0.5-1.3-2.9-2.6-2.9
	c-1.1,0-0.7,2.1-1.7,2.8C244.1,232.9,243.3,232.8,242.2,232.8z M96.3,174.3c-0.7,1-1,2.5-2.1,2.5c-0.9,0-1.8-0.6-2.7-1.5
	c0.9,0.8,1.8,1.5,2.7,1.5C95.3,176.8,95.6,175.3,96.3,174.3z M104.6,179.5c-1.6-2.3-3.1-3.9-5.4-6.6l0,0
	C101.5,175.6,103,177.1,104.6,179.5z M110.6,190.3c0.1,0.2,0.3,0.3,0.5,0.4C110.9,190.6,110.8,190.5,110.6,190.3
	c-1.2-1.4-1.7-3.4-2.2-5c-0.3-1.1-1-1.4-1.3-1.8c0.3,0.4,1,0.8,1.3,1.8C108.9,186.9,109.4,188.9,110.6,190.3z M111.1,190.7
	c0.6,0.3,1.3,0.3,1.8,0.7C112.4,191,111.7,191,111.1,190.7z M277.1,333.3c0,1.1,0,2.5,1.1,2.5c0.2,0,0.5-0.4,0.5-0.6
	c0-0.9-0.3-1.7-1.2-1.8C277.4,333.3,277.1,333.2,277.1,333.3z M277,325.9c-0.5,0-1.3,0.5-1.5,1.1c0.6,0,1.7,0.1,2.8,0
	C278.1,326.5,277.7,325.9,277,325.9z M280.4,327.4c-0.1,0.4,0.2,1.2,0.5,1L280.4,327.4z M293.6,348.3v-1.2c-0.4,0.8-1.3,1.4-2.2,1.2
	v0.8c0,0.1,0.3,0,0.4,0C292.4,349,293.1,348.8,293.6,348.3z M109.1,200.4c0.6,0,0.9-0.4,0.9-1.3c0-2.9-2.9-3.3-2.6-6.8
	c-2.3-0.5-2.8-0.5-2.8,2.6c1.3-1.1,0.7-0.4,2.4,0c-0.3,0.6,0,1.7,0,2.6C106.9,197.6,108.1,200.4,109.1,200.4z M101.2,187.3
	c-0.2,0.1-1.1,0.4-1.1,0c-0.5-2.1,0-2.1,0-5.5c-1.5,1.1-0.5,0-2.5,0c-0.4,0-1.3,0.3-1.3,1.3c0,2,1.3,3.7,2.9,3.9
	c0,2.1,0.4,3.7,1.7,5.2C102.1,191,101,189.1,101.2,187.3z M202.1,112c2,0,2.4,0.5,4.4-1c-2.1-2-11.2-4.9-11.2-9
	c0-3.4-2.9-6.4-2.9-11.1c0-1.2,2.4-2.4,2.4-4.3c0-2-1.8-2.9-3.8-2.9c-1.7,0-3.3,0.9-3.3,2.2c0,0.4,0,0.9,0.1,1.3
	c-1.7,1.1-1.1,0-3.1,0c-0.9,0-2,0.7-2,1.7c0,1.2,1.6,7.3,2.5,9c-0.5,0.5-0.5,1-1.4,1c-2,0-1.2-3.3-1.9-4.8c-0.5-1.4-2.1-3.2-3.6-3.7
	H176c0.2,0.8,0.4,1.2,0.5,2.4c-1.2,0.4-2.1,0.7-3.3,0.9c-0.8-2.4-1.9-3.9-4.9-3.9c-1.7,0-2.5,1.7-3.4,2.4c-0.4-0.8-0.3-4.6-1.9-4.6
	c-3.9,0-13.9,4.7-13.9,11.1c0,0.7,2.1,2.6,3.3,2.6c1.4,0,2.1-0.4,3.8,0.1c-1.2,0.9-4.4-0.1-4.4,2.8c0,3.7,6,2.4,8.4,2.4h5.8
	c1.1,0,2,0.8,2.7,1.3c-1.3,0.1-2,0.3-3.6,0.3c-4.6,0-8,0.7-10.6,3c0.8,1.6,2.7,4.6,5.1,4.6c1.5,0,4.8-0.4,6,0.6
	c1.3,1.2,0.1,3.3,2,3.3h9.8c2.3-2,5-0.9,7.9-2.6c1.6-0.9,0.9-2.4,2.8-2.4c3.2,0,4.7,3.9,9,3.9c2.7,0,5.2,0.1,6.2-2.4
	c-0.4-0.4-1-0.8-1.1-1.8c-0.4,0-1.6,0-1.6-1C200.7,112.4,201.3,112,202.1,112z M133.4,99.3c0.3,0.7,1.1,2.6,1.6,2.6
	c0.6,0,0.9,1.3,1.6,1.3c0.9,0,8.4-3.3,8.4-4.3c0-3,4.8-8.5,8.2-9.8c1.1-0.4,6.9-1.4,6.9-2.9c0-3-5.3-5.6-7.6-5.6
	c-1.4,0-2.7,1.6-3.7,0.4c-2.4-0.3-3.5-1.8-5.9-2.6c-2-0.7-3.1,0.9-4.4,0.9c-2.6,0-3.8-1.3-6.5,0c0.1,1.4,1.6,3.5,1.6,4.6
	c0,4.7-5.5,8.4-5.5,12.8C128.2,98.2,132.5,97.8,133.4,99.3z M159.3,63.5c2-0.4,2.6,0,3.6,0c0.4,0,1.8,0.4,1.9,2h2.5
	c3.3,0,5.6,5,10.4,5c1.4,0,2-0.5,2.4-1.7c-1.2,0-1.7-0.1-2.2-0.4c0.1-0.3,0.8-0.5,1.1-0.5v-1.7c-0.8-0.1-2.7-0.8-2.7-2
	c0-2.1,2.8-3.1,3.9-4.2c0.7,0.5,1.3,0.9,2.1,0.9c-0.1,1,0,1.4,0,1.7c0,2,2.1,4.8,4.1,4.8c1,0,1.5-1.6,2.9-1.6c1.3,0,2.5,1.7,2.5,3.3
	c0,1.8-2.6,5.8-3.6,6.1c-0.7,0.3-7.1-0.6-7.1-0.3c0,0.3-7,2.1-7.3,2.2c-2.2,1-4.4,2-7.1,2c-1.3,0-3.1-1.2-3.1-2c0-2,1.6-1.6,3.1-1.6
	c-0.6-1-1.6-1.7-1.9-3c-0.7,0.1-1.2,0.9-1.2,1.7c-1.8,0.3-3.3,0.9-4.6,0.9c-1.4,0-3-0.9-3.8-0.9c-0.9,0-1.6-0.9-1.6-2
	c0-1.3,0.4-1,0-2c1.1-0.3,1.6-1.3,2.7-1.3c0.5,0,0.8,0.1,1.2,0.2c-0.4-0.2-0.8-0.4-1.2-0.6v-2c0.9-0.1,1.9,0,1.9,0
	c0.1,0,0.3,0,0.6,0.1c-0.4-0.1-0.8-0.3-1.1-0.6c0.4-0.8,1.3-1.4,2.2-1.4c0.1,0,0.2,0,0.3,0C159.6,64.6,159.3,64.2,159.3,63.5z
	 M161.4,67.4c0.7,0.1,1.3,0.3,1.7,0.3C162.5,67.6,161.9,67.5,161.4,67.4z M148.1,69.8c0,0.9,1,1.6,1.9,1.6c1.4,0,3.1-2.8,3.3-4.6
	C152.2,66.7,148.1,67.7,148.1,69.8z M163.4,62h2.4v-1.7H162C162,61.4,162.9,62,163.4,62z M140.2,66.8c1.1,0,1.7,0.8,3.1,0
	c0.2,0.5,1,2,1.8,2c1.2,0,2.1-1.4,2.3-2.9c1.9,0.3,3.5-1.8,3.7-4.1c1,0.7,0.9,3.7,2.7,3.7l4.7-4.2c0-1-0.8-1.3-0.9-2.6
	c0.8-0.3,1.4-1.2,1.4-2.1c0-2.3-6.5-0.3-6.5-0.3c-1-0.1-1.1-0.3-2-0.3c-3.1,0-3.6,3.4-5.7,4.9c-1.9,1.3-3.5,1.6-5.2,2.6
	c-0.4,0.3-2.4,2.1-2.4,2.4c0,0.4,0.9,1.1,1.1,2C139.2,67.7,139.5,66.8,140.2,66.8z M171.3,49.5h4.7c1.3,0,2.1-0.8,2.9-1.3
	c-0.4-1.7-2.3-3.3-4.6-3.3c-1.4,0-8,2.9-8,4.6c0.9-0.1,1.3-1,2.2-1C169.6,48.5,170,49.5,171.3,49.5z M175.6,50.2
	c-2.3,0-8.9,0.3-8.9,3.3c0,1.2,1.9,3.5,3.5,3.5c2.4,0,6-1.2,5.8-3.9h-3.1c1.6,0,3.5-0.4,4.7-1.6C177.3,51,176.8,50.2,175.6,50.2z
	 M163.6,54.4c0.8,0,1.1-0.8,1.5-1.6c-0.7-0.4-3.7-3.7-3.7-0.4C161.5,53,162.7,54.4,163.6,54.4z M217.9,92.1c0-1.3,0.3-0.1,0.3-2
	c0-1.4-3.2-0.3-4-0.1c0.8-1.2,3.5-2.2,3.5-4.8c0-0.7-0.8-1.3-1.1-1.3h-4.4c-2.4,0-4.8-0.5-6.6,1.6c-0.1,0.4-0.8,0.7-0.8,1.1
	c0,1.7,2.1,1.4,3.5,1.7v3.5h-1.6c-1.9,0-3.5-1.6-4.9-1.6v2.2c3.2,3.8,6.5,3.3,9.6,6.9c0.7,0.8,0.9,2.2,2.4,2.2c1,0,1.2-1.6,2.2-2
	c3.5-1.6,3.8,0.3,4.4-6.8C219.7,92.5,218.3,92.2,217.9,92.1z M196.4,62.2h-1.3c0,0.7,0.2,1.1,0.4,1.6l-0.2-0.2v2.4
	c0.9,0.8,1.6,1.7,2.7,1.3l0.3,1.3h1.6c0,0.8,0.5,1.6,1.3,1.6c2.2,0,6-1.3,8-1.3c0.4,0,1,0.1,1.3,0.4c-0.7,0.8-2.7,0.8-2.7,2
	c-0.1,0.4-0.1,0.9,0,1.3c-0.4,0.3-0.8,0.8-0.8,1.3c0,1.2,2.8,0.7,3.5,0.7c0.3,0,2.7,0,4.4-0.7c-0.4-3.7,0.9-5.2,0.9-8.2
	c0-2-0.2-3.3-2.2-3.3c-0.9,0-1.3,1.1-2.2,1.1c-2.1,0-3.2-1.3-4.9-1.3c-0.8,0-1.2-0.3-2,0.1c0.4,1.8,2,1.8,3.8,1.8v2.9
	c-2.7,0-3.6-2.9-6-2.9v1.6c0.4,0.6,1.3,1.6,2.2,2.2C201.2,68.9,199.5,62.2,196.4,62.2z M213.3,115.9c-0.4,0.1-2.4-0.4-2.4,0.6
	c0,0.4,8.1,3.9,9.5,3.9c1.2,0,1.6-1.3,2.7-2.1c-0.7-1.8-5.1-6.7-6.8-6.7C214.1,111.7,214.6,115.4,213.3,115.9z M228,81
	c-2.3,0-2.9,1.8-2.9,2c0,0.4-0.2,1.2,0,1.3h-2.5v2.2c0.8,2.6,0,4.2,1.7,6.3c-0.1,0.6-0.1,2.2-0.1,3.9h2.2c1.3-1.6,2.2-2,2.5-4.3
	h-1.4c0.7-2.6,0.7-0.9,3.1-0.9c3.3,0,4.8-2.9,6.2-5.2c0,0,2-1.7,2-2c0-0.6-0.1-1,0-1.7C234.8,82.5,231.7,81,228,81z M193.6,58.3
	c0.8,0,1.4-0.7,1.5-1.6c-2.3-0.9-2.5-3.7-5.3-3.7C189.8,54.7,192.4,58.3,193.6,58.3z M193.1,74.3c0.9-0.1,1.1,0.1,2.2,0.1
	c0.7,0,1.6-0.1,1.6-1.7c0-0.9-0.6-1.3-0.8-2C194.6,71.4,193.5,72,193.1,74.3z M193.1,43c-0.1,0.5-0.4,1-0.8,1.3c0.9,0.8,1.4,0,3.8,0
	c-0.2,0.4-0.2,1.2,0,1.6c-1.3,0.5-2.3,0.4-3.3,1.6c1,1.2,1.4,1,2.9,1c1.6,0,3.1-0.7,3.6,0.5c2-0.3,3.2,0.5,5.1,0.5
	c2.5,0,2.3,3.3,4.9,3.3c0.9,0,2-0.4,2-1.7c0-1.4-2.2-2.5-3.1-3.5c0.2-0.4,0.7-0.9,0.9-1.3c-0.5-0.7-1.8-3-3.3-3
	c-0.7,0-1,1.1-1.6,1.1c-1.2,0-1.1-3-3.3-3c-0.9,0-1.3,1.1-2.2,1.1c-1.3,0-1.9-2.4-4.1-2.4c-1.3,0-2.2,0.8-3.5,1
	C191.2,42.6,191.6,43,193.1,43z M202.1,51.1c-0.4,0-2.9,2-1,2c1.6,0,2.9,0,3.5-0.9C203.7,51.7,203.3,51.1,202.1,51.1z M243.1,76.4
	h1.3c-0.2,2.2,3.2,2.6,5.5,2h8.7c1-0.8,1.2-1.4,2.7-1.7c0.2,0.9,0.8,2,2.2,2c3.8,0,8.7,0,9.1-4.6c0,0-0.7,0.1-1.4-0.1
	c0.1-0.5,0.3-0.9,0.5-1.2c0.3,0,0.7-0.1,0.9-0.2c-1.5-3.4-4.4-3.7-8.7-3.7c-5.7,0-7.6,3.3-13.6,3.3c-2.7,0-4.9-0.8-7.5-1.6
	c-0.4,0.4-1.7,1.2-1.7-0.7c0-0.4,0.5-0.4,0.8-0.7c-1.5-1.4-4.3,0.5-4.9-3h4.4c-1-1.7-6-0.9-5.1-3.9h-2c-0.4,0.8-1.1,1-2.2,1
	c-3.7,0-4.6-4.6-9.5-4.6c-1.3,0-3.3,0-3.3,2c0,1.2,6.7,4.6,7.8,4.6c0.9,0,1.5-0.5,2.2-1.3c1.9,2.2,2.4,4.3,4.4,6.7
	c-0.4,0.3-1.3,1.2-1.3,2.1c0,2.6,5.4,5.9,7.9,5.9C241,78.6,242.6,77,243.1,76.4z M229.1,73.7c0-1.7-2.6-4.3-4.6-4.3
	c-2.5,0-2.1,3-3.3,3c-0.2,0-1.4,0.7-1.4,2c0,0,6.3,3.5,7.1,3.5C228.4,77.9,229.1,76,229.1,73.7z M229.4,54.7V53
	c-1.1,0.3-0.2,0-1.4,0c-2.1,0-6,0.3-7.1,1.6c0,0,6.3,1.4,6.9,1.4C228.8,56.1,229.4,55.4,229.4,54.7z M218,50.2
	c-0.3,0.1-1.1,0.7-1.1,1.3c0,1.6,3.8,1,7.6,0c-0.3-1.4,0-2.4,0-3.3c0-2.8-3.8,0.1-3.8-3c-1.2,0-3.5-0.9-3.8-2
	c-1.1,0.1-2.5,0.7-2.5,2C214.4,47.8,216.7,48.6,218,50.2z M212.5,37.1h1.9v-2.6c-0.8,0-2.4-0.1-3.8,0
	C210.5,36,211.8,36.3,212.5,37.1z M226.4,34.5c-1,0-2.7-0.8-3.3-1.3h-1.6c0.3,3.8,2.6,4.2,6.3,4.2c-0.6,1.1-1.4,1.2-2.5,1.7
	c0,0.8,0.1,1.3,0.9,1.3c0.9,0,1.2-0.5,2.3-1c0.3,0.8,0.4,1.7,1.5,1.7c1.3,0,1.6-1,3.3-1c1.6,0,2.8,0.5,4.5,1
	c-1.5,0.4-8.3,0.1-8.3,2.6c0,2,3.1,3.3,4.9,3.3c-0.3,0.4-0.7,0.8-1.4,0.9c0.2,1.8,2.6,2.4,4.4,2.4c1.6,0,2.6-0.7,2.6-3
	c1,0.8,2.9,2.5,3.9,2.4v-1.7h2c-0.3-1-0.8-1.3-1.4-2.6c0.6-0.7,0.8-1.3,1.3-2c0.3,1.4,0.3,2.6,1.7,2.6c1.4,0,2.9-3.9,5.1-4.2
	c0.9-0.1,2.1,0.1,2.5-0.7c0.3-0.5,0.1-1,0.1-2c-1.4-0.1-4.3-1.7-5.3-1.7c-0.2,0-1.9,1.2-1.9,0c0-0.8,0.8-1.1,0.8-2
	c0-0.9-1.3-1-1.3-2c0-1.6,0.1-2.2-1.4-2.2h-1.1l0.5,0.9v1.7h-1.3c-1-1.2-0.3-2.9-2-3.7c-1.6-0.8-2.7,0.5-4.4-0.3
	c-1.7-0.8-1.3-4.6-3.5-5.6c-2-0.9-4.1-1.2-6.9-1.4c0.1,1.8,2,2,3.3,2.7h-1.8c-2-0.5-2.8,0.3-4.1,1.2c0,0.1,1,2.1,1.4,2.1
	c0.7,0,2-0.8,3.1,0c-0.3,0.4-0.5,1.3-1.2,1.3c-0.9,0-1.4-0.9-2.9-0.9c-1,0-2.5-0.1-2.5,1.3c0,1.4,3.4,2.3,4.8,2.9
	C227.3,33.4,226.8,34.5,226.4,34.5z M266.2,147.1c-0.5-0.5-0.2-1.4-0.8-2.4c-2-3.2-5.5-1.8-7.7-5.2c-0.3,0.2-0.7,0.5-1,1.1
	c-0.6-1.3-1.1-1.7-1.6-3.7c-3.1,0.4-3.6,5.6-3.6,7.9v2c0,0.8-0.5,1.2-1.1,1.7c-0.2,0.7-1.5,0.4-1.6,2.6c0.9-0.1,2.9-0.5,4.7,0
	c-0.2,1.3-0.5,2.6,0.8,2.6c0.5,0,0.5-0.4,0.9-1c1.5,0.8,5.1-2,5.1-4.9c0.6,0.3,4.1,3.3,4.1,3.3h2.9c1.4,0,2.4-0.5,3.6-1.4
	C269.9,148,267.9,148.7,266.2,147.1z M286.9,125.5c0-4.3-6.8-5.2-6.8,0c0,1.6,1.1,2.9,2.7,2.9C284.2,128.4,286.9,127.2,286.9,125.5z
	 M262.4,154.6c-0.1,0.8-1.5,2-2.4,3.3v1.7c1.8-0.3,4.5-2.9,5.5-4.4C264.1,154.4,264.5,154.4,262.4,154.6z M274.1,91.4
	c1.8,0,2.8-1.3,4-1.3c1.2,0,1.9,0.9,3.3,0.9c1,0,1.6-0.9,2-2.1c-2-1.2-4.5-4.1-7.4-4.1c-2.3,0-3-1.1-5.4-1.1c-0.9,0-1.9,0.7-1.9,2
	c0,1.4,1.2,2.1,2.2,2.8C270.1,90.8,272,91.4,274.1,91.4z M271.6,162.1c1.1,0,1.3-1.8,2-2.9c-1.1-1.6-3.6-1.4-3.6,0.9
	C270,160.2,271.4,162.1,271.6,162.1z M291.6,124.6c-0.3-0.5-1.2-2.1-2.2-2.1c-0.2,0-1.4,0.9-1.4,1.3c0,0.8,0.7,1,1.4,1
	C290.5,124.8,290.2,125,291.6,124.6z M276.3,114.9c-1.3,0-3.8,3-2.5,3C275.1,117.9,276,116.4,276.3,114.9z M299.8,102.8
	c0.3-2.2-2.4-2.6-3.6-2.6h-2.7c-3.6,0-4.4-4.5-6.8-6.5c-1.4-1.2-6.1-2-8.2-2c-2,0-2.5,3.3-4.4,3.3c-1,0-1.3-1.3-2.5-1.3
	c-1.1,0-1.5,1.3-2.2,1.3c-0.5,0,0-2.1,0-2.6c0-2.9-1.5-7.5-4.4-7.5c-4.4,0-11.7,1.6-11.7,6.6c0,1.3,1.1,2.2,1.1,3.5
	c0,1.1-1.5,2.6-2.2,2.6c-1.3,0-1.1-1.2-1.1-2.2c0,0-0.2-1.4,0-2.4c-0.5,0-0.9-0.5-0.9-1.3c0-3.8,3.6-4.1,4.7-6.8
	c-0.1,0-3.6-1.3-3.6-1.3c-3.7,0-6.5,2.2-8.7,4.8c-0.4,0.5,0.1,2.9-0.8,3.7c-1.6,1.4-2.2,2.2-2.2,5.9c0,1.2,1.6,3.5,1.6,3.5
	s5,0.5,6,1.3v1.7c-1.9-0.3-3.5-1.1-4.9-0.4c0.2,1.8,1.9,2.1,2.4,3.9h5.2c0.7,1.1,2.4,2.6,3.3,2.6c4.9,0,13.2-0.4,16.6,0
	c-0.1,0.9-0.5,3,0.9,3c2,0,3.7-5,5.1-5c1.2,0,7.1,6,8.1,7.2c-0.7,0.1-2.6,0.4-2.6,1.7c0,0.3,0.4,1.6,0.9,1.6c1.4,0,2.1-1.6,3.5-1.6
	c2.3,0,9.3,6.4,9.3,9.8c0,1.8-2.3,4.7-3.3,5.9c-0.8,0.9-2.7-0.3-2.7,2c0,1,1.4,2.4,2,2.7c-1.3,1.1-3.9,1.8-4.9,1.8h-4.7
	c-1.5,0-4.4,2.2-4.4,3.5c0,1.8,3.5,3.7,4.7,3.7c1.3,0,2-2,3.3-2c1,0,0.8,0.9,1.8,0.9c1,0,1.6-1.1,2.2-2c3.2,2.2,4.9,4.7,8.5,6.6
	c-1.9,4.2,4.7,4.1,7.3,5.9c2.7,2,4.8,1.2,8,3c0.3,0.1,0.5,1.6,1.1,1.6c0.4,0,1.1-0.7,1.1-1.6c0-3.7-6.1-6.4-8-9.2h1.6
	c1.2,1.8,8.2,5,10.1,5.2c0.4-1.5,1.6-3.9,1.6-5.2c0-1.4-2-2.1-2-3c-0.1-0.5-0.1-0.5,0-2.6h-1.9c-0.2-2.2-1-0.7-3-1.6
	c-0.9-0.4-2.2-3.3-2.4-5h-1.4v-2c0.4,0.4,1,0.3,1.6,0v-1.6c-1,0.3-1.2,0.4-2.2-0.3c0.1,0,1.5-1.4,2.2-1.4c5.2,0,5.5,8.9,10.9,8.9
	c1.2,0,1.4-2.2,1.4-3.7c2.1,0,2.4-1.2,2.4-1.6c0-0.7,0.1-0.3,0-1.7c1.4,0,3.3-0.5,3.3-2.2c0-2.1-0.9-3-2.9-3c-0.5,0-1.4,0-2-0.6
	c-0.9-2.5-1.4-0.7-3.8-0.7c-1.6,0-2.2-2.2-2.4-4.6c-2.3-0.3-5.2-1.6-5.5-4.6c-1.4,0-2.1-0.4-3.1-1c1-2,1.9-2,3.6-3
	c-0.3-0.8-1.1-1.2-1.6-1.2c-1,0-1.4,0-3.3-0.3c0.9-1.6,2.3-1.5,3.8-1.8c-0.7-1.8-1.5-3.2-3.1-3.2h-1.9v-2.2
	C304.4,106.1,302.7,104,299.8,102.8z M276.5,152.2c1.1,1,1.4,1,2.5,0C277.7,151.4,277.6,150.5,276.5,152.2z M258.3,136.2
	c-0.1,0.9,0.8,2,2.2,2.1C259.7,137.1,259.7,135.4,258.3,136.2z M238.4,20h3.3c-1.3,0.5-2,0.9-3,2.2c0.2,0.1,1.4,1,2,1
	c2.1,0,2.2-2.4,4.4-2.4c0.9,0,1.2,0,2.2,0.3c-2.8,1-5.6,0.7-6.8,4.1c0.9-0.1,3.1,0,5.1,0c-1.4,0.1-2.2,0.8-2.9,1.4
	c0.8,1.2,3.8,2.7,6,2.7c1,0,1.6-0.6,2.4-1.3h1.4c-0.7,1.7,2.2,2.6,4.4,2.6c0.9,0,1.3-1.3,2.2-1.3c1.1,0,1.7,1.1,3.8,1.1
	c3.5,0,6-0.9,8.2-3h1.6c-1.3,2-3.2,2.6-5.2,3.7h-5.5c-0.2,0.4-0.8,0.8-0.8,1.3c0,0.8,3.5,3.4,4,4.1c-3.1,0.4-4-3.4-6.8-4.4
	c-2.2-0.8-4.6-0.3-5.8-0.3c-0.5,0-1.1-0.3-1.6,0c0.2,1,0.4,1.6,1.6,1.6c-1.1,0-2.7-0.3-2.7,1.1c0,2.4,7.4,2.4,7.4,6.5
	c0,3.7-3.3,2.5-6,3.5c-1.6,0.7-2.4,2.1-3.3,4.3v1.6h1.6c0.4-0.5,0.4-0.5,1.1-0.9h1.6c0,3.1,3.4,4.7,4.9,6.5h-2
	c-2.1-1.4-3.3-3.7-6.8-3.7c-1.1,0-2.7-0.5-2.7,1.3c0,2.3,2.3,2.7,3.6,3.9c-2.3,2-8,0-8,5.2c0,0.4,0.3,1,1.1,1c0.5,0,1-0.7,1.3-1.3
	c3.8,1.4,6.8,2.6,10.4,2.6c1.6,0,2.3-1.3,3.3-1.3h8.2c2.2,0,1.1,2,3.6,2c2.5,0,8.7-2.4,8.7-4.6c0-1.2-1.3-1.1-1.6-1.1h-2.7
	c0-4.5,4.6-2,4.6-6.2c0-0.8-0.5-1.1-0.8-2h5.5c1.9-1.6,2.6-4.7,4.9-6c-0.7-1.8-1.9-2.4-3.2-3.2c2.1,0.3,3.4,0.5,3.2-2.4h-3.1
	c1.8-1.7,4.5-2,6.9-2.9c1.7-0.6,4.2,0.9,5.7-0.4c3.3-2.9,5.8-8.1,10.1-9.8c3.9-1.6,10-3.4,12.6-6.4c-2.7-0.1-7.1,0.9-8.2-0.4
	c5.8-3.4,11.1-1,15.5-5c0.8-0.7,2.7-0.3,2.7-2c0-2.4-5.8-1.7-7.1-3.3c-0.7-0.8-0.7-1.8-1.9-2.2c-0.8-0.3-1.2-0.5-2-1.1l-8.7,3
	c0.9-0.3,1.2-0.5,2-1.4c-2.2-2.6-11.6-2.2-14.2-2.2h-3c-1,0-1.6-0.9-3.3-0.9c-1.5,0-2,2.2-3.5,2.2c-1.6,0-2.2-1.6-4.1-1.6
	c-0.6,0-1.1,0.4-1.3,0.9h-12.5c-1.1,0-2,0.4-2.5,1.7c-1.4,1.4-0.3,0.3-2.2,0.3c-3.2,0-4.5,2.8-5.4,5.9c-1-0.4-5.2-2.9-7.3-2.9
	c-2.3,0-0.9,2.9-4.4,2.9c0,0.5-0.4,1.1-0.9,1.1h-2.4c-3.2,0-10.3,1.6-10.9,4.8h2.4C237.1,20.7,237.7,20.3,238.4,20z M451.4,108.8
	c-2.3-0.9-12-0.4-12-4.3c0.5-0.1,2.4-0.5,2.4-1.7c0-1-1.1-1.4-1.1-3.3c0.5,0.4,1.1,0,1.6,0c4.5,0,3.4,6.5,8.5,6.5
	c1.2,0,2.9-0.1,2.9-1.6c0-7.5-7-9.7-10.9-14.4v-2c0.2,0,0.5,0.1,1.4,0c0.7,2.5,4,5.9,6,5.9c1.3,0,1.6-2.1,1.6-3.7
	c0-3.5-4.9-2.4-6-5.9h1.6c0.9,1.4,2.1,2.1,3.3,3c0.9-2.8,5.2-1.1,6-5c-0.5-0.3-1.1-1.1-1.1-2c2.1-0.3,4.3-1.4,4.9-3.5
	c-1.3-0.5-4.4-0.4-4.4-2.6c0-1.7,1.7-1.7,3.5-1.7c-0.6-0.8,0-1.8,0-2.9c0-2-1.6-2.7-1.6-5.6c-1.5,0-3.5,0-3.5-2.2c0-0.9,1-2,2.2-2
	c2,0,7.6,1.2,7.6-2c0-3.1-4.3-2.5-4.7-4.6c0.7,0,1.4-0.4,2-0.8c-1.1-1-2.6-2.5-4.4-2.5c-1.2,0-2.1,0.7-3.3,0
	c0.6-1.3,0.5-4.4,1.9-5.6c2.1-1.8,4.4-2.7,4.4-5.5c0-0.5,0.1-0.5,0-2c2.1-0.7,4.9-1.2,4.9-3.3c0-1.3,0.8,0.1,0-1.7
	c2-0.5,4.9-0.5,4.9-4.2c-0.9,0.8-1,0.8-2.3,0c4.9,0,7.2-3.8,10.8-5.2c0.7-0.3,2.7-1.4,2.7-3c0-1.7-5.1-4.6-6.5-4.6
	c-1.1,0-1.9,0.1-2.2,1.7h-5.2c-1.8,1-2.1,1.7-4,2.6c-0.4,0.1-2.5-0.4-2.5-0.4h-7.3c-1.8,1.6-7.3,10.2-10.1,11.1
	c0.3-1.3,7.4-10.2,7.4-11.4c0-2-0.8-3.9-2.7-3.9c-3.6,0-10.1,7.5-12.8,7.5c-0.9,0,3.9-5.5,4.1-6.6c-2-0.9-20.2,1.7-22.1,0l24-1.6
	c3-1.3,10.4-0.7,10.9-5.2c-2.7-0.8-6.6,0.1-9.5-1.3C437.6,5,432.8,0,426.3,0h-15.8c-5.6,0-9.8,3.7-15.1,3.7c-1.6,0-2.7-0.3-4.4,0
	v1.6h-2.2c-2.4-1.1-4.1-0.9-6.8-0.9c-3.6,0-6.3,0.9-9.3,2.6c0.6,0.9,1.4,1.1,2.2,2c-1,0.3-4.4-0.4-4.4,1.6c0,2.5,4.5,4.2,6.2,5.2
	H372c-2.7-1.6-5.3-4.6-9.8-4.6c-1.1,0-2.7,0.1-2.7,1.7c0,1.1,0.5,1.8,0.9,2.9h-1.6c-2.2-1-4-0.8-5.2-3.3l-1.1,1.3
	c0,0.9,0.5,1.7,0.5,2.6c-2.1,0-2.6-3.9-4.6-3.9c-3,0-5.1,2.1-8.2,3c-4.2,0-5.8,1.3-10.1,2c-3.5,0.5-0.5,6.6-4.4,6.6
	c-1.1,0-2-0.3-2.8-1.1c-2.2,2.6-7.1,5.8-10.8,7.2c-0.5,0.1-2.2,0.8-2.2,2c0,2.5,6.2,2.4,8.2,2.6c0,3.3-1.2,5.6-2.9,6.9
	c-2.4,1.7-6.3-0.3-9.3,0.9c-2.1,0.8-3.3,2.2-5.2,3c-2.4,0.9-6.2-0.5-6.2,3.5c0,2.1,10.5,5.6,10.9,5.6h3.8c0.6,0,0.9-0.7,1.1-1.3h4.4
	c-0.3,1.4-0.3,2-1.4,2.9h-6.2c-0.5,0.9-0.9,1.1-2,1.1h-2.7c-0.9,0-3.1,0.8-3.3,2.6c2.1,0.9,1.4,0,3.8,0c1.3,0,2.6,1.5,4.4,2.2
	c-0.4,1.2-1.2,1.3-2.2,2.1c1.3,2,4.8,3.1,7.1,3.1c0.9,0,0.8,0.4,1.4-0.4c-0.3-0.1-0.8-0.7-1.1-1.1c0.5-0.3,1-0.5,2.2-0.5
	c1.3,0,2.3,1,3.3,1c1.4,0,2.1-1.7,3.5-1.7h3.3c12.2,0,19.9,11.4,22.9,22.7v2c1,0.1,2.7,0.3,2.7,2.2c0,3-2.4,2.7-2.4,5.6
	c0,2,1,2.2,2.9,2.2c1.4,0,1.7-2.2,2.7-2.2c3.6,0,4.6,6.1,8,7.5c-0.1,0.8,0,2-1.1,2c-2.6,0-4.3-2-6.5-2c-1,0-0.9-0.5-2,0
	c0.4,3.7,8.4,4.3,11.8,5.6c-1,3.7-2.6,5-3.3,8.9c-1.5-0.8-1.5-0.7-3.1,0.3v0.3c-2.2,2.1-2.8,4.7-4.4,7.2v3c0.7-0.7,1.4-0.5,2.2,0
	c-0.3,1.3-1.1,2-1.1,3.3c0,3.5,2.9,5,3.6,7.5c0.3,1.3,0.7,3.8,1.1,4.3c1.8,1.2,2.4-2.1,4,0.4c-0.8,0.9-1.6,0.8-1.6,2.5
	c0,3.8,4.1,9.7,6.3,11.8c0.3,0.3,0.1,2.1,0.8,2.6c1.8,1.6,2.8,0.7,3.6,3.7c1.3-0.1,3.1-1.7,4.6-1.7c2.7,0,2.5,5.9,5.2,5.9
	c0.7,0,0.9-0.8,2.2-0.9c0.2,0.8,0.5,1.3,1.3,1.3c2.9,0,1.6-6.8,4.1-8.3c-0.2-1.4,0-4.8,0-7.2c0-3.8,5.1-2.4,5.1-6.8
	c0-1.4-1.3-2.1-1.3-3c0-0.7,0.4-1.1,0.8-1.6c0-0.4-0.2-0.9-0.2-1.3c0-4.3,5.9-3.1,8.2-5.9c1-1.2,0.5-2.5,2.2-3.3v2.6h1.6
	c2.3-2,6-1.3,8.2-3.9c1.6-2,1.8-4.6,3.8-6.5l2.7-2.4c0-1,1.1-1.4,2.2-2.2h5.1c4.1-2.1,7.3-1.7,11.2-3.3c3.2-1.2,4.3-4.8,7.9-6.3
	C448.7,110.5,449.8,110.4,451.4,108.8z M352.1,114.6h2.4c1.9,0,4.1-0.4,4.4-2.6c-2.8-1-3.7-4.6-6.5-4.6c-1,0-2.4,0.7-2.4,2.6
	C350,111.6,351.2,114.5,352.1,114.6z M347.6,217c0-0.5-0.3-1.3-0.8-1.3c-1.8,0-2.4,2.2-3.3,3.9c-1.6,3-2.8,8.9-5.9,10.7
	c0.1,0.4,0.5,0.7,0.9,0.7v0.8c0,0.1-2,2-2,2.5c0,0.4,0.5,1.3,1.1,1.3c1.3,0,1.7-0.8,3.4-0.8c1.2,0,1.9,0.9,3.3,0.9
	c0.8,0,1.4-0.3,2.2-0.6c0.6,1.3,2,0.5,3.1,0.5c-0.3,0.8-1.2,0.8-1.2,2.1c0,0.3,0.4,0,0.7,0c1.3,0,2.3-2,3.2-3.6
	c0.9,1.1,0.2,3.6,1.1,3.6c0.3,0,0.5,0.3,0.9,0.3c0,0.5,0.2,1.6,1,1.6c1.1,0,1.7-1.6,1.7-3.1c0-1.3-0.8-1.2-0.8-2.8
	c-0.7,0.5-0.3,0.8-1.4,0.8c0-0.9-0.8-1.4-0.8-2.1c0-0.5,1-0.8,1.1-2c-0.4,0-1,0.1-1.2,0.4c0-2,0.1-3.1,0.1-4.3c-0.5,0.4-2,0.4-3.2,0
	l-1.3,0.5v-0.6h-2v-1.2l0.5-0.6c-0.4-0.5-1.1-0.7-1.7-0.7c-0.8,0-0.8,0.8-1.6,1.1v-1.2C345.3,221.3,347.6,219.9,347.6,217z
	 M268.9,210.5c0.1,0,0.5,0.1,0.5,0c0-1.8-1.9-2.2-3.7-2.2c0.1,0.3,0.1,0.7,0,0.9C266.4,210,267.9,210.5,268.9,210.5z M127.2,227.2
	c1.7,1.3,5.6,4.8,8.1,4.8h1v-1.2c-2.8-3.4-5.5-6.5-10.1-8.4c-0.8-0.3-1.7-1.8-2.9-1.8c-0.5,0-1.1,0.4-1.5,0.6h0.4
	c0,0,1.1,0.4,1.6,0.5c-0.1,0.4-0.5,0.9-1.1,1.2c0.4,1.6,3.5,2.9,5.7,2.9C128,226.3,127.4,226.3,127.2,227.2z M110.8,209.4
	c0-0.7-0.5-0.9-0.5-1.6c0-1.3,0.2-2.1,0-2.9c-0.2,0.6-0.6,1.7-1.4,1.7c-0.7,0,0.7-1.4,0.7-1.6c-1-0.1-1.5-0.9-2.5-0.9v1.1
	c0.4,0.8,0.9,2.3,1.3,2.3c0.7,0,0.9,1.4,1.8,1.7c0,0.3-0.4,0.7-0.4,1.4c0,1.1,0.6,2.5,1.5,2.5c1.1,0-0.9-2-0.9-2.5
	C110.3,210.2,110.8,210,110.8,209.4z M40.4,186.4v1.6c0.8,0.6,1.3,0.8,2.3,1.7c1.6-1.6,2.3-2.5,4.3-3.7v-1.6h-1.3
	C43.6,184.4,42.2,185.7,40.4,186.4z M328.4,227.6c-2.3-1.6-4.4-4.1-7.7-3.1c1.3,1.2,4.5,3.9,6.2,3.9
	C327.7,228.4,328,228.3,328.4,227.6z M321.6,238.6c-0.2,0.1-0.4,0.5-0.4,0.9c0,0.9,4,3.4,4.8,3.4c0.2,0,1.3-0.7,1.3-1.4v-0.8H324
	C322.9,240.5,322.1,239.9,321.6,238.6z M334.1,243V242c-2.5,0-0.9-0.8-0.9-2c0-0.5-0.5-0.8-0.8-1.3c-1,0.4-2.5,3.7-2.5,4.5
	c0,0.8,0.7,1.4,1.7,1.4C332.9,244.7,334.1,243.9,334.1,243z M4.7,170.7c-0.9,0-1.2-0.3-1.6,0.9H1.4c0.2,0.5,0.9,0.9,1.3,1.3h3.6
	C6.1,171.6,6,170.7,4.7,170.7z"/>
<path fill="#0363FF" d="M870.9,249c-0.8-3.8-4.8-6.3-8.9-5.5c-3.5,0.7-6,3.6-6,6.9c0,0.2,0,0.3,0,0.5c-2.5,0.2-4.3,2.3-4,4.7
	c0.2,2.2,2.2,3.8,4.5,3.8h14c3,0,5.5-2.3,5.5-5.2C876,251.4,873.8,249.1,870.9,249z"/>
<path fill="#0363FF" d="M223.8,266.7c-0.8-3.8-4.8-6.3-8.9-5.5c-3.5,0.7-6,3.6-6,6.9c0,0.2,0,0.3,0,0.5c-2.5,0.2-4.3,2.3-4,4.7
	c0.2,2.2,2.2,3.8,4.5,3.8h14c3,0,5.5-2.3,5.5-5.2C229,269.2,226.7,266.9,223.8,266.7z"/>
<path fill="#0363FF" d="M196.7,229.7c-0.8-3.8-4.8-6.3-8.9-5.5c-3.5,0.7-6,3.6-6,6.9c0,0.2,0,0.3,0,0.5c-2.5,0.2-4.3,2.3-4,4.7
	c0.2,2.2,2.2,3.8,4.5,3.8h14c3,0,5.5-2.3,5.5-5.2C201.8,232.2,199.6,229.9,196.7,229.7z"/>
<path fill="#0363FF" d="M297.5,218.3c-0.8-3.8-4.8-6.3-8.9-5.5c-3.5,0.7-6,3.6-6,6.9c0,0.2,0,0.3,0,0.5c-2.5,0.2-4.3,2.3-4,4.7
	c0.2,2.2,2.2,3.8,4.5,3.8h14c3,0,5.5-2.3,5.5-5.2C302.6,220.8,300.4,218.5,297.5,218.3z"/>
<path fill="#0363FF" d="M338.9,419.2c-0.8-3.8-4.8-6.3-8.9-5.5c-3.5,0.7-6,3.6-6,6.9c0,0.2,0,0.3,0,0.5c-2.5,0.2-4.3,2.3-4,4.7
	c0.2,2.2,2.2,3.8,4.5,3.8h14c3,0,5.5-2.3,5.5-5.2C344.1,421.7,341.8,419.4,338.9,419.2z"/>
<path fill="#0363FF" d="M326.9,444.3c-0.8-3.8-4.8-6.3-8.9-5.5c-3.5,0.7-6,3.6-6,6.9c0,0.2,0,0.3,0,0.5c-2.5,0.2-4.3,2.3-4,4.7
	c0.2,2.2,2.2,3.8,4.5,3.8h14c3,0,5.5-2.3,5.5-5.2C332.1,446.8,329.8,444.5,326.9,444.3z"/>
<path fill="#0363FF" d="M370.1,483.6c-0.8-3.8-4.8-6.3-8.9-5.5c-3.5,0.7-6,3.6-6,6.9c0,0.2,0,0.3,0,0.5c-2.5,0.2-4.3,2.3-4,4.7
	c0.2,2.2,2.2,3.8,4.5,3.8h14c3,0,5.5-2.3,5.5-5.2C375.3,486.1,373,483.8,370.1,483.6z"/>
<path fill="#0363FF" d="M602.8,236.3c-0.8-3.8-4.8-6.3-8.9-5.5c-3.5,0.7-6,3.6-6,6.9c0,0.2,0,0.3,0,0.5c-2.5,0.2-4.3,2.3-4,4.7
	c0.2,2.2,2.2,3.8,4.5,3.8h14c3,0,5.5-2.3,5.5-5.2C608,238.7,605.7,236.4,602.8,236.3z"/>
<path fill="#0363FF" d="M563.1,229.7c-0.8-3.8-4.8-6.3-8.9-5.5c-3.5,0.7-6,3.6-6,6.9c0,0.2,0,0.3,0,0.5c-2.5,0.2-4.3,2.3-4,4.7
	c0.2,2.2,2.2,3.8,4.5,3.8h14c3,0,5.5-2.3,5.5-5.2C568.3,232.2,566,229.9,563.1,229.7z"/>
<path fill="#0363FF" d="M950.4,515.5c-0.8-3.8-4.8-6.3-8.9-5.5c-3.5,0.7-6,3.6-6,6.9c0,0.2,0,0.3,0,0.5c-2.5,0.2-4.3,2.3-4,4.7
	c0.2,2.2,2.2,3.8,4.5,3.8h14c3,0,5.5-2.3,5.5-5.2C955.6,517.9,953.3,515.7,950.4,515.5z"/>
<path fill="#0363FF" d="M691.8,296.9c-0.8-3.8-4.8-6.3-8.9-5.5c-3.5,0.7-6,3.6-6,6.9c0,0.2,0,0.3,0,0.5c-2.5,0.2-4.3,2.3-4,4.7
	c0.2,2.2,2.2,3.8,4.5,3.8h14c3,0,5.5-2.3,5.5-5.2C697,299.3,694.7,297.1,691.8,296.9z"/>
<path fill="#0363FF" d="M848.8,325.1c-0.8-3.8-4.8-6.3-8.9-5.5c-3.5,0.7-6,3.6-6,6.9c0,0.2,0,0.3,0,0.5c-2.5,0.2-4.3,2.3-4,4.7
	c0.2,2.2,2.2,3.8,4.5,3.8h14c3,0,5.5-2.3,5.5-5.2C854,327.5,851.7,325.3,848.8,325.1z"/>
</svg>
