<?xml version="1.0" encoding="utf-8"?>
<!-- Generator: Adobe Illustrator 20.1.0, SVG Export Plug-In . SVG Version: 6.00 Build 0)  -->
<svg version="1.1" id="phone-tube" xmlns="http://www.w3.org/2000/svg" xmlns:xlink="http://www.w3.org/1999/xlink" x="0px" y="0px"
	 viewBox="0 0 10 10" enable-background="new 0 0 10 10" xml:space="preserve">
<path fill="#0363FF" d="M9.8,8.9C9.6,9.2,9.3,9.4,8.9,9.7C8.4,9.9,8,10,7.6,10c-0.1,0-0.2,0-0.3,0c-0.1,0-0.2,0-0.3,0
	c-0.1,0-0.2,0-0.3-0.1c-0.1,0-0.2-0.1-0.3-0.1C6.3,9.7,6.2,9.7,6,9.6C5.9,9.6,5.8,9.5,5.7,9.5C4.7,9.1,3.6,8.4,2.6,7.4
	c-1-1-1.7-2.1-2.1-3.1c0,0,0-0.1-0.1-0.3C0.3,3.8,0.3,3.7,0.3,3.7c0-0.1-0.1-0.2-0.1-0.3c0-0.1-0.1-0.2-0.1-0.3c0-0.1,0-0.2,0-0.3
	c0-0.1,0-0.2,0-0.3C0,2,0.1,1.6,0.3,1.1c0.2-0.5,0.5-0.8,0.8-0.9C1.5,0.1,1.8,0,2.1,0c0.1,0,0.1,0,0.2,0c0,0,0.1,0.1,0.2,0.2
	c0.1,0.1,0.2,0.2,0.2,0.4c0.1,0.2,0.2,0.3,0.3,0.5C3,1.2,3.1,1.4,3.2,1.5c0.1,0.1,0.1,0.2,0.1,0.3c0,0,0.1,0.1,0.1,0.2
	c0.1,0.1,0.1,0.2,0.1,0.2c0,0.1,0,0.1,0,0.2c0,0.1-0.1,0.2-0.2,0.4C3.3,2.9,3.2,3,3,3.2C2.8,3.3,2.7,3.4,2.6,3.5
	C2.4,3.7,2.4,3.8,2.4,3.9c0,0,0,0.1,0,0.2c0,0.1,0,0.1,0.1,0.2c0,0,0.1,0.1,0.1,0.2c0,0.1,0.1,0.1,0.1,0.1C3,5.1,3.4,5.7,3.9,6.1
	c0.5,0.5,1,0.9,1.7,1.2c0,0,0.1,0,0.1,0.1c0.1,0,0.1,0.1,0.2,0.1c0,0,0.1,0,0.2,0.1c0.1,0,0.1,0,0.2,0c0.1,0,0.2-0.1,0.4-0.3
	c0.2-0.2,0.4-0.4,0.6-0.6c0.2-0.2,0.3-0.3,0.5-0.3c0.1,0,0.1,0,0.2,0c0.1,0,0.2,0.1,0.2,0.1c0.1,0.1,0.2,0.1,0.2,0.1L8.7,7
	c0.3,0.2,0.6,0.3,0.9,0.5C9.8,7.6,10,7.7,10,7.7c0,0,0,0.1,0,0.2C10,8.2,9.9,8.5,9.8,8.9z"/>
</svg>
