<?xml version="1.0" encoding="utf-8"?>
<!-- Generator: Adobe Illustrator 20.1.0, SVG Export Plug-In . SVG Version: 6.00 Build 0)  -->
<svg version="1.1" id="premium-cloud-hosting" xmlns="http://www.w3.org/2000/svg" xmlns:xlink="http://www.w3.org/1999/xlink"
	 x="0px" y="0px" viewBox="0 0 48 48" enable-background="new 0 0 48 48" xml:space="preserve">
<path fill="#0363FF" d="M39.7,5.5H8L0,17l24.1,25.5L48,17L39.7,5.5z M43.3,15.4H37l2.4-5.3L43.3,15.4z M37,8.4l-3,6.5l-7.1-6.5H37z
	 M30.3,15.4H17.5l6.3-5.9L30.3,15.4z M20.8,8.4L14,14.8l-2.9-6.4H20.8z M8.5,9.9l2.5,5.6H4.6L8.5,9.9z M5.2,18.3h7.2L19.1,33
	L5.2,18.3z M24,36.7l-8.4-18.4h16.8L24,36.7z M28.8,33.3l6.9-15h7.1L28.8,33.3z"/>
</svg>
