<?xml version="1.0" encoding="utf-8"?>
<!-- Generator: Adobe Illustrator 20.1.0, SVG Export Plug-In . SVG Version: 6.00 Build 0)  -->
<svg version="1.1" id="support" xmlns="http://www.w3.org/2000/svg" xmlns:xlink="http://www.w3.org/1999/xlink" x="0px" y="0px"
	 viewBox="0 0 48 48" enable-background="new 0 0 48 48" xml:space="preserve">
<path fill="#0363FF" d="M41,7C31.6-2.3,16.4-2.3,7,7c-9.4,9.4-9.4,24.6,0,34c4.7,4.7,10.8,7,17,7s12.3-2.3,17-7
	C50.3,31.6,50.3,16.4,41,7z M38.4,9.6c0.7,0.7,1.4,1.5,2,2.3L36,16.4c-0.5-0.9-1.2-1.7-1.9-2.4c-0.7-0.7-1.6-1.4-2.4-1.9L36,7.6
	C36.8,8.2,37.6,8.9,38.4,9.6z M31.4,31.4c-4.1,4.1-10.7,4.1-14.8,0c-4.1-4.1-4.1-10.7,0-14.8c2-2,4.7-3.1,7.4-3.1
	c2.7,0,5.4,1,7.4,3.1C35.5,20.7,35.5,27.3,31.4,31.4z M24,3.7c3,0,6,0.7,8.8,2L28,10.4c-2.6-0.8-5.4-0.8-8,0l-4.8-4.8
	C18,4.4,21,3.7,24,3.7z M9.6,9.6c0.7-0.7,1.5-1.4,2.3-2l4.4,4.4c-0.9,0.5-1.7,1.2-2.4,1.9c-0.7,0.7-1.4,1.6-1.9,2.4L7.6,12
	C8.2,11.2,8.9,10.4,9.6,9.6z M5.7,32.8c-2.6-5.5-2.6-12,0-17.5l4.8,4.8c-0.8,2.6-0.8,5.4,0,8L5.7,32.8z M9.6,38.4
	c-0.7-0.7-1.4-1.5-2-2.3l4.4-4.4c0.5,0.9,1.2,1.7,1.9,2.4c0.7,0.7,1.6,1.4,2.4,1.9L12,40.4C11.2,39.8,10.4,39.1,9.6,38.4z
	 M15.2,42.3l4.8-4.8c1.3,0.4,2.7,0.6,4,0.6s2.7-0.2,4-0.6l4.8,4.8C27.2,45,20.8,45,15.2,42.3z M38.4,38.4c-0.7,0.7-1.5,1.4-2.3,2
	L31.6,36c0.9-0.5,1.7-1.2,2.4-1.9c0.7-0.7,1.4-1.6,1.9-2.4l4.4,4.4C39.8,36.8,39.1,37.6,38.4,38.4z M37.6,28c0.8-2.6,0.8-5.4,0-8
	l4.8-4.8c2.6,5.5,2.6,12,0,17.5L37.6,28z"/>
</svg>
