<?xml version="1.0" encoding="utf-8"?>
<!-- Generator: Adobe Illustrator 20.1.0, SVG Export Plug-In . SVG Version: 6.00 Build 0)  -->
<svg version="1.1" id="vps-cloud-hosting" xmlns="http://www.w3.org/2000/svg" xmlns:xlink="http://www.w3.org/1999/xlink" x="0px"
	 y="0px" viewBox="0 0 48 48" enable-background="new 0 0 48 48" xml:space="preserve">
<path fill="#0363FF" d="M36.2,32.4c-0.1,0-0.1,0-0.2,0v0c-0.8,0-1.6,0.1-2.3,0.2c-0.9-2.2-2.4-4.1-4.3-5.6c-2.2-1.6-4.7-2.6-7.4-2.7
	v-8.6h19.4l-4.2-8.3L41.4,0H19.1v24.5c-6.3,1-11.2,6.3-11.5,12.8C3.2,38.2,0,42.1,0,46.6V48h47.5l0.2-1.1c0.2-0.9,0.3-1.7,0.3-2.6
	C48,37.8,42.7,32.4,36.2,32.4z M21.9,2.8h14.7l-2.6,4.6l2.8,5.5H21.9V2.8z M45.1,45.2H3C3.6,42.3,6,40.1,9,39.9l1.4-0.1
	c0,0-0.1-1.7-0.1-1.9c0-5.2,3.8-9.6,8.7-10.6V30h2.8v-2.8c2.1,0.1,4,0.9,5.7,2.1c1.5,1.1,2.6,2.6,3.3,4.2c-2.2,1-4.1,2.7-5.4,4.9
	l2.4,1.4c0.9-1.6,2.3-2.8,3.9-3.6l1.4-0.5c0.9-0.3,1.9-0.5,2.9-0.5c5,0,9,4,9,9C45.2,44.6,45.2,44.9,45.1,45.2z"/>
</svg>
