<?xml version="1.0" encoding="UTF-8" standalone="no"?><!DOCTYPE svg PUBLIC "-//W3C//DTD SVG 1.1//EN" "http://www.w3.org/Graphics/SVG/1.1/DTD/svg11.dtd"><svg width="100%" height="100%" viewBox="0 0 528 90" version="1.1" xmlns="http://www.w3.org/2000/svg" xmlns:xlink="http://www.w3.org/1999/xlink" xml:space="preserve" xmlns:serif="http://www.serif.com/" style="fill-rule:evenodd;clip-rule:evenodd;stroke-linejoin:round;stroke-miterlimit:1.41421;"><g id="Capa2"><rect x="-18.167" y="-3.076" width="564.334" height="97.914" style="fill:#003f8d;"/></g><g id="Capa1"><path d="M35.24,16.584l16.233,0l0,6.134l-1.422,0c-0.789,0 -1.287,0.053 -1.492,0.159c-0.379,0.212 -0.656,0.535 -0.83,0.969c-0.174,0.435 -0.26,1.129 -0.26,2.082l0,25.331c0,1.017 0.035,1.642 0.107,1.875c0.071,0.233 0.218,0.418 0.441,0.556c0.222,0.138 0.651,0.206 1.287,0.206c2.129,0 3.842,-0.37 5.137,-1.112c1.295,-0.742 2.463,-1.933 3.504,-3.575c1.041,-1.642 1.934,-3.873 2.681,-6.691l4.386,2.003l-4.386,16.399l-25.386,0l0,-6.134l1.588,0c0.648,0 1.137,-0.116 1.469,-0.349c0.332,-0.233 0.573,-0.546 0.723,-0.938c0.15,-0.392 0.225,-1.075 0.225,-2.05l0,-25.108c0,-1.059 -0.075,-1.822 -0.225,-2.288c-0.15,-0.466 -0.364,-0.805 -0.64,-1.017c-0.277,-0.212 -0.739,-0.318 -1.386,-0.318l-1.754,0l0,-6.134Z" style="fill:#fff;fill-rule:nonzero;"/><path d="M78.408,16.584l7.469,0l9.98,34.23c0.54,1.822 1.021,2.945 1.442,3.368c0.421,0.424 1.196,0.626 2.324,0.604l0,6.134l-15.732,0l0,-6.134l0.954,-0.031c0.874,0 1.486,-0.154 1.836,-0.461c0.349,-0.308 0.524,-0.684 0.524,-1.129c0,-0.381 -0.151,-1.165 -0.453,-2.352l-0.991,-4.036l-10.111,0l-1.246,4.482c-0.254,0.953 -0.382,1.578 -0.382,1.875c0,0.339 0.092,0.646 0.275,0.921c0.182,0.276 0.48,0.477 0.893,0.604c0.271,0.085 1.017,0.127 2.241,0.127l0,6.134l-12.872,0l0,-6.134c0.826,0 1.43,-0.095 1.811,-0.286c0.382,-0.19 0.695,-0.477 0.942,-0.858c0.246,-0.382 0.52,-1.091 0.822,-2.13l10.274,-34.928Zm-0.998,23.869l6.604,0l-3.218,-12.176l-3.386,12.176Z" style="fill:#fff;fill-rule:nonzero;"/><path d="M117.906,16.584l16.232,0l0,6.134l-1.478,0c-0.858,0 -1.426,0.101 -1.704,0.302c-0.278,0.201 -0.485,0.519 -0.62,0.954c-0.135,0.434 -0.202,1.266 -0.202,2.494l0,24.536c0,1.335 0.055,2.193 0.167,2.575c0.111,0.381 0.302,0.656 0.572,0.826c0.333,0.254 0.834,0.381 1.501,0.381l1.764,0l0,6.134l-16.232,0l0,-6.134l1.318,0c0.944,0 1.559,-0.09 1.847,-0.27c0.288,-0.18 0.499,-0.466 0.635,-0.858c0.136,-0.392 0.204,-1.171 0.204,-2.336l0,-24.631c0,-1.377 -0.068,-2.283 -0.204,-2.717c-0.136,-0.435 -0.363,-0.768 -0.683,-1.002c-0.224,-0.169 -0.768,-0.254 -1.631,-0.254l-1.486,0l0,-6.134Z" style="fill:#fff;fill-rule:nonzero;"/><path d="M137.666,16.584l13.489,0l9.752,25.871l0,-15.828c0,-1.356 -0.056,-2.203 -0.167,-2.542c-0.159,-0.509 -0.373,-0.864 -0.644,-1.065c-0.27,-0.201 -0.794,-0.302 -1.573,-0.302l-1.621,0l0,-6.134l13.706,0l0,6.134l-1.516,0c-0.759,0 -1.3,0.117 -1.623,0.35c-0.324,0.233 -0.549,0.551 -0.676,0.953c-0.126,0.403 -0.189,1.272 -0.189,2.606l0,34.293l-6.841,0l-12.348,-32.672l0,22.852c0,1.313 0.06,2.15 0.178,2.51c0.118,0.361 0.332,0.647 0.64,0.859c0.308,0.211 0.841,0.317 1.599,0.317l1.588,0l0,6.134l-13.754,0l0,-6.134l1.422,0c0.79,0 1.331,-0.09 1.623,-0.27c0.292,-0.18 0.525,-0.492 0.699,-0.937c0.174,-0.445 0.261,-1.113 0.261,-2.003l0,-25.425c0,-0.975 -0.079,-1.69 -0.237,-2.146c-0.158,-0.455 -0.371,-0.784 -0.64,-0.985c-0.269,-0.201 -0.719,-0.302 -1.351,-0.302l-1.777,0l0,-6.134Z" style="fill:#fff;fill-rule:nonzero;"/><path d="M173.779,16.584l27.504,0l3.769,14.143l-4.314,2.003c-0.699,-2.056 -1.367,-3.608 -2.003,-4.657c-0.635,-1.048 -1.39,-1.922 -2.264,-2.622c-0.874,-0.699 -1.82,-1.165 -2.837,-1.398c-0.683,-0.148 -1.891,-0.222 -3.623,-0.222l-4.1,0l0,11.759l2.098,0c0.795,0 1.418,-0.159 1.871,-0.477c0.453,-0.318 0.779,-0.731 0.977,-1.239c0.199,-0.509 0.298,-1.356 0.298,-2.543l0,-2.352l4.291,0l0,19.832l-4.291,0l0,-2.86c0,-0.826 -0.055,-1.43 -0.166,-1.812c-0.143,-0.508 -0.342,-0.921 -0.596,-1.239c-0.255,-0.318 -0.545,-0.54 -0.87,-0.668c-0.326,-0.127 -0.918,-0.19 -1.776,-0.19l-1.836,0l0,9.312c0,1.123 0.072,1.88 0.215,2.272c0.143,0.392 0.373,0.684 0.691,0.874c0.318,0.191 0.93,0.286 1.836,0.286l1.358,0l0,6.134l-16.232,0l0,-6.134l1.079,0c1.199,0 1.986,-0.206 2.362,-0.619c0.375,-0.414 0.563,-1.245 0.563,-2.495l0,-25.49c0,-1.165 -0.072,-1.938 -0.216,-2.32c-0.144,-0.381 -0.383,-0.667 -0.719,-0.858c-0.336,-0.19 -0.999,-0.286 -1.99,-0.286l-1.079,0l0,-6.134Z" style="fill:#fff;fill-rule:nonzero;"/><path d="M224.765,15.821c5.276,0 9.547,2.14 12.812,6.42c3.266,4.28 4.899,9.779 4.899,16.495c0,4.513 -0.747,8.518 -2.241,12.014c-1.494,3.496 -3.556,6.192 -6.186,8.089c-2.63,1.896 -5.804,2.844 -9.522,2.844c-4.911,0 -8.931,-1.801 -12.062,-5.403c-3.782,-4.343 -5.673,-10.149 -5.673,-17.416c0,-6.759 1.657,-12.29 4.97,-16.591c3.313,-4.301 7.648,-6.452 13.003,-6.452Zm0.095,7.056c-2.526,0 -4.537,1.261 -6.03,3.782c-1.875,3.178 -2.813,7.278 -2.813,12.3c0,5.021 0.874,8.994 2.622,11.918c1.51,2.5 3.504,3.75 5.983,3.75c2.495,0 4.489,-1.25 5.983,-3.75c1.764,-2.987 2.646,-6.981 2.646,-11.982c0,-3.517 -0.378,-6.473 -1.132,-8.867c-0.755,-2.394 -1.776,-4.185 -3.063,-5.371c-1.288,-1.187 -2.686,-1.78 -4.196,-1.78Z" style="fill:#fff;fill-rule:nonzero;"/><path d="M245.884,16.584l20.515,0c1.32,0 2.763,0.159 4.329,0.477c1.566,0.318 2.982,1.017 4.246,2.098c1.264,1.08 2.246,2.447 2.946,4.099c0.7,1.653 1.049,3.518 1.049,5.594c0,3.369 -0.901,6.097 -2.705,8.184c-1.804,2.087 -3.937,3.448 -6.4,4.084l6.841,10.615l0.286,0.477c0.445,0.72 0.85,1.255 1.216,1.605c0.365,0.35 0.731,0.599 1.096,0.747c0.366,0.148 0.874,0.222 1.526,0.222l1.43,0l0,6.134l-10.655,0l-10.679,-19.101l-2.765,0l0,8.836c0,1.525 0.064,2.495 0.191,2.908c0.127,0.413 0.329,0.72 0.608,0.921c0.278,0.202 0.838,0.302 1.68,0.302l1.526,0l0,6.134l-16.281,0l0,-6.134l1.487,0c0.783,0 1.339,-0.111 1.667,-0.333c0.327,-0.223 0.571,-0.557 0.731,-1.002c0.08,-0.254 0.12,-1.048 0.12,-2.383l0,-24.949c0,-0.975 -0.06,-1.669 -0.18,-2.082c-0.12,-0.413 -0.316,-0.683 -0.587,-0.81c-0.384,-0.233 -0.824,-0.35 -1.319,-0.35l-0.672,0.032l-1.247,0l0,-6.325Zm12.276,7.278l0,11.474l4.934,0c1.939,0 3.389,-0.239 4.35,-0.715c0.962,-0.477 1.685,-1.16 2.17,-2.05c0.484,-0.89 0.727,-1.971 0.727,-3.242c0,-1.165 -0.227,-2.167 -0.68,-3.004c-0.453,-0.836 -1.096,-1.456 -1.931,-1.859c-0.834,-0.402 -2.197,-0.604 -4.088,-0.604l-5.482,0Z" style="fill:#fff;fill-rule:nonzero;"/><path d="M284.094,16.584l15.051,0l5.779,27l5.98,-27l15.309,0l0,6.134l-1.644,0c-0.89,0 -1.506,0.249 -1.848,0.747c-0.341,0.498 -0.512,1.436 -0.512,2.813l0,25.171c0,1.102 0.048,1.791 0.143,2.066c0.143,0.424 0.342,0.72 0.596,0.89c0.349,0.254 0.81,0.381 1.382,0.381l1.883,0l0,6.134l-15.994,0l0,-6.134l1.24,0c0.905,0 1.517,-0.095 1.835,-0.286c0.318,-0.19 0.552,-0.482 0.703,-0.874c0.151,-0.392 0.227,-1.117 0.227,-2.177l0,-27.269l-8.105,36.74l-4.6,0l-7.842,-35.564l0,26.951c0,0.615 0.083,1.092 0.25,1.431c0.167,0.339 0.405,0.598 0.715,0.778c0.31,0.18 0.806,0.27 1.49,0.27l1.597,0l0,6.134l-13.635,0l0,-6.134l1.343,0c0.847,0 1.427,-0.1 1.739,-0.302c0.311,-0.201 0.543,-0.519 0.695,-0.953c0.152,-0.434 0.228,-1.234 0.228,-2.4l0,-24.853c0,-1.144 -0.056,-1.886 -0.168,-2.225c-0.144,-0.466 -0.36,-0.805 -0.648,-1.017c-0.287,-0.212 -0.743,-0.318 -1.366,-0.318l-1.823,0l0,-6.134Z" style="fill:#fff;fill-rule:nonzero;"/><path d="M341.993,16.584l7.469,0l9.98,34.23c0.54,1.822 1.021,2.945 1.442,3.368c0.421,0.424 1.196,0.626 2.324,0.604l0,6.134l-15.732,0l0,-6.134l0.954,-0.031c0.874,0 1.486,-0.154 1.836,-0.461c0.349,-0.308 0.524,-0.684 0.524,-1.129c0,-0.381 -0.151,-1.165 -0.453,-2.352l-0.991,-4.036l-10.111,0l-1.246,4.482c-0.255,0.953 -0.382,1.578 -0.382,1.875c0,0.339 0.092,0.646 0.274,0.921c0.183,0.276 0.481,0.477 0.894,0.604c0.27,0.085 1.017,0.127 2.241,0.127l0,6.134l-12.872,0l0,-6.134c0.826,0 1.43,-0.095 1.811,-0.286c0.382,-0.19 0.695,-0.477 0.941,-0.858c0.247,-0.382 0.521,-1.091 0.823,-2.13l10.274,-34.928Zm-0.998,23.869l6.604,0l-3.218,-12.176l-3.386,12.176Z" style="fill:#fff;fill-rule:nonzero;"/><path d="M390.72,16.584l3.382,0l3.264,15.923l-4.434,1.716c-1.478,-3.792 -2.868,-6.483 -4.171,-8.072c-1.812,-2.183 -3.774,-3.274 -5.888,-3.274c-1.541,0 -2.984,0.572 -4.326,1.716c-1.343,1.145 -2.408,2.829 -3.194,5.054c-0.787,2.224 -1.18,4.831 -1.18,7.818c0,4.556 0.901,8.475 2.705,11.759c1.804,3.285 4.168,4.927 7.091,4.927c1.86,0 3.647,-0.71 5.364,-2.13c2.145,-1.758 3.996,-4.121 5.554,-7.087l3.694,3.655c-2.397,4.365 -4.589,7.405 -6.574,9.121c-3.065,2.649 -6.479,3.973 -10.242,3.973c-3.129,0 -5.959,-1.001 -8.492,-3.003c-2.533,-2.003 -4.554,-4.805 -6.062,-8.407c-1.509,-3.602 -2.263,-7.532 -2.263,-11.791c0,-4.237 0.734,-8.099 2.203,-11.584c1.469,-3.486 3.47,-6.203 6.002,-8.153c2.533,-1.949 5.356,-2.924 8.468,-2.924c3.16,0 5.931,0.89 8.313,2.67l0.786,-1.907Z" style="fill:#fff;fill-rule:nonzero;"/><path d="M401.013,16.584l16.232,0l0,6.134l-1.478,0c-0.858,0 -1.426,0.101 -1.704,0.302c-0.278,0.201 -0.484,0.519 -0.62,0.954c-0.135,0.434 -0.202,1.266 -0.202,2.494l0,24.536c0,1.335 0.055,2.193 0.167,2.575c0.111,0.381 0.302,0.656 0.572,0.826c0.333,0.254 0.834,0.381 1.501,0.381l1.764,0l0,6.134l-16.232,0l0,-6.134l1.318,0c0.944,0 1.559,-0.09 1.847,-0.27c0.288,-0.18 0.499,-0.466 0.635,-0.858c0.136,-0.392 0.204,-1.171 0.204,-2.336l0,-24.631c0,-1.377 -0.068,-2.283 -0.204,-2.717c-0.136,-0.435 -0.363,-0.768 -0.683,-1.002c-0.224,-0.169 -0.767,-0.254 -1.631,-0.254l-1.486,0l0,-6.134Z" style="fill:#fff;fill-rule:nonzero;"/><path d="M438.555,15.821c5.276,0 9.547,2.14 12.812,6.42c3.266,4.28 4.899,9.779 4.899,16.495c0,4.513 -0.747,8.518 -2.241,12.014c-1.494,3.496 -3.555,6.192 -6.185,8.089c-2.63,1.896 -5.805,2.844 -9.523,2.844c-4.91,0 -8.931,-1.801 -12.061,-5.403c-3.782,-4.343 -5.674,-10.149 -5.674,-17.416c0,-6.759 1.657,-12.29 4.97,-16.591c3.314,-4.301 7.648,-6.452 13.003,-6.452Zm0.096,7.056c-2.527,0 -4.537,1.261 -6.031,3.782c-1.875,3.178 -2.813,7.278 -2.813,12.3c0,5.021 0.874,8.994 2.622,11.918c1.51,2.5 3.504,3.75 5.983,3.75c2.495,0 4.489,-1.25 5.983,-3.75c1.764,-2.987 2.646,-6.981 2.646,-11.982c0,-3.517 -0.377,-6.473 -1.132,-8.867c-0.755,-2.394 -1.776,-4.185 -3.063,-5.371c-1.287,-1.187 -2.686,-1.78 -4.195,-1.78Zm-4.172,-9.312l-0.953,-3.21l5.125,-6.102c1.477,-1.738 2.836,-2.606 4.076,-2.606c0.953,0 1.764,0.455 2.431,1.366c0.667,0.911 1.001,2.045 1.001,3.401c0,0.996 -0.286,1.96 -0.858,2.892c-0.572,0.932 -1.581,1.61 -3.027,2.034l-7.795,2.225Z" style="fill:#fff;fill-rule:nonzero;"/><path d="M459.817,16.584l13.49,0l9.751,25.871l0,-15.828c0,-1.356 -0.055,-2.203 -0.167,-2.542c-0.159,-0.509 -0.373,-0.864 -0.643,-1.065c-0.27,-0.201 -0.795,-0.302 -1.574,-0.302l-1.62,0l0,-6.134l13.706,0l0,6.134l-1.517,0c-0.758,0 -1.299,0.117 -1.623,0.35c-0.324,0.233 -0.549,0.551 -0.675,0.953c-0.127,0.403 -0.19,1.272 -0.19,2.606l0,34.293l-6.841,0l-12.347,-32.672l0,22.852c0,1.313 0.059,2.15 0.177,2.51c0.119,0.361 0.332,0.647 0.64,0.859c0.308,0.211 0.841,0.317 1.599,0.317l1.588,0l0,6.134l-13.754,0l0,-6.134l1.422,0c0.79,0 1.331,-0.09 1.623,-0.27c0.292,-0.18 0.526,-0.492 0.699,-0.937c0.174,-0.445 0.261,-1.113 0.261,-2.003l0,-25.425c0,-0.975 -0.079,-1.69 -0.237,-2.146c-0.158,-0.455 -0.371,-0.784 -0.64,-0.985c-0.268,-0.201 -0.719,-0.302 -1.35,-0.302l-1.778,0l0,-6.134Z" style="fill:#fff;fill-rule:nonzero;"/><path d="M153.299,73.807l0.525,0l0.778,3.133l-0.677,0.204c-0.427,-0.88 -0.995,-1.572 -1.703,-2.077c-0.582,-0.423 -1.227,-0.634 -1.936,-0.634c-0.427,0 -0.81,0.077 -1.15,0.229c-0.339,0.153 -0.594,0.351 -0.764,0.593c-0.169,0.243 -0.254,0.49 -0.254,0.742c0,0.228 0.065,0.449 0.197,0.662c0.131,0.213 0.33,0.401 0.597,0.564c0.268,0.162 0.705,0.333 1.313,0.513l1.901,0.562c0.233,0.068 0.572,0.2 1.016,0.394c0.445,0.194 0.791,0.4 1.038,0.616c0.248,0.216 0.442,0.481 0.583,0.795c0.141,0.313 0.211,0.652 0.211,1.017c0,0.807 -0.353,1.513 -1.06,2.118c-0.707,0.605 -1.621,0.908 -2.743,0.908c-0.578,0 -1.096,-0.084 -1.552,-0.251c-0.457,-0.168 -0.95,-0.466 -1.48,-0.893l-0.335,0.969l-0.511,0l-0.676,-3.65l0.677,-0.139c0.248,0.675 0.577,1.249 0.988,1.72c0.41,0.471 0.864,0.827 1.362,1.067c0.498,0.241 1.004,0.361 1.519,0.361c0.7,0 1.312,-0.211 1.836,-0.634c0.438,-0.355 0.656,-0.772 0.656,-1.253c0,-0.442 -0.158,-0.804 -0.473,-1.086c-0.321,-0.282 -0.894,-0.544 -1.72,-0.787l-1.822,-0.525c-1.02,-0.296 -1.739,-0.675 -2.156,-1.136c-0.418,-0.462 -0.627,-0.991 -0.627,-1.589c0,-0.466 0.136,-0.897 0.408,-1.293c0.272,-0.396 0.69,-0.727 1.253,-0.995c0.564,-0.267 1.181,-0.4 1.851,-0.4c0.564,0 1.103,0.097 1.618,0.291c0.364,0.136 0.699,0.33 1.005,0.583l0.307,-0.699Z" style="fill:#fff;fill-rule:nonzero;"/><path d="M155.746,76.94l2.762,-0.11l0,4.693c0,0.413 0.057,0.741 0.171,0.983c0.114,0.243 0.289,0.432 0.525,0.565c0.235,0.134 0.511,0.201 0.827,0.201c0.388,0 0.829,-0.105 1.322,-0.314c0.493,-0.209 0.985,-0.52 1.476,-0.932l0,-3.396c0,-0.359 -0.027,-0.595 -0.08,-0.707c-0.054,-0.111 -0.149,-0.201 -0.285,-0.269c-0.136,-0.068 -0.349,-0.102 -0.641,-0.102l-0.532,0l0,-0.612l2.762,-0.11l0,5.436c0,0.35 0.029,0.591 0.087,0.725c0.059,0.134 0.145,0.228 0.259,0.284c0.114,0.056 0.344,0.084 0.689,0.084l0.225,0l0,0.612l-2.419,0.124l0,-1.348c-0.665,0.529 -1.246,0.895 -1.741,1.097c-0.496,0.201 -0.998,0.302 -1.508,0.302c-0.379,0 -0.708,-0.051 -0.988,-0.153c-0.279,-0.102 -0.524,-0.255 -0.736,-0.459c-0.211,-0.204 -0.372,-0.449 -0.484,-0.736c-0.112,-0.287 -0.168,-0.593 -0.168,-0.918l0,-3.315c0,-0.297 -0.026,-0.504 -0.08,-0.623c-0.053,-0.119 -0.142,-0.214 -0.266,-0.285c-0.124,-0.07 -0.292,-0.105 -0.506,-0.105l-0.671,0l0,-0.612Z" style="fill:#fff;fill-rule:nonzero;"/><path d="M170.99,77.982l0,-0.605c0.364,0 0.687,-0.046 0.969,-0.137c0.281,-0.091 0.59,-0.25 0.925,-0.475l0.576,0l0,1.217c0.607,-0.481 1.112,-0.804 1.515,-0.969c0.403,-0.166 0.807,-0.248 1.21,-0.248c0.83,0 1.538,0.325 2.124,0.976c0.585,0.651 0.878,1.499 0.878,2.543c0,1.156 -0.333,2.103 -0.999,2.842c-0.607,0.68 -1.389,1.02 -2.346,1.02c-0.476,0 -0.923,-0.09 -1.34,-0.27c-0.302,-0.126 -0.649,-0.352 -1.042,-0.677l0,2.397c0,0.359 0.009,0.571 0.029,0.634c0.024,0.092 0.073,0.17 0.145,0.233c0.073,0.063 0.166,0.104 0.277,0.124c0.083,0.014 0.36,0.022 0.831,0.022l0,0.612l-3.752,0l0,-0.612l0.327,0c0.336,0 0.553,-0.026 0.653,-0.077c0.099,-0.051 0.173,-0.13 0.222,-0.237c0.029,-0.082 0.043,-0.335 0.043,-0.757l0,-7.556l-1.245,0Zm2.47,0.75l0,2.507c0,0.33 0.019,0.575 0.058,0.736c0.058,0.247 0.171,0.471 0.338,0.67c0.167,0.199 0.395,0.369 0.684,0.51c0.288,0.141 0.59,0.211 0.905,0.211c0.631,0 1.178,-0.238 1.641,-0.714c0.463,-0.476 0.694,-1.197 0.694,-2.164c0,-0.903 -0.191,-1.602 -0.574,-2.095c-0.383,-0.493 -0.837,-0.739 -1.36,-0.739c-0.34,0 -0.709,0.09 -1.106,0.269c-0.398,0.18 -0.825,0.45 -1.28,0.809Z" style="fill:#fff;fill-rule:nonzero;"/><path d="M186.553,82.091l0.467,0.379c-0.355,0.423 -0.699,0.758 -1.031,1.006c-0.333,0.247 -0.648,0.421 -0.944,0.521c-0.296,0.099 -0.644,0.149 -1.042,0.149c-0.714,0 -1.321,-0.146 -1.822,-0.437c-0.573,-0.335 -1.012,-0.773 -1.318,-1.312c-0.306,-0.539 -0.459,-1.175 -0.459,-1.909c0,-0.767 0.148,-1.423 0.444,-1.967c0.296,-0.544 0.71,-0.973 1.242,-1.286c0.532,-0.314 1.148,-0.47 1.847,-0.47c0.52,0 0.972,0.081 1.356,0.243c0.383,0.163 0.709,0.407 0.976,0.735c0.267,0.327 0.462,0.701 0.583,1.123c0.068,0.247 0.107,0.567 0.117,0.959l-5.152,0c-0.015,0.239 -0.022,0.416 -0.022,0.533c0,0.613 0.107,1.16 0.321,1.639c0.214,0.48 0.496,0.833 0.849,1.059c0.352,0.226 0.751,0.339 1.198,0.339c0.379,0 0.746,-0.088 1.101,-0.266c0.354,-0.177 0.784,-0.523 1.289,-1.038Zm-0.932,-2.944c-0.073,-0.446 -0.177,-0.777 -0.31,-0.99c-0.134,-0.214 -0.323,-0.384 -0.568,-0.511c-0.246,-0.126 -0.521,-0.189 -0.827,-0.189c-0.306,0 -0.593,0.063 -0.86,0.189c-0.267,0.127 -0.49,0.302 -0.667,0.525c-0.177,0.224 -0.331,0.549 -0.463,0.976l3.695,0Z" style="fill:#fff;fill-rule:nonzero;"/><path d="M188.069,77.982l0,-0.605c0.353,-0.029 0.668,-0.088 0.944,-0.177c0.276,-0.088 0.591,-0.234 0.945,-0.435l0.544,0l0,1.377c0.345,-0.423 0.746,-0.758 1.203,-1.006c0.456,-0.247 0.867,-0.371 1.231,-0.371c0.36,0 0.644,0.085 0.853,0.255c0.208,0.17 0.313,0.376 0.313,0.619c0,0.175 -0.069,0.329 -0.208,0.463c-0.138,0.133 -0.305,0.2 -0.499,0.2c-0.087,0 -0.163,-0.012 -0.226,-0.036c-0.063,-0.024 -0.155,-0.078 -0.277,-0.16c-0.267,-0.175 -0.49,-0.263 -0.67,-0.263c-0.243,0 -0.51,0.102 -0.801,0.306c-0.37,0.263 -0.659,0.52 -0.868,0.773l0,3.359c0,0.291 0.016,0.489 0.048,0.593c0.031,0.105 0.084,0.195 0.156,0.27c0.073,0.075 0.163,0.13 0.27,0.164c0.107,0.034 0.294,0.051 0.561,0.051l0.241,0l0,0.612l-3.768,0l0,-0.612l0.314,0c0.296,0 0.49,-0.027 0.583,-0.08c0.126,-0.073 0.22,-0.174 0.28,-0.303c0.061,-0.128 0.091,-0.36 0.091,-0.695l0,-4.299l-1.26,0Z" style="fill:#fff;fill-rule:nonzero;"/><path d="M196.434,73.479c0.233,0 0.432,0.081 0.597,0.244c0.165,0.162 0.248,0.36 0.248,0.594c0,0.233 -0.083,0.432 -0.248,0.597c-0.165,0.165 -0.364,0.248 -0.597,0.248c-0.234,0 -0.433,-0.083 -0.598,-0.248c-0.165,-0.165 -0.248,-0.364 -0.248,-0.597c0,-0.234 0.083,-0.432 0.248,-0.594c0.165,-0.163 0.364,-0.244 0.598,-0.244Zm-1.851,4.503l0,-0.605c0.403,-0.048 0.742,-0.115 1.016,-0.202c0.275,-0.086 0.587,-0.223 0.937,-0.41l0.531,0l0,5.843c0,0.205 0.03,0.358 0.088,0.46c0.058,0.102 0.14,0.176 0.244,0.222c0.104,0.046 0.295,0.069 0.572,0.069l0.342,0l0,0.612l-3.73,0l0,-0.612l0.299,0c0.325,0 0.544,-0.029 0.655,-0.087c0.112,-0.059 0.191,-0.141 0.237,-0.248c0.046,-0.107 0.069,-0.357 0.069,-0.751l0,-4.291l-1.26,0Z" style="fill:#fff;fill-rule:nonzero;"/><path d="M202.795,76.765c0.714,0 1.332,0.148 1.854,0.444c0.522,0.297 0.934,0.729 1.235,1.297c0.301,0.569 0.452,1.217 0.452,1.946c0,0.728 -0.155,1.377 -0.463,1.945c-0.308,0.569 -0.729,1.002 -1.261,1.301c-0.531,0.299 -1.167,0.448 -1.905,0.448c-1.175,0 -2.058,-0.367 -2.649,-1.1c-0.59,-0.734 -0.885,-1.596 -0.885,-2.587c0,-0.724 0.153,-1.366 0.459,-1.927c0.306,-0.561 0.735,-0.996 1.286,-1.304c0.552,-0.309 1.177,-0.463 1.877,-0.463Zm-0.059,0.707c-0.554,0 -1.022,0.218 -1.406,0.655c-0.486,0.544 -0.729,1.336 -0.729,2.376c0,1 0.207,1.763 0.62,2.288c0.374,0.466 0.881,0.699 1.523,0.699c0.412,0 0.78,-0.109 1.103,-0.328c0.323,-0.218 0.585,-0.567 0.784,-1.045c0.199,-0.479 0.298,-1.041 0.298,-1.687c0,-0.632 -0.106,-1.198 -0.32,-1.698c-0.165,-0.398 -0.414,-0.708 -0.747,-0.929c-0.333,-0.221 -0.708,-0.331 -1.126,-0.331Zm-1.173,-2.026l0,-0.255l1.348,-0.991c0.462,-0.34 0.848,-0.51 1.159,-0.51c0.145,0 0.268,0.052 0.368,0.157c0.099,0.104 0.149,0.234 0.149,0.389c0,0.19 -0.068,0.347 -0.204,0.47c-0.136,0.124 -0.381,0.225 -0.736,0.303l-2.084,0.437Z" style="fill:#fff;fill-rule:nonzero;"/><path d="M212.012,74.513l0,-0.619c0.33,-0.029 0.632,-0.086 0.907,-0.171c0.274,-0.085 0.618,-0.232 1.031,-0.441l0.546,0l0,8.838c0,0.408 0.01,0.656 0.03,0.744c0.048,0.184 0.131,0.313 0.247,0.386c0.117,0.073 0.343,0.109 0.678,0.109l0.313,0l0,0.612l-2.528,0.117l0,-1.159c-0.486,0.442 -0.941,0.755 -1.366,0.94c-0.425,0.185 -0.852,0.277 -1.279,0.277c-0.879,0 -1.609,-0.353 -2.19,-1.06c-0.58,-0.707 -0.87,-1.558 -0.87,-2.554c0,-0.709 0.154,-1.359 0.462,-1.949c0.309,-0.59 0.716,-1.041 1.221,-1.352c0.505,-0.311 1.059,-0.466 1.661,-0.466c0.462,0 0.889,0.08 1.283,0.24c0.393,0.161 0.752,0.401 1.078,0.722l0,-3.214l-1.224,0Zm1.224,7.695l0,-2.755c0,-0.393 -0.074,-0.715 -0.222,-0.965c-0.149,-0.25 -0.391,-0.467 -0.729,-0.652c-0.338,-0.185 -0.684,-0.277 -1.038,-0.277c-0.423,0 -0.813,0.115 -1.17,0.346c-0.357,0.231 -0.636,0.564 -0.838,0.998c-0.201,0.435 -0.302,0.961 -0.302,1.578c0,0.583 0.093,1.087 0.28,1.512c0.187,0.425 0.439,0.748 0.755,0.969c0.315,0.221 0.638,0.331 0.969,0.331c0.325,0 0.694,-0.093 1.107,-0.28c0.413,-0.187 0.809,-0.456 1.188,-0.805Z" style="fill:#fff;fill-rule:nonzero;"/><path d="M218.518,73.479c0.234,0 0.433,0.081 0.598,0.244c0.165,0.162 0.248,0.36 0.248,0.594c0,0.233 -0.083,0.432 -0.248,0.597c-0.165,0.165 -0.364,0.248 -0.598,0.248c-0.233,0 -0.432,-0.083 -0.597,-0.248c-0.165,-0.165 -0.248,-0.364 -0.248,-0.597c0,-0.234 0.083,-0.432 0.248,-0.594c0.165,-0.163 0.364,-0.244 0.597,-0.244Zm-1.85,4.503l0,-0.605c0.403,-0.048 0.742,-0.115 1.016,-0.202c0.275,-0.086 0.587,-0.223 0.937,-0.41l0.531,0l0,5.843c0,0.205 0.03,0.358 0.088,0.46c0.058,0.102 0.14,0.176 0.244,0.222c0.104,0.046 0.295,0.069 0.572,0.069l0.342,0l0,0.612l-3.73,0l0,-0.612l0.299,0c0.325,0 0.544,-0.029 0.655,-0.087c0.112,-0.059 0.191,-0.141 0.237,-0.248c0.046,-0.107 0.069,-0.357 0.069,-0.751l0,-4.291l-1.26,0Z" style="fill:#fff;fill-rule:nonzero;"/><path d="M227.641,81.938l0.466,0.379c-0.913,1.219 -2.008,1.829 -3.286,1.829c-0.996,0 -1.836,-0.355 -2.521,-1.064c-0.685,-0.709 -1.027,-1.591 -1.027,-2.645c0,-0.704 0.159,-1.337 0.477,-1.898c0.318,-0.561 0.76,-0.997 1.326,-1.308c0.566,-0.311 1.216,-0.466 1.949,-0.466c0.836,0 1.533,0.205 2.091,0.616c0.559,0.41 0.838,0.824 0.838,1.242c0,0.223 -0.065,0.396 -0.196,0.517c-0.132,0.122 -0.28,0.182 -0.445,0.182c-0.087,0 -0.172,-0.022 -0.255,-0.065c-0.082,-0.044 -0.167,-0.114 -0.255,-0.212c-0.039,-0.043 -0.109,-0.179 -0.211,-0.408c-0.131,-0.281 -0.233,-0.471 -0.306,-0.568c-0.151,-0.194 -0.337,-0.347 -0.558,-0.459c-0.221,-0.112 -0.467,-0.168 -0.739,-0.168c-0.413,0 -0.796,0.115 -1.148,0.343c-0.352,0.228 -0.631,0.565 -0.838,1.009c-0.206,0.445 -0.309,0.975 -0.309,1.592c0,0.957 0.255,1.717 0.765,2.281c0.442,0.486 0.969,0.728 1.581,0.728c0.282,0 0.567,-0.047 0.856,-0.142c0.289,-0.094 0.562,-0.234 0.82,-0.419c0.189,-0.131 0.498,-0.43 0.925,-0.896Z" style="fill:#fff;fill-rule:nonzero;"/><path d="M232.639,76.765c0.715,0 1.333,0.148 1.855,0.444c0.522,0.297 0.934,0.729 1.235,1.297c0.301,0.569 0.452,1.217 0.452,1.946c0,0.728 -0.155,1.377 -0.463,1.945c-0.308,0.569 -0.729,1.002 -1.261,1.301c-0.531,0.299 -1.167,0.448 -1.905,0.448c-1.175,0 -2.058,-0.367 -2.649,-1.1c-0.59,-0.734 -0.885,-1.596 -0.885,-2.587c0,-0.724 0.153,-1.366 0.459,-1.927c0.306,-0.561 0.735,-0.996 1.286,-1.304c0.552,-0.309 1.177,-0.463 1.876,-0.463Zm-0.058,0.707c-0.554,0 -1.022,0.218 -1.406,0.655c-0.486,0.544 -0.729,1.336 -0.729,2.376c0,1 0.207,1.763 0.62,2.288c0.374,0.466 0.881,0.699 1.522,0.699c0.413,0 0.781,-0.109 1.104,-0.328c0.323,-0.218 0.584,-0.567 0.784,-1.045c0.199,-0.479 0.298,-1.041 0.298,-1.687c0,-0.632 -0.106,-1.198 -0.32,-1.698c-0.165,-0.398 -0.414,-0.708 -0.747,-0.929c-0.333,-0.221 -0.708,-0.331 -1.126,-0.331Z" style="fill:#fff;fill-rule:nonzero;"/><path d="M246.629,74.513l0,-0.619c0.331,-0.029 0.633,-0.086 0.907,-0.171c0.275,-0.085 0.619,-0.232 1.031,-0.441l0.547,0l0,8.838c0,0.408 0.01,0.656 0.029,0.744c0.049,0.184 0.131,0.313 0.248,0.386c0.116,0.073 0.342,0.109 0.677,0.109l0.314,0l0,0.612l-2.529,0.117l0,-1.159c-0.485,0.442 -0.941,0.755 -1.366,0.94c-0.425,0.185 -0.851,0.277 -1.279,0.277c-0.879,0 -1.609,-0.353 -2.189,-1.06c-0.581,-0.707 -0.871,-1.558 -0.871,-2.554c0,-0.709 0.154,-1.359 0.463,-1.949c0.308,-0.59 0.715,-1.041 1.22,-1.352c0.506,-0.311 1.059,-0.466 1.662,-0.466c0.461,0 0.889,0.08 1.282,0.24c0.393,0.161 0.753,0.401 1.078,0.722l0,-3.214l-1.224,0Zm1.224,7.695l0,-2.755c0,-0.393 -0.074,-0.715 -0.222,-0.965c-0.148,-0.25 -0.391,-0.467 -0.728,-0.652c-0.338,-0.185 -0.684,-0.277 -1.039,-0.277c-0.422,0 -0.812,0.115 -1.169,0.346c-0.357,0.231 -0.637,0.564 -0.838,0.998c-0.202,0.435 -0.303,0.961 -0.303,1.578c0,0.583 0.094,1.087 0.281,1.512c0.187,0.425 0.438,0.748 0.754,0.969c0.316,0.221 0.639,0.331 0.969,0.331c0.326,0 0.695,-0.093 1.108,-0.28c0.413,-0.187 0.809,-0.456 1.187,-0.805Z" style="fill:#fff;fill-rule:nonzero;"/><path d="M257.581,82.091l0.466,0.379c-0.355,0.423 -0.698,0.758 -1.031,1.006c-0.333,0.247 -0.647,0.421 -0.944,0.521c-0.296,0.099 -0.643,0.149 -1.042,0.149c-0.714,0 -1.321,-0.146 -1.821,-0.437c-0.573,-0.335 -1.013,-0.773 -1.319,-1.312c-0.306,-0.539 -0.459,-1.175 -0.459,-1.909c0,-0.767 0.148,-1.423 0.444,-1.967c0.297,-0.544 0.711,-0.973 1.243,-1.286c0.532,-0.314 1.147,-0.47 1.847,-0.47c0.52,0 0.971,0.081 1.355,0.243c0.384,0.163 0.709,0.407 0.977,0.735c0.267,0.327 0.461,0.701 0.582,1.123c0.068,0.247 0.107,0.567 0.117,0.959l-5.151,0c-0.015,0.239 -0.022,0.416 -0.022,0.533c0,0.613 0.107,1.16 0.32,1.639c0.214,0.48 0.497,0.833 0.849,1.059c0.352,0.226 0.752,0.339 1.199,0.339c0.379,0 0.745,-0.088 1.1,-0.266c0.355,-0.177 0.785,-0.523 1.29,-1.038Zm-0.933,-2.944c-0.073,-0.446 -0.176,-0.777 -0.31,-0.99c-0.133,-0.214 -0.323,-0.384 -0.568,-0.511c-0.245,-0.126 -0.521,-0.189 -0.827,-0.189c-0.306,0 -0.593,0.063 -0.86,0.189c-0.267,0.127 -0.489,0.302 -0.666,0.525c-0.178,0.224 -0.332,0.549 -0.463,0.976l3.694,0Z" style="fill:#fff;fill-rule:nonzero;"/><path d="M270.886,73.807l0.526,0l0.778,3.133l-0.678,0.204c-0.427,-0.88 -0.994,-1.572 -1.703,-2.077c-0.582,-0.423 -1.227,-0.634 -1.935,-0.634c-0.427,0 -0.811,0.077 -1.15,0.229c-0.34,0.153 -0.595,0.351 -0.764,0.593c-0.17,0.243 -0.255,0.49 -0.255,0.742c0,0.228 0.066,0.449 0.197,0.662c0.131,0.213 0.33,0.401 0.598,0.564c0.267,0.162 0.705,0.333 1.312,0.513l1.902,0.562c0.233,0.068 0.571,0.2 1.016,0.394c0.444,0.194 0.79,0.4 1.038,0.616c0.247,0.216 0.441,0.481 0.582,0.795c0.141,0.313 0.211,0.652 0.211,1.017c0,0.807 -0.353,1.513 -1.06,2.118c-0.706,0.605 -1.621,0.908 -2.743,0.908c-0.578,0 -1.095,-0.084 -1.552,-0.251c-0.457,-0.168 -0.95,-0.466 -1.479,-0.893l-0.335,0.969l-0.511,0l-0.677,-3.65l0.678,-0.139c0.247,0.675 0.576,1.249 0.987,1.72c0.41,0.471 0.865,0.827 1.363,1.067c0.497,0.241 1.004,0.361 1.519,0.361c0.699,0 1.311,-0.211 1.836,-0.634c0.437,-0.355 0.656,-0.772 0.656,-1.253c0,-0.442 -0.158,-0.804 -0.474,-1.086c-0.321,-0.282 -0.894,-0.544 -1.72,-0.787l-1.821,-0.525c-1.02,-0.296 -1.739,-0.675 -2.157,-1.136c-0.418,-0.462 -0.627,-0.991 -0.627,-1.589c0,-0.466 0.136,-0.897 0.409,-1.293c0.272,-0.396 0.689,-0.727 1.253,-0.995c0.563,-0.267 1.18,-0.4 1.85,-0.4c0.564,0 1.103,0.097 1.618,0.291c0.364,0.136 0.7,0.33 1.006,0.583l0.306,-0.699Z" style="fill:#fff;fill-rule:nonzero;"/><path d="M275.52,73.479c0.233,0 0.432,0.081 0.597,0.244c0.165,0.162 0.248,0.36 0.248,0.594c0,0.233 -0.083,0.432 -0.248,0.597c-0.165,0.165 -0.364,0.248 -0.597,0.248c-0.233,0 -0.433,-0.083 -0.598,-0.248c-0.165,-0.165 -0.247,-0.364 -0.247,-0.597c0,-0.234 0.082,-0.432 0.247,-0.594c0.165,-0.163 0.365,-0.244 0.598,-0.244Zm-1.851,4.503l0,-0.605c0.403,-0.048 0.742,-0.115 1.016,-0.202c0.275,-0.086 0.587,-0.223 0.937,-0.41l0.532,0l0,5.843c0,0.205 0.029,0.358 0.087,0.46c0.058,0.102 0.14,0.176 0.244,0.222c0.105,0.046 0.295,0.069 0.572,0.069l0.343,0l0,0.612l-3.731,0l0,-0.612l0.299,0c0.325,0 0.544,-0.029 0.656,-0.087c0.111,-0.059 0.19,-0.141 0.236,-0.248c0.046,-0.107 0.07,-0.357 0.07,-0.751l0,-4.291l-1.261,0Z" style="fill:#fff;fill-rule:nonzero;"/><path d="M284.438,82.091l0.467,0.379c-0.355,0.423 -0.699,0.758 -1.031,1.006c-0.333,0.247 -0.648,0.421 -0.944,0.521c-0.296,0.099 -0.644,0.149 -1.042,0.149c-0.714,0 -1.321,-0.146 -1.822,-0.437c-0.573,-0.335 -1.012,-0.773 -1.318,-1.312c-0.306,-0.539 -0.459,-1.175 -0.459,-1.909c0,-0.767 0.148,-1.423 0.444,-1.967c0.296,-0.544 0.71,-0.973 1.242,-1.286c0.532,-0.314 1.148,-0.47 1.847,-0.47c0.52,0 0.972,0.081 1.356,0.243c0.383,0.163 0.709,0.407 0.976,0.735c0.267,0.327 0.462,0.701 0.583,1.123c0.068,0.247 0.107,0.567 0.117,0.959l-5.152,0c-0.014,0.239 -0.022,0.416 -0.022,0.533c0,0.613 0.107,1.16 0.321,1.639c0.214,0.48 0.497,0.833 0.849,1.059c0.352,0.226 0.751,0.339 1.198,0.339c0.379,0 0.746,-0.088 1.101,-0.266c0.354,-0.177 0.784,-0.523 1.289,-1.038Zm-0.932,-2.944c-0.073,-0.446 -0.176,-0.777 -0.31,-0.99c-0.134,-0.214 -0.323,-0.384 -0.568,-0.511c-0.246,-0.126 -0.521,-0.189 -0.827,-0.189c-0.306,0 -0.593,0.063 -0.86,0.189c-0.267,0.127 -0.49,0.302 -0.667,0.525c-0.177,0.224 -0.331,0.549 -0.463,0.976l3.695,0Z" style="fill:#fff;fill-rule:nonzero;"/><path d="M285.939,77.996l0,-0.619c0.366,-0.035 0.685,-0.095 0.958,-0.181c0.272,-0.086 0.584,-0.23 0.935,-0.431l0.541,0l0,1.224c0.554,-0.437 0.986,-0.731 1.297,-0.882c0.476,-0.228 0.93,-0.342 1.362,-0.342c0.297,0 0.587,0.054 0.871,0.164c0.284,0.109 0.513,0.244 0.685,0.404c0.173,0.16 0.319,0.379 0.441,0.656c0.51,-0.452 0.982,-0.769 1.417,-0.951c0.435,-0.182 0.876,-0.273 1.323,-0.273c0.427,0 0.805,0.088 1.133,0.266c0.327,0.177 0.565,0.399 0.714,0.666c0.148,0.268 0.222,0.659 0.222,1.174l0,3.38c0,0.355 0.007,0.562 0.022,0.62c0.024,0.092 0.076,0.18 0.155,0.262c0.08,0.083 0.171,0.141 0.272,0.175c0.101,0.034 0.29,0.051 0.565,0.051l0.232,0l0,0.612l-3.651,0l0,-0.612c0.418,-0.005 0.689,-0.035 0.813,-0.091c0.124,-0.056 0.216,-0.147 0.277,-0.273c0.06,-0.127 0.091,-0.374 0.091,-0.744l0,-3.213c0,-0.408 -0.037,-0.69 -0.11,-0.845c-0.073,-0.155 -0.203,-0.285 -0.39,-0.39c-0.188,-0.104 -0.42,-0.157 -0.698,-0.157c-0.345,0 -0.708,0.093 -1.088,0.277c-0.506,0.253 -0.905,0.537 -1.197,0.853l0,3.475c0,0.336 0.016,0.555 0.047,0.66c0.032,0.104 0.085,0.192 0.161,0.262c0.075,0.071 0.162,0.119 0.262,0.146c0.099,0.027 0.341,0.04 0.725,0.04l0,0.612l-3.585,0l0,-0.612l0.204,0c0.287,0 0.489,-0.034 0.608,-0.102c0.119,-0.068 0.213,-0.172 0.281,-0.313c0.048,-0.112 0.073,-0.343 0.073,-0.693l0,-3.104c0,-0.456 -0.036,-0.765 -0.106,-0.925c-0.071,-0.16 -0.206,-0.296 -0.405,-0.408c-0.2,-0.112 -0.434,-0.168 -0.701,-0.168c-0.317,0 -0.636,0.078 -0.957,0.234c-0.477,0.228 -0.915,0.527 -1.314,0.896l0,3.745c0,0.224 0.03,0.387 0.091,0.492c0.061,0.104 0.157,0.188 0.288,0.251c0.131,0.063 0.311,0.095 0.539,0.095l0.27,0l0,0.612l-3.658,0l0,-0.612l0.195,0c0.334,0 0.553,-0.027 0.66,-0.08c0.154,-0.073 0.265,-0.19 0.333,-0.35c0.038,-0.087 0.058,-0.313 0.058,-0.678l0,-4.255l-1.261,0Z" style="fill:#fff;fill-rule:nonzero;"/><path d="M299.915,77.982l0,-0.605c0.364,0 0.687,-0.046 0.969,-0.137c0.281,-0.091 0.59,-0.25 0.925,-0.475l0.576,0l0,1.217c0.607,-0.481 1.112,-0.804 1.515,-0.969c0.403,-0.166 0.807,-0.248 1.21,-0.248c0.83,0 1.538,0.325 2.124,0.976c0.585,0.651 0.878,1.499 0.878,2.543c0,1.156 -0.333,2.103 -0.999,2.842c-0.607,0.68 -1.389,1.02 -2.346,1.02c-0.476,0 -0.923,-0.09 -1.34,-0.27c-0.302,-0.126 -0.649,-0.352 -1.042,-0.677l0,2.397c0,0.359 0.009,0.571 0.029,0.634c0.024,0.092 0.073,0.17 0.145,0.233c0.073,0.063 0.166,0.104 0.277,0.124c0.083,0.014 0.36,0.022 0.831,0.022l0,0.612l-3.752,0l0,-0.612l0.327,0c0.336,0 0.553,-0.026 0.653,-0.077c0.099,-0.051 0.173,-0.13 0.222,-0.237c0.029,-0.082 0.043,-0.335 0.043,-0.757l0,-7.556l-1.245,0Zm2.47,0.75l0,2.507c0,0.33 0.019,0.575 0.058,0.736c0.058,0.247 0.171,0.471 0.338,0.67c0.167,0.199 0.395,0.369 0.684,0.51c0.288,0.141 0.59,0.211 0.905,0.211c0.631,0 1.178,-0.238 1.641,-0.714c0.463,-0.476 0.694,-1.197 0.694,-2.164c0,-0.903 -0.191,-1.602 -0.574,-2.095c-0.383,-0.493 -0.837,-0.739 -1.36,-0.739c-0.34,0 -0.709,0.09 -1.106,0.269c-0.398,0.18 -0.825,0.45 -1.28,0.809Z" style="fill:#fff;fill-rule:nonzero;"/><path d="M309.234,77.982l0,-0.605c0.353,-0.029 0.668,-0.088 0.944,-0.177c0.276,-0.088 0.591,-0.234 0.945,-0.435l0.544,0l0,1.377c0.345,-0.423 0.746,-0.758 1.203,-1.006c0.456,-0.247 0.867,-0.371 1.231,-0.371c0.36,0 0.644,0.085 0.853,0.255c0.208,0.17 0.313,0.376 0.313,0.619c0,0.175 -0.069,0.329 -0.208,0.463c-0.138,0.133 -0.305,0.2 -0.499,0.2c-0.087,0 -0.163,-0.012 -0.226,-0.036c-0.063,-0.024 -0.155,-0.078 -0.277,-0.16c-0.267,-0.175 -0.49,-0.263 -0.67,-0.263c-0.243,0 -0.51,0.102 -0.802,0.306c-0.369,0.263 -0.658,0.52 -0.867,0.773l0,3.359c0,0.291 0.016,0.489 0.048,0.593c0.031,0.105 0.084,0.195 0.156,0.27c0.073,0.075 0.163,0.13 0.27,0.164c0.107,0.034 0.294,0.051 0.561,0.051l0.241,0l0,0.612l-3.768,0l0,-0.612l0.314,0c0.296,0 0.49,-0.027 0.583,-0.08c0.126,-0.073 0.22,-0.174 0.28,-0.303c0.061,-0.128 0.091,-0.36 0.091,-0.695l0,-4.299l-1.26,0Z" style="fill:#fff;fill-rule:nonzero;"/><path d="M322.043,82.091l0.467,0.379c-0.355,0.423 -0.699,0.758 -1.031,1.006c-0.333,0.247 -0.648,0.421 -0.944,0.521c-0.296,0.099 -0.644,0.149 -1.042,0.149c-0.714,0 -1.321,-0.146 -1.822,-0.437c-0.573,-0.335 -1.012,-0.773 -1.318,-1.312c-0.306,-0.539 -0.459,-1.175 -0.459,-1.909c0,-0.767 0.148,-1.423 0.444,-1.967c0.296,-0.544 0.71,-0.973 1.242,-1.286c0.532,-0.314 1.148,-0.47 1.847,-0.47c0.52,0 0.972,0.081 1.356,0.243c0.383,0.163 0.709,0.407 0.976,0.735c0.267,0.327 0.461,0.701 0.583,1.123c0.068,0.247 0.107,0.567 0.117,0.959l-5.152,0c-0.015,0.239 -0.022,0.416 -0.022,0.533c0,0.613 0.107,1.16 0.321,1.639c0.214,0.48 0.496,0.833 0.849,1.059c0.352,0.226 0.751,0.339 1.198,0.339c0.379,0 0.746,-0.088 1.101,-0.266c0.354,-0.177 0.784,-0.523 1.289,-1.038Zm-0.932,-2.944c-0.073,-0.446 -0.177,-0.777 -0.31,-0.99c-0.134,-0.214 -0.323,-0.384 -0.568,-0.511c-0.246,-0.126 -0.521,-0.189 -0.827,-0.189c-0.306,0 -0.593,0.063 -0.86,0.189c-0.267,0.127 -0.49,0.302 -0.667,0.525c-0.177,0.224 -0.331,0.549 -0.463,0.976l3.695,0Z" style="fill:#fff;fill-rule:nonzero;"/><path d="M325.409,82.273c0.258,0 0.475,0.089 0.653,0.266c0.177,0.178 0.266,0.393 0.266,0.645c0,0.253 -0.09,0.468 -0.27,0.645c-0.18,0.177 -0.396,0.266 -0.649,0.266c-0.247,0 -0.461,-0.089 -0.641,-0.266c-0.179,-0.177 -0.269,-0.392 -0.269,-0.645c0,-0.252 0.088,-0.467 0.266,-0.645c0.177,-0.177 0.392,-0.266 0.644,-0.266Z" style="fill:#fff;fill-rule:nonzero;"/><path d="M330.182,82.273c0.258,0 0.475,0.089 0.652,0.266c0.177,0.178 0.266,0.393 0.266,0.645c0,0.253 -0.09,0.468 -0.269,0.645c-0.18,0.177 -0.396,0.266 -0.649,0.266c-0.248,0 -0.461,-0.089 -0.641,-0.266c-0.18,-0.177 -0.27,-0.392 -0.27,-0.645c0,-0.252 0.089,-0.467 0.266,-0.645c0.178,-0.177 0.392,-0.266 0.645,-0.266Z" style="fill:#fff;fill-rule:nonzero;"/><path d="M334.955,82.273c0.257,0 0.474,0.089 0.652,0.266c0.177,0.178 0.266,0.393 0.266,0.645c0,0.253 -0.09,0.468 -0.27,0.645c-0.18,0.177 -0.396,0.266 -0.648,0.266c-0.248,0 -0.462,-0.089 -0.642,-0.266c-0.179,-0.177 -0.269,-0.392 -0.269,-0.645c0,-0.252 0.088,-0.467 0.266,-0.645c0.177,-0.177 0.392,-0.266 0.645,-0.266Z" style="fill:#fff;fill-rule:nonzero;"/><path d="M338.044,73.807l3.211,0l3.001,8.051l2.931,-8.051l3.098,0l0,0.612l-0.262,0c-0.316,0 -0.528,0.027 -0.638,0.08c-0.109,0.054 -0.195,0.148 -0.258,0.283c-0.064,0.134 -0.095,0.356 -0.095,0.664l0,6.703c0,0.423 0.025,0.698 0.076,0.824c0.051,0.126 0.136,0.222 0.255,0.288c0.119,0.065 0.339,0.098 0.66,0.098l0.262,0l0,0.612l-3.883,0l0,-0.612l0.276,0c0.248,0 0.429,-0.019 0.543,-0.058c0.114,-0.039 0.209,-0.104 0.284,-0.193c0.076,-0.09 0.118,-0.184 0.128,-0.281c0.024,-0.199 0.036,-0.355 0.036,-0.466l0,-7.483l-3.319,9.093l-0.728,0l-3.341,-8.962l0,7.199c0,0.366 0.032,0.615 0.095,0.744c0.063,0.13 0.161,0.23 0.295,0.301c0.133,0.071 0.373,0.106 0.717,0.106l0.234,0l0,0.612l-3.578,0l0,-0.612l0.204,0c0.345,0 0.591,-0.036 0.74,-0.109c0.148,-0.073 0.253,-0.176 0.317,-0.31c0.063,-0.134 0.094,-0.397 0.094,-0.791l0,-6.637c0,-0.372 -0.026,-0.618 -0.08,-0.738c-0.053,-0.119 -0.142,-0.209 -0.266,-0.267c-0.124,-0.059 -0.343,-0.088 -0.659,-0.088l-0.35,0l0,-0.612Z" style="fill:#fff;fill-rule:nonzero;"/><path d="M357.848,82.091l0.467,0.379c-0.355,0.423 -0.699,0.758 -1.031,1.006c-0.333,0.247 -0.648,0.421 -0.944,0.521c-0.296,0.099 -0.644,0.149 -1.042,0.149c-0.714,0 -1.321,-0.146 -1.821,-0.437c-0.574,-0.335 -1.013,-0.773 -1.319,-1.312c-0.306,-0.539 -0.459,-1.175 -0.459,-1.909c0,-0.767 0.148,-1.423 0.444,-1.967c0.296,-0.544 0.711,-0.973 1.243,-1.286c0.531,-0.314 1.147,-0.47 1.847,-0.47c0.519,0 0.971,0.081 1.355,0.243c0.384,0.163 0.709,0.407 0.976,0.735c0.267,0.327 0.462,0.701 0.583,1.123c0.068,0.247 0.107,0.567 0.117,0.959l-5.152,0c-0.014,0.239 -0.022,0.416 -0.022,0.533c0,0.613 0.107,1.16 0.321,1.639c0.214,0.48 0.497,0.833 0.849,1.059c0.352,0.226 0.752,0.339 1.198,0.339c0.379,0 0.746,-0.088 1.101,-0.266c0.354,-0.177 0.784,-0.523 1.289,-1.038Zm-0.932,-2.944c-0.073,-0.446 -0.176,-0.777 -0.31,-0.99c-0.134,-0.214 -0.323,-0.384 -0.568,-0.511c-0.246,-0.126 -0.521,-0.189 -0.827,-0.189c-0.306,0 -0.593,0.063 -0.86,0.189c-0.267,0.127 -0.489,0.302 -0.667,0.525c-0.177,0.224 -0.331,0.549 -0.462,0.976l3.694,0Z" style="fill:#fff;fill-rule:nonzero;"/><path d="M361.255,73.479c0.234,0 0.434,0.081 0.6,0.244c0.166,0.162 0.249,0.36 0.249,0.594c0,0.233 -0.083,0.432 -0.249,0.597c-0.166,0.165 -0.366,0.248 -0.6,0.248c-0.234,0 -0.433,-0.083 -0.597,-0.248c-0.163,-0.165 -0.245,-0.364 -0.245,-0.597c0,-0.234 0.082,-0.432 0.245,-0.594c0.164,-0.163 0.363,-0.244 0.597,-0.244Zm-1.847,4.517l0,-0.605c0.363,-0.034 0.675,-0.092 0.937,-0.174c0.261,-0.083 0.6,-0.234 1.017,-0.452l0.53,0l0,7.935c0,0.573 -0.109,1.054 -0.328,1.442c-0.218,0.389 -0.524,0.697 -0.918,0.926c-0.393,0.228 -0.862,0.342 -1.406,0.342c-0.525,0 -0.942,-0.109 -1.253,-0.328c-0.311,-0.218 -0.466,-0.444 -0.466,-0.677c0,-0.195 0.061,-0.355 0.185,-0.481c0.124,-0.127 0.286,-0.19 0.485,-0.19c0.116,0 0.217,0.022 0.302,0.066c0.085,0.044 0.205,0.143 0.361,0.299c0.233,0.233 0.42,0.388 0.561,0.466c0.102,0.058 0.216,0.087 0.342,0.087c0.302,0 0.54,-0.145 0.714,-0.436c0.132,-0.214 0.197,-0.561 0.197,-1.041l0,-7.179l-1.26,0Z" style="fill:#fff;fill-rule:nonzero;"/><path d="M367.525,76.765c0.714,0 1.332,0.148 1.854,0.444c0.522,0.297 0.934,0.729 1.235,1.297c0.301,0.569 0.452,1.217 0.452,1.946c0,0.728 -0.154,1.377 -0.463,1.945c-0.308,0.569 -0.728,1.002 -1.26,1.301c-0.532,0.299 -1.167,0.448 -1.906,0.448c-1.175,0 -2.058,-0.367 -2.648,-1.1c-0.591,-0.734 -0.886,-1.596 -0.886,-2.587c0,-0.724 0.153,-1.366 0.459,-1.927c0.306,-0.561 0.735,-0.996 1.286,-1.304c0.552,-0.309 1.177,-0.463 1.877,-0.463Zm-0.059,0.707c-0.553,0 -1.022,0.218 -1.406,0.655c-0.486,0.544 -0.728,1.336 -0.728,2.376c0,1 0.206,1.763 0.619,2.288c0.374,0.466 0.881,0.699 1.523,0.699c0.413,0 0.781,-0.109 1.104,-0.328c0.323,-0.218 0.584,-0.567 0.783,-1.045c0.199,-0.479 0.299,-1.041 0.299,-1.687c0,-0.632 -0.107,-1.198 -0.321,-1.698c-0.165,-0.398 -0.414,-0.708 -0.747,-0.929c-0.333,-0.221 -0.708,-0.331 -1.126,-0.331Z" style="fill:#fff;fill-rule:nonzero;"/><path d="M372.195,77.982l0,-0.605c0.354,-0.029 0.669,-0.088 0.945,-0.177c0.276,-0.088 0.59,-0.234 0.944,-0.435l0.545,0l0,1.377c0.345,-0.423 0.746,-0.758 1.202,-1.006c0.457,-0.247 0.867,-0.371 1.232,-0.371c0.359,0 0.643,0.085 0.852,0.255c0.209,0.17 0.313,0.376 0.313,0.619c0,0.175 -0.069,0.329 -0.207,0.463c-0.139,0.133 -0.305,0.2 -0.499,0.2c-0.088,0 -0.163,-0.012 -0.226,-0.036c-0.063,-0.024 -0.156,-0.078 -0.277,-0.16c-0.267,-0.175 -0.491,-0.263 -0.671,-0.263c-0.242,0 -0.51,0.102 -0.801,0.306c-0.369,0.263 -0.658,0.52 -0.867,0.773l0,3.359c0,0.291 0.016,0.489 0.047,0.593c0.032,0.105 0.084,0.195 0.157,0.27c0.073,0.075 0.163,0.13 0.27,0.164c0.106,0.034 0.293,0.051 0.561,0.051l0.24,0l0,0.612l-3.767,0l0,-0.612l0.313,0c0.297,0 0.491,-0.027 0.583,-0.08c0.126,-0.073 0.22,-0.174 0.281,-0.303c0.06,-0.128 0.091,-0.36 0.091,-0.695l0,-4.299l-1.261,0Z" style="fill:#fff;fill-rule:nonzero;"/><path d="M380.152,81.53l-0.554,-6.514c-0.019,-0.184 -0.029,-0.301 -0.029,-0.35c0,-0.354 0.078,-0.615 0.233,-0.783c0.156,-0.168 0.384,-0.251 0.685,-0.251c0.262,0 0.475,0.08 0.638,0.24c0.162,0.16 0.244,0.377 0.244,0.649c0,0.087 -0.012,0.233 -0.037,0.437l-0.583,6.572l-0.597,0Zm0.313,0.743c0.258,0 0.475,0.089 0.652,0.266c0.178,0.178 0.266,0.393 0.266,0.645c0,0.253 -0.089,0.468 -0.269,0.645c-0.18,0.177 -0.396,0.266 -0.649,0.266c-0.247,0 -0.461,-0.089 -0.641,-0.266c-0.18,-0.177 -0.27,-0.392 -0.27,-0.645c0,-0.252 0.089,-0.467 0.266,-0.645c0.178,-0.177 0.393,-0.266 0.645,-0.266Z" style="fill:#fff;fill-rule:nonzero;"/></g></svg>