<?xml version="1.0" encoding="UTF-8" standalone="no"?><!DOCTYPE svg PUBLIC "-//W3C//DTD SVG 1.1//EN" "http://www.w3.org/Graphics/SVG/1.1/DTD/svg11.dtd"><svg width="100%" height="100%" viewBox="0 0 528 90" version="1.1" xmlns="http://www.w3.org/2000/svg" xmlns:xlink="http://www.w3.org/1999/xlink" xml:space="preserve" xmlns:serif="http://www.serif.com/" style="fill-rule:evenodd;clip-rule:evenodd;stroke-linejoin:round;stroke-miterlimit:1.41421;"><g id="Capa2"><rect x="-18.167" y="-3.076" width="564.334" height="97.914" style="fill:#003f8d;"/></g><g id="Capa1"><path d="M4.388,29.837l18.422,0l0,6.526l-1.613,0c-0.896,0 -1.461,0.056 -1.694,0.169c-0.43,0.225 -0.744,0.569 -0.941,1.031c-0.198,0.462 -0.296,1.201 -0.296,2.215l0,26.95c0,1.082 0.04,1.747 0.121,1.995c0.082,0.248 0.248,0.445 0.501,0.592c0.252,0.146 0.739,0.22 1.461,0.22c2.416,0 4.359,-0.395 5.829,-1.184c1.47,-0.789 2.796,-2.057 3.977,-3.804c1.181,-1.747 2.195,-4.12 3.043,-7.118l4.978,2.13l-4.978,17.448l-28.81,0l0,-6.526l1.802,0c0.735,0 1.291,-0.124 1.667,-0.372c0.377,-0.248 0.65,-0.58 0.821,-0.997c0.17,-0.417 0.255,-1.144 0.255,-2.181l0,-26.713c0,-1.127 -0.085,-1.939 -0.255,-2.435c-0.171,-0.496 -0.413,-0.857 -0.727,-1.082c-0.313,-0.225 -0.838,-0.338 -1.573,-0.338l-1.99,0l0,-6.526Z" style="fill:#fff;fill-rule:nonzero;"/><path d="M53.378,29.837l8.476,0l11.326,36.418c0.613,1.938 1.159,3.133 1.637,3.584c0.477,0.451 1.357,0.665 2.637,0.642l0,6.526l-17.854,0l0,-6.526l1.083,-0.033c0.992,0 1.686,-0.164 2.083,-0.491c0.397,-0.327 0.596,-0.727 0.596,-1.2c0,-0.406 -0.172,-1.241 -0.514,-2.503l-1.126,-4.294l-11.474,0l-1.414,4.768c-0.289,1.014 -0.433,1.679 -0.433,1.995c0,0.361 0.104,0.688 0.311,0.981c0.207,0.293 0.546,0.507 1.014,0.642c0.307,0.09 1.155,0.135 2.543,0.135l0,6.526l-14.607,0l0,-6.526c0.937,0 1.622,-0.101 2.055,-0.304c0.433,-0.203 0.789,-0.507 1.068,-0.913c0.279,-0.406 0.59,-1.161 0.933,-2.266l11.66,-37.161Zm-1.133,25.394l7.495,0l-3.652,-12.954l-3.843,12.954Z" style="fill:#fff;fill-rule:nonzero;"/><path d="M98.202,29.837l18.422,0l0,6.526l-1.677,0c-0.974,0 -1.618,0.107 -1.934,0.321c-0.316,0.214 -0.55,0.552 -0.703,1.015c-0.154,0.462 -0.23,1.346 -0.23,2.654l0,26.104c0,1.421 0.063,2.334 0.189,2.739c0.126,0.406 0.343,0.699 0.649,0.88c0.379,0.27 0.947,0.405 1.705,0.405l2.001,0l0,6.526l-18.422,0l0,-6.526l1.497,0c1.071,0 1.769,-0.095 2.096,-0.287c0.326,-0.192 0.566,-0.496 0.721,-0.913c0.154,-0.417 0.231,-1.246 0.231,-2.485l0,-26.206c0,-1.466 -0.077,-2.429 -0.231,-2.891c-0.155,-0.463 -0.413,-0.818 -0.776,-1.066c-0.254,-0.18 -0.871,-0.27 -1.85,-0.27l-1.688,0l0,-6.526Z" style="fill:#fff;fill-rule:nonzero;"/><path d="M120.628,29.837l15.308,0l11.067,27.524l0,-16.839c0,-1.443 -0.063,-2.344 -0.189,-2.705c-0.181,-0.541 -0.424,-0.919 -0.731,-1.133c-0.306,-0.214 -0.901,-0.321 -1.785,-0.321l-1.84,0l0,-6.526l15.555,0l0,6.526l-1.721,0c-0.861,0 -1.475,0.124 -1.842,0.372c-0.368,0.248 -0.623,0.586 -0.767,1.014c-0.143,0.429 -0.215,1.353 -0.215,2.773l0,36.485l-7.763,0l-14.013,-34.76l0,24.312c0,1.398 0.067,2.288 0.202,2.671c0.134,0.383 0.376,0.688 0.726,0.913c0.349,0.226 0.954,0.338 1.815,0.338l1.802,0l0,6.526l-15.609,0l0,-6.526l1.613,0c0.897,0 1.511,-0.095 1.842,-0.287c0.332,-0.192 0.596,-0.524 0.794,-0.998c0.197,-0.473 0.296,-1.183 0.296,-2.13l0,-27.051c0,-1.037 -0.09,-1.798 -0.269,-2.283c-0.179,-0.484 -0.421,-0.834 -0.726,-1.048c-0.305,-0.214 -0.816,-0.321 -1.533,-0.321l-2.017,0l0,-6.526Z" style="fill:#fff;fill-rule:nonzero;"/><path d="M161.611,29.837l31.214,0l4.277,15.047l-4.896,2.13c-0.794,-2.186 -1.551,-3.838 -2.273,-4.953c-0.721,-1.116 -1.578,-2.046 -2.569,-2.79c-0.992,-0.744 -2.065,-1.24 -3.22,-1.488c-0.775,-0.158 -2.146,-0.237 -4.111,-0.237l-4.653,0l0,12.512l2.38,0c0.902,0 1.61,-0.169 2.124,-0.508c0.514,-0.338 0.884,-0.777 1.109,-1.318c0.225,-0.541 0.338,-1.443 0.338,-2.706l0,-2.502l4.869,0l0,21.1l-4.869,0l0,-3.043c0,-0.879 -0.063,-1.522 -0.189,-1.927c-0.163,-0.541 -0.388,-0.981 -0.676,-1.319c-0.289,-0.338 -0.618,-0.575 -0.988,-0.71c-0.37,-0.136 -1.041,-0.203 -2.015,-0.203l-2.083,0l0,9.907c0,1.195 0.081,2.001 0.243,2.418c0.163,0.417 0.424,0.727 0.785,0.93c0.36,0.203 1.055,0.304 2.083,0.304l1.542,0l0,6.526l-18.422,0l0,-6.526l1.224,0c1.361,0 2.255,-0.219 2.681,-0.659c0.426,-0.44 0.639,-1.324 0.639,-2.654l0,-27.119c0,-1.24 -0.081,-2.063 -0.245,-2.469c-0.163,-0.406 -0.435,-0.71 -0.816,-0.913c-0.381,-0.203 -1.134,-0.304 -2.259,-0.304l-1.224,0l0,-6.526Z" style="fill:#fff;fill-rule:nonzero;"/><path d="M219.474,29.025c5.987,0 10.834,2.277 14.54,6.831c3.706,4.553 5.559,10.403 5.559,17.549c0,4.802 -0.848,9.062 -2.543,12.782c-1.695,3.719 -4.035,6.588 -7.02,8.606c-2.985,2.017 -6.587,3.026 -10.807,3.026c-5.573,0 -10.135,-1.916 -13.688,-5.748c-4.292,-4.622 -6.438,-10.798 -6.438,-18.531c0,-7.191 1.88,-13.074 5.64,-17.651c3.76,-4.576 8.679,-6.864 14.757,-6.864Zm0.108,7.507c-2.868,0 -5.149,1.341 -6.844,4.024c-2.128,3.381 -3.192,7.743 -3.192,13.086c0,5.343 0.992,9.569 2.975,12.68c1.714,2.66 3.977,3.99 6.79,3.99c2.832,0 5.095,-1.33 6.79,-3.99c2.002,-3.178 3.003,-7.428 3.003,-12.748c0,-3.742 -0.429,-6.887 -1.285,-9.434c-0.857,-2.547 -2.015,-4.452 -3.476,-5.714c-1.461,-1.263 -3.048,-1.894 -4.761,-1.894Z" style="fill:#fff;fill-rule:nonzero;"/><path d="M243.441,29.837l23.281,0c1.498,0 3.136,0.169 4.913,0.507c1.778,0.338 3.384,1.082 4.819,2.232c1.435,1.149 2.549,2.603 3.343,4.362c0.794,1.758 1.191,3.742 1.191,5.951c0,3.584 -1.023,6.487 -3.07,8.707c-2.047,2.221 -4.468,3.669 -7.263,4.345l7.763,11.294l0.325,0.507c0.505,0.767 0.965,1.336 1.38,1.708c0.414,0.372 0.829,0.637 1.244,0.795c0.415,0.157 0.992,0.236 1.731,0.236l1.623,0l0,6.526l-12.092,0l-12.119,-20.322l-3.138,0l0,9.4c0,1.624 0.073,2.655 0.217,3.094c0.144,0.44 0.374,0.767 0.69,0.981c0.315,0.214 0.951,0.321 1.907,0.321l1.731,0l0,6.526l-18.476,0l0,-6.526l1.687,0c0.889,0 1.52,-0.118 1.892,-0.355c0.371,-0.236 0.648,-0.591 0.83,-1.065c0.09,-0.27 0.136,-1.116 0.136,-2.536l0,-26.544c0,-1.037 -0.068,-1.775 -0.205,-2.215c-0.136,-0.439 -0.358,-0.727 -0.666,-0.862c-0.435,-0.248 -0.934,-0.372 -1.497,-0.372l-0.762,0.034l-1.415,0l0,-6.729Zm13.931,7.743l0,12.207l5.6,0c2.2,0 3.846,-0.254 4.937,-0.761c1.091,-0.507 1.912,-1.234 2.462,-2.181c0.55,-0.947 0.825,-2.096 0.825,-3.449c0,-1.24 -0.257,-2.305 -0.771,-3.195c-0.514,-0.891 -1.245,-1.55 -2.191,-1.978c-0.947,-0.429 -2.494,-0.643 -4.64,-0.643l-6.222,0Z" style="fill:#fff;fill-rule:nonzero;"/><path d="M286.804,29.837l17.081,0l6.558,28.726l6.787,-28.726l17.374,0l0,6.526l-1.867,0c-1.01,0 -1.708,0.265 -2.096,0.794c-0.388,0.53 -0.582,1.528 -0.582,2.993l0,26.781c0,1.172 0.054,1.905 0.163,2.198c0.162,0.451 0.387,0.766 0.676,0.947c0.397,0.27 0.92,0.405 1.569,0.405l2.137,0l0,6.526l-18.151,0l0,-6.526l1.406,0c1.028,0 1.722,-0.101 2.083,-0.304c0.361,-0.203 0.627,-0.513 0.798,-0.93c0.171,-0.417 0.257,-1.189 0.257,-2.316l0,-29.013l-9.197,39.089l-5.221,0l-8.9,-37.838l0,28.675c0,0.654 0.095,1.161 0.284,1.521c0.189,0.361 0.46,0.637 0.811,0.829c0.352,0.192 0.916,0.287 1.691,0.287l1.813,0l0,6.526l-15.474,0l0,-6.526l1.524,0c0.962,0 1.62,-0.107 1.973,-0.321c0.354,-0.214 0.617,-0.552 0.789,-1.014c0.173,-0.462 0.259,-1.313 0.259,-2.553l0,-26.443c0,-1.217 -0.064,-2.006 -0.191,-2.367c-0.163,-0.496 -0.408,-0.857 -0.734,-1.082c-0.327,-0.225 -0.844,-0.338 -1.552,-0.338l-2.068,0l0,-6.526Z" style="fill:#fff;fill-rule:nonzero;"/><path d="M352.511,29.837l8.477,0l11.326,36.418c0.613,1.938 1.158,3.133 1.636,3.584c0.478,0.451 1.357,0.665 2.638,0.642l0,6.526l-17.854,0l0,-6.526l1.082,-0.033c0.992,0 1.687,-0.164 2.084,-0.491c0.397,-0.327 0.595,-0.727 0.595,-1.2c0,-0.406 -0.171,-1.241 -0.514,-2.503l-1.125,-4.294l-11.474,0l-1.415,4.768c-0.288,1.014 -0.433,1.679 -0.433,1.995c0,0.361 0.104,0.688 0.312,0.981c0.207,0.293 0.545,0.507 1.014,0.642c0.307,0.09 1.154,0.135 2.543,0.135l0,6.526l-14.608,0l0,-6.526c0.938,0 1.623,-0.101 2.055,-0.304c0.433,-0.203 0.789,-0.507 1.068,-0.913c0.28,-0.406 0.591,-1.161 0.934,-2.266l11.659,-37.161Zm-1.132,25.394l7.494,0l-3.651,-12.954l-3.843,12.954Z" style="fill:#fff;fill-rule:nonzero;"/><path d="M407.81,29.837l3.839,0l3.703,16.941l-5.031,1.826c-1.678,-4.036 -3.256,-6.899 -4.734,-8.589c-2.056,-2.322 -4.283,-3.483 -6.682,-3.483c-1.749,0 -3.386,0.609 -4.91,1.826c-1.524,1.217 -2.732,3.009 -3.625,5.376c-0.892,2.367 -1.339,5.14 -1.339,8.319c0,4.846 1.024,9.017 3.071,12.511c2.046,3.494 4.729,5.241 8.047,5.241c2.11,0 4.139,-0.755 6.087,-2.266c2.434,-1.871 4.535,-4.384 6.303,-7.54l4.193,3.889c-2.721,4.643 -5.208,7.878 -7.461,9.704c-3.478,2.818 -7.353,4.227 -11.624,4.227c-3.55,0 -6.762,-1.065 -9.637,-3.195c-2.874,-2.131 -5.168,-5.112 -6.88,-8.944c-1.712,-3.833 -2.568,-8.014 -2.568,-12.545c0,-4.509 0.834,-8.617 2.501,-12.326c1.667,-3.708 3.937,-6.599 6.812,-8.673c2.874,-2.074 6.077,-3.111 9.609,-3.111c3.587,0 6.731,0.947 9.434,2.841l0.892,-2.029Z" style="fill:#fff;fill-rule:nonzero;"/><path d="M419.491,29.837l18.422,0l0,6.526l-1.677,0c-0.974,0 -1.619,0.107 -1.934,0.321c-0.316,0.214 -0.55,0.552 -0.704,1.015c-0.153,0.462 -0.23,1.346 -0.23,2.654l0,26.104c0,1.421 0.063,2.334 0.19,2.739c0.126,0.406 0.342,0.699 0.649,0.88c0.379,0.27 0.947,0.405 1.704,0.405l2.002,0l0,6.526l-18.422,0l0,-6.526l1.497,0c1.07,0 1.769,-0.095 2.095,-0.287c0.327,-0.192 0.567,-0.496 0.721,-0.913c0.154,-0.417 0.232,-1.246 0.232,-2.485l0,-26.206c0,-1.466 -0.078,-2.429 -0.232,-2.891c-0.154,-0.463 -0.413,-0.818 -0.775,-1.066c-0.254,-0.18 -0.871,-0.27 -1.851,-0.27l-1.687,0l0,-6.526Z" style="fill:#fff;fill-rule:nonzero;"/><path d="M462.097,29.025c5.987,0 10.834,2.277 14.54,6.831c3.706,4.553 5.559,10.403 5.559,17.549c0,4.802 -0.848,9.062 -2.543,12.782c-1.695,3.719 -4.035,6.588 -7.02,8.606c-2.984,2.017 -6.587,3.026 -10.807,3.026c-5.572,0 -10.135,-1.916 -13.688,-5.748c-4.292,-4.622 -6.438,-10.798 -6.438,-18.531c0,-7.191 1.88,-13.074 5.64,-17.651c3.76,-4.576 8.679,-6.864 14.757,-6.864Zm0.108,7.507c-2.867,0 -5.149,1.341 -6.844,4.024c-2.128,3.381 -3.192,7.743 -3.192,13.086c0,5.343 0.992,9.569 2.976,12.68c1.713,2.66 3.976,3.99 6.79,3.99c2.831,0 5.094,-1.33 6.789,-3.99c2.002,-3.178 3.003,-7.428 3.003,-12.748c0,-3.742 -0.428,-6.887 -1.285,-9.434c-0.856,-2.547 -2.015,-4.452 -3.476,-5.714c-1.461,-1.263 -3.048,-1.894 -4.761,-1.894Zm-4.734,-9.908l-1.082,-3.415l5.816,-6.492c1.677,-1.849 3.219,-2.773 4.626,-2.773c1.082,0 2.002,0.485 2.759,1.454c0.758,0.969 1.136,2.175 1.136,3.618c0,1.06 -0.324,2.085 -0.974,3.077c-0.649,0.992 -1.794,1.714 -3.435,2.164l-8.846,2.367Z" style="fill:#fff;fill-rule:nonzero;"/><path d="M486.227,29.837l15.308,0l11.067,27.524l0,-16.839c0,-1.443 -0.063,-2.344 -0.19,-2.705c-0.18,-0.541 -0.423,-0.919 -0.73,-1.133c-0.307,-0.214 -0.902,-0.321 -1.785,-0.321l-1.84,0l0,-6.526l15.555,0l0,6.526l-1.722,0c-0.86,0 -1.474,0.124 -1.842,0.372c-0.367,0.248 -0.622,0.586 -0.766,1.014c-0.143,0.429 -0.215,1.353 -0.215,2.773l0,36.485l-7.764,0l-14.012,-34.76l0,24.312c0,1.398 0.067,2.288 0.201,2.671c0.135,0.383 0.377,0.688 0.726,0.913c0.35,0.226 0.955,0.338 1.815,0.338l1.802,0l0,6.526l-15.608,0l0,-6.526l1.613,0c0.896,0 1.51,-0.095 1.842,-0.287c0.332,-0.192 0.596,-0.524 0.793,-0.998c0.198,-0.473 0.296,-1.183 0.296,-2.13l0,-27.051c0,-1.037 -0.089,-1.798 -0.269,-2.283c-0.179,-0.484 -0.421,-0.834 -0.726,-1.048c-0.305,-0.214 -0.815,-0.321 -1.532,-0.321l-2.017,0l0,-6.526Z" style="fill:#fff;fill-rule:nonzero;"/></g></svg>